{
DisplayStrings = (
a
);
classes = (
{
automatic = 1;
code = "A B C D E F G H I J K L M N O P Q R S T U V W X Y Z Agrave Aacute Acircumflex Atilde Adieresis Aring AE Ccedilla Egrave Eacute Ecircumflex Edieresis Igrave Iacute Icircumflex Idieresis Eth Ntilde Ograve Oacute Ocircumflex Otilde Odieresis Oslash Ugrave Uacute Ucircumflex Udieresis Yacute Thorn Cacute Ccaron Gbreve Idot Lslash OE Scedilla Scaron Ydieresis Ydieresis Zcaron Delta";
name = Uppercase;
}
);

glyphs = (
{
glyphname = .notdef;
layers = (
{
layerId = "FE27A893-8D3D-4D0E-A6EA-BC9D15131593";
name = "Regular Italic";
paths = (
{
closed = 1;
nodes = (
"349.942 -329 OFFCURVE",
"516.914 -318 OFFCURVE",
"685.886 -318 CURVE SMOOTH",
"854.858 -318 OFFCURVE",
"1019.83 -329 OFFCURVE",
"1184.8 -352 CURVE",
"1189.8 244.959 OFFCURVE",
"1244.79 836.861 OFFCURVE",
"1340.78 1433.76 CURVE",
"1167.81 1409.77 OFFCURVE",
"997.834 1396.77 OFFCURVE",
"824.863 1396.77 CURVE SMOOTH",
"657.891 1396.77 OFFCURVE",
"497.917 1408.77 OFFCURVE",
"336.944 1433.76 CURVE",
"325.946 836.861 OFFCURVE",
"275.954 244.959 OFFCURVE",
"180.97 -352 CURVE"
);
},
{
closed = 1;
nodes = (
"371.938 395.934 OFFCURVE",
"409.932 859.857 OFFCURVE",
"426.929 1324.78 CURVE",
"555.907 1309.78 OFFCURVE",
"684.886 1304.78 OFFCURVE",
"816.864 1304.78 CURVE SMOOTH",
"953.841 1304.78 OFFCURVE",
"1092.82 1311.78 OFFCURVE",
"1231.79 1325.78 CURVE",
"1163.81 857.857 OFFCURVE",
"1121.81 398.934 OFFCURVE",
"1098.82 -69 CURVE",
"969.839 -59 OFFCURVE",
"840.86 -54 OFFCURVE",
"711.882 -54 CURVE SMOOTH",
"578.904 -54 OFFCURVE",
"445.926 -59 OFFCURVE",
"312.948 -69 CURVE"
);
}
);
width = 1527;
}
);
},
{
glyphname = exclam;
layers = (
{
layerId = "FE27A893-8D3D-4D0E-A6EA-BC9D15131593";
name = "Regular Italic";
paths = (
{
closed = 1;
nodes = (
"223.963 212.965 OFFCURVE",
"216.964 172.971 OFFCURVE",
"209.965 133.978 CURVE SMOOTH",
"202.966 93.9844 OFFCURVE",
"194.968 53.991 OFFCURVE",
"187.969 13.9977 CURVE",
"225.962 29.995 OFFCURVE",
"265.956 37.9937 OFFCURVE",
"306.949 37.9937 CURVE SMOOTH",
"347.942 37.9937 OFFCURVE",
"386.936 29.995 OFFCURVE",
"421.93 13.9977 CURVE",
"420.93 48.9918 OFFCURVE",
"420.93 82.9862 OFFCURVE",
"419.93 116.981 CURVE SMOOTH",
"418.93 150.975 OFFCURVE",
"418.93 184.969 OFFCURVE",
"418.93 218.964 CURVE SMOOTH",
"418.93 252.958 LINE",
"425.929 252.958 OFFCURVE",
"394.934 256.957 OFFCURVE",
"364.939 256.957 CURVE SMOOTH",
"333.944 256.957 OFFCURVE",
"301.95 252.958 OFFCURVE",
"268.955 252.958 CURVE SMOOTH",
"268.955 252.958 LINE SMOOTH",
"268.955 252.958 OFFCURVE",
"268.955 252.958 OFFCURVE",
"237.96 252.958 CURVE SMOOTH",
"230.962 252.958 LINE"
);
},
{
closed = 1;
nodes = (
"315.947 1138.81 OFFCURVE",
"282.953 816.864 OFFCURVE",
"234.961 491.918 CURVE",
"240.96 491.918 OFFCURVE",
"280.953 494.918 OFFCURVE",
"321.946 494.918 CURVE SMOOTH",
"360.94 494.918 OFFCURVE",
"399.933 491.918 OFFCURVE",
"437.927 491.918 CURVE",
"437.927 491.918 LINE SMOOTH",
"437.927 491.918 OFFCURVE",
"437.927 491.918 OFFCURVE",
"478.92 491.918 CURVE",
"478.92 540.91 LINE SMOOTH",
"478.92 589.902 OFFCURVE",
"478.92 638.894 OFFCURVE",
"479.92 687.885 CURVE SMOOTH",
"480.92 736.877 OFFCURVE",
"480.92 785.869 OFFCURVE",
"480.92 835.861 CURVE",
"496.917 1047.83 OFFCURVE",
"511.915 1255.79 OFFCURVE",
"531.911 1467.76 CURVE",
"500.917 1456.76 OFFCURVE",
"469.922 1453.76 OFFCURVE",
"438.927 1453.76 CURVE SMOOTH",
"409.932 1453.76 OFFCURVE",
"382.936 1457.76 OFFCURVE",
"356.941 1465.76 CURVE",
"350.942 1465.76 LINE"
);
}
);
width = 686;
}
);
unicode = 0021;
},
{
glyphname = quotedbl;
layers = (
{
layerId = "FE27A893-8D3D-4D0E-A6EA-BC9D15131593";
name = "Regular Italic";
paths = (
{
closed = 1;
nodes = (
"477.92 1474.75 OFFCURVE",
"451.925 1476.75 OFFCURVE",
"425.929 1477.75 CURVE SMOOTH",
"399.933 1478.75 OFFCURVE",
"373.938 1479.75 OFFCURVE",
"346.942 1482.75 CURVE",
"346.942 1444.76 LINE SMOOTH",
"346.942 1267.79 OFFCURVE",
"327.945 1090.82 OFFCURVE",
"286.952 915.848 CURVE",
"346.942 920.847 OFFCURVE",
"407.932 922.846 OFFCURVE",
"468.922 925.846 CURVE",
"491.918 1109.82 OFFCURVE",
"500.917 1290.79 OFFCURVE",
"503.916 1473.75 CURVE"
);
},
{
closed = 1;
nodes = (
"879.854 1481.75 OFFCURVE",
"853.858 1479.75 OFFCURVE",
"826.862 1477.75 CURVE SMOOTH",
"799.867 1475.75 OFFCURVE",
"773.871 1474.75 OFFCURVE",
"746.876 1474.75 CURVE",
"715.881 1290.79 OFFCURVE",
"696.884 1109.82 OFFCURVE",
"688.885 925.846 CURVE",
"718.88 924.846 OFFCURVE",
"748.875 922.846 OFFCURVE",
"778.87 921.847 CURVE SMOOTH",
"808.865 920.847 OFFCURVE",
"838.86 918.847 OFFCURVE",
"868.855 915.848 CURVE",
"864.856 962.84 OFFCURVE",
"863.856 1008.83 OFFCURVE",
"863.856 1055.82 CURVE SMOOTH",
"863.856 1198.8 OFFCURVE",
"878.854 1341.78 OFFCURVE",
"906.849 1482.75 CURVE"
);
}
);
width = 941;
}
);
unicode = 0022;
},
{
glyphname = numbersign;
layers = (
{
layerId = "FE27A893-8D3D-4D0E-A6EA-BC9D15131593";
name = "Regular Italic";
paths = (
{
closed = 1;
nodes = (
"1000.83 845.859 OFFCURVE",
"982.836 789.869 OFFCURVE",
"963.84 733.878 CURVE SMOOTH",
"944.843 676.887 OFFCURVE",
"925.846 619.897 OFFCURVE",
"907.849 562.906 CURVE",
"848.859 562.906 LINE SMOOTH",
"808.865 562.906 OFFCURVE",
"769.872 562.906 OFFCURVE",
"730.878 562.906 CURVE SMOOTH",
"691.885 561.906 OFFCURVE",
"651.891 561.906 OFFCURVE",
"611.898 561.906 CURVE",
"650.892 674.888 OFFCURVE",
"687.885 788.869 OFFCURVE",
"724.879 901.85 CURVE",
"774.871 902.85 OFFCURVE",
"823.863 902.85 OFFCURVE",
"872.855 902.85 CURVE SMOOTH",
"921.847 902.85 OFFCURVE",
"970.838 902.85 OFFCURVE",
"1019.83 902.85 CURVE"
);
},
{
closed = 1;
nodes = (
"740.877 1363.77 OFFCURVE",
"718.88 1297.78 OFFCURVE",
"697.884 1231.79 CURVE SMOOTH",
"676.887 1164.81 OFFCURVE",
"655.891 1098.82 OFFCURVE",
"634.894 1031.83 CURVE",
"577.904 1032.83 OFFCURVE",
"521.913 1032.83 OFFCURVE",
"464.923 1033.83 CURVE SMOOTH",
"407.932 1034.83 OFFCURVE",
"351.941 1035.83 OFFCURVE",
"294.951 1038.83 CURVE",
"293.951 1016.83 OFFCURVE",
"292.951 994.834 OFFCURVE",
"291.951 973.838 CURVE SMOOTH",
"290.952 951.842 OFFCURVE",
"288.952 929.845 OFFCURVE",
"287.952 907.849 CURVE",
"390.935 904.849 OFFCURVE",
"489.918 903.85 OFFCURVE",
"592.901 903.85 CURVE",
"555.907 788.869 OFFCURVE",
"517.914 675.888 OFFCURVE",
"478.92 560.907 CURVE",
"423.929 559.907 OFFCURVE",
"368.939 558.907 OFFCURVE",
"314.948 558.907 CURVE SMOOTH",
"259.957 558.907 OFFCURVE",
"205.966 557.907 OFFCURVE",
"150.975 556.907 CURVE",
"147.975 534.911 OFFCURVE",
"144.976 512.915 OFFCURVE",
"142.976 490.918 CURVE SMOOTH",
"140.977 468.922 OFFCURVE",
"137.977 446.926 OFFCURVE",
"134.978 424.929 CURVE",
"184.969 425.929 OFFCURVE",
"234.961 427.929 OFFCURVE",
"284.953 428.929 CURVE SMOOTH",
"333.944 429.928 OFFCURVE",
"383.936 431.928 OFFCURVE",
"433.928 432.928 CURVE",
"385.936 295.951 OFFCURVE",
"333.944 159.973 OFFCURVE",
"276.954 24.9958 CURVE",
"299.95 25.9957 OFFCURVE",
"323.946 26.9955 OFFCURVE",
"346.942 27.9953 CURVE SMOOTH",
"369.938 28.9952 OFFCURVE",
"393.934 29.995 OFFCURVE",
"416.931 30.9948 CURVE",
"468.922 165.972 OFFCURVE",
"519.913 296.951 OFFCURVE",
"566.906 433.928 CURVE",
"616.897 434.928 OFFCURVE",
"666.889 435.927 OFFCURVE",
"715.881 435.927 CURVE SMOOTH",
"764.873 435.927 OFFCURVE",
"814.864 435.927 OFFCURVE",
"864.856 435.927 CURVE",
"843.86 368.939 OFFCURVE",
"821.863 302.95 OFFCURVE",
"799.867 236.961 CURVE SMOOTH",
"776.871 169.972 OFFCURVE",
"754.874 103.983 OFFCURVE",
"733.878 36.9938 CURVE",
"802.866 36.9938 LINE SMOOTH",
"814.864 36.9938 OFFCURVE",
"826.862 36.9938 OFFCURVE",
"838.86 36.9938 CURVE SMOOTH",
"849.859 36.9938 OFFCURVE",
"861.857 36.9938 OFFCURVE",
"872.855 35.994 CURVE",
"891.852 102.983 OFFCURVE",
"912.848 169.972 OFFCURVE",
"934.844 235.961 CURVE SMOOTH",
"955.841 300.95 OFFCURVE",
"976.837 367.939 OFFCURVE",
"997.834 434.928 CURVE",
"1053.82 433.928 OFFCURVE",
"1109.82 432.928 OFFCURVE",
"1164.81 431.928 CURVE SMOOTH",
"1219.8 430.928 OFFCURVE",
"1274.79 429.928 OFFCURVE",
"1331.78 428.929 CURVE",
"1332.78 449.925 OFFCURVE",
"1334.78 471.921 OFFCURVE",
"1335.78 493.918 CURVE SMOOTH",
"1336.78 515.914 OFFCURVE",
"1338.78 537.91 OFFCURVE",
"1339.78 558.907 CURVE",
"1239.79 559.907 OFFCURVE",
"1139.81 561.906 OFFCURVE",
"1039.83 562.906 CURVE",
"1075.82 676.887 OFFCURVE",
"1112.81 790.868 OFFCURVE",
"1150.81 904.849 CURVE",
"1259.79 905.849 OFFCURVE",
"1369.77 906.849 OFFCURVE",
"1478.75 909.849 CURVE",
"1481.75 931.845 OFFCURVE",
"1484.75 953.841 OFFCURVE",
"1487.75 976.837 CURVE SMOOTH",
"1490.75 998.834 OFFCURVE",
"1493.75 1020.83 OFFCURVE",
"1496.75 1042.83 CURVE",
"1397.77 1038.83 OFFCURVE",
"1297.78 1035.83 OFFCURVE",
"1197.8 1033.83 CURVE",
"1245.79 1172.8 OFFCURVE",
"1300.78 1307.78 OFFCURVE",
"1357.77 1443.76 CURVE",
"1334.78 1442.76 OFFCURVE",
"1310.78 1441.76 OFFCURVE",
"1287.79 1440.76 CURVE SMOOTH",
"1264.79 1439.76 OFFCURVE",
"1240.79 1437.76 OFFCURVE",
"1217.8 1436.76 CURVE",
"1161.81 1301.78 OFFCURVE",
"1111.81 1168.81 OFFCURVE",
"1063.82 1031.83 CURVE",
"1013.83 1030.83 OFFCURVE",
"964.839 1030.83 OFFCURVE",
"915.848 1030.83 CURVE SMOOTH",
"866.856 1030.83 OFFCURVE",
"816.864 1030.83 OFFCURVE",
"766.872 1030.83 CURVE",
"809.865 1165.81 OFFCURVE",
"855.858 1297.78 OFFCURVE",
"902.85 1430.76 CURVE",
"761.873 1430.76 LINE"
);
}
);
width = 1552;
}
);
unicode = 0023;
},
{
glyphname = dollar;
layers = (
{
layerId = "FE27A893-8D3D-4D0E-A6EA-BC9D15131593";
name = "Regular Italic";
paths = (
{
closed = 1;
nodes = (
"641.893 -201 OFFCURVE",
"642.893 -153 OFFCURVE",
"643.893 -104 CURVE SMOOTH",
"644.893 -55 OFFCURVE",
"646.892 -7 OFFCURVE",
"647.892 41.993 CURVE",
"750.875 46.9922 OFFCURVE",
"856.857 70.9882 OFFCURVE",
"944.843 133.978 CURVE SMOOTH",
"983.836 162.973 OFFCURVE",
"1014.83 205.966 OFFCURVE",
"1036.83 250.958 CURVE SMOOTH",
"1058.82 295.951 OFFCURVE",
"1069.82 345.942 OFFCURVE",
"1069.82 392.935 CURVE SMOOTH",
"1069.82 472.921 OFFCURVE",
"1049.83 557.907 OFFCURVE",
"990.835 610.898 CURVE SMOOTH",
"950.842 646.892 OFFCURVE",
"901.85 669.888 OFFCURVE",
"849.859 686.886 CURVE SMOOTH",
"797.867 703.883 OFFCURVE",
"742.876 713.881 OFFCURVE",
"690.885 724.879 CURVE",
"706.882 880.853 OFFCURVE",
"722.88 1034.83 OFFCURVE",
"739.877 1190.8 CURVE",
"852.858 1185.8 OFFCURVE",
"965.839 1166.81 OFFCURVE",
"1064.82 1115.81 CURVE",
"1067.82 1137.81 OFFCURVE",
"1071.82 1159.81 OFFCURVE",
"1074.82 1181.8 CURVE SMOOTH",
"1077.82 1203.8 OFFCURVE",
"1080.82 1225.8 OFFCURVE",
"1083.82 1247.79 CURVE",
"975.838 1276.79 OFFCURVE",
"864.856 1287.79 OFFCURVE",
"751.875 1291.79 CURVE",
"776.871 1516.75 LINE",
"763.873 1516.75 OFFCURVE",
"749.875 1516.75 OFFCURVE",
"736.877 1517.75 CURVE SMOOTH",
"723.88 1518.75 OFFCURVE",
"709.882 1518.75 OFFCURVE",
"696.884 1518.75 CURVE",
"693.885 1480.75 OFFCURVE",
"689.885 1442.76 OFFCURVE",
"685.886 1404.77 CURVE SMOOTH",
"680.887 1365.77 OFFCURVE",
"676.887 1327.78 OFFCURVE",
"672.888 1289.79 CURVE",
"588.902 1284.79 OFFCURVE",
"504.916 1273.79 OFFCURVE",
"409.932 1229.8 CURVE SMOOTH",
"358.94 1205.8 OFFCURVE",
"318.947 1167.81 OFFCURVE",
"290.952 1121.81 CURVE SMOOTH",
"261.956 1075.82 OFFCURVE",
"244.959 1021.83 OFFCURVE",
"241.96 969.839 CURVE",
"241.96 885.853 OFFCURVE",
"258.957 797.867 OFFCURVE",
"315.947 737.877 CURVE SMOOTH",
"351.941 700.883 OFFCURVE",
"395.934 674.888 OFFCURVE",
"443.926 655.891 CURVE SMOOTH",
"491.918 635.894 OFFCURVE",
"542.91 622.896 OFFCURVE",
"593.901 613.898 CURVE",
"586.902 546.909 OFFCURVE",
"580.903 480.92 OFFCURVE",
"573.904 415.931 CURVE SMOOTH",
"566.906 350.942 OFFCURVE",
"559.907 284.953 OFFCURVE",
"552.908 217.964 CURVE",
"415.931 220.963 OFFCURVE",
"284.953 257.957 OFFCURVE",
"175.971 330.945 CURVE",
"172.971 294.951 OFFCURVE",
"168.972 258.957 OFFCURVE",
"163.973 223.963 CURVE SMOOTH",
"158.974 187.969 OFFCURVE",
"153.974 151.975 OFFCURVE",
"148.975 115.981 CURVE",
"268.955 66.9889 OFFCURVE",
"398.934 46.9922 OFFCURVE",
"531.911 42.9928 CURVE",
"515.914 -54 OFFCURVE",
"498.917 -150 OFFCURVE",
"481.92 -247 CURVE",
"534.911 -247 OFFCURVE",
"587.902 -247 OFFCURVE",
"640.893 -250 CURVE"
);
},
{
closed = 1;
nodes = (
"531.911 738.877 OFFCURVE",
"473.921 760.873 OFFCURVE",
"429.928 795.868 CURVE SMOOTH",
"384.936 830.862 OFFCURVE",
"354.941 879.854 OFFCURVE",
"354.941 940.843 CURVE SMOOTH",
"354.941 1007.83 OFFCURVE",
"380.937 1068.82 OFFCURVE",
"435.927 1112.81 CURVE SMOOTH",
"495.917 1161.81 OFFCURVE",
"573.904 1176.8 OFFCURVE",
"646.892 1184.8 CURVE",
"639.893 1110.82 OFFCURVE",
"631.895 1037.83 OFFCURVE",
"623.896 964.839 CURVE SMOOTH",
"615.897 891.852 OFFCURVE",
"607.899 817.864 OFFCURVE",
"600.9 742.876 CURVE",
"587.902 733.878 LINE"
);
},
{
closed = 1;
nodes = (
"733.878 579.904 OFFCURVE",
"788.869 560.907 OFFCURVE",
"831.862 528.912 CURVE SMOOTH",
"874.854 495.917 OFFCURVE",
"903.85 450.925 OFFCURVE",
"903.85 393.934 CURVE SMOOTH",
"903.85 366.939 OFFCURVE",
"899.85 336.944 OFFCURVE",
"888.852 309.948 CURVE SMOOTH",
"876.854 282.953 OFFCURVE",
"856.857 259.957 OFFCURVE",
"824.863 250.958 CURVE",
"767.872 229.962 OFFCURVE",
"707.882 218.964 OFFCURVE",
"647.892 209.965 CURVE",
"651.891 271.955 OFFCURVE",
"655.891 333.944 OFFCURVE",
"658.89 394.934 CURVE SMOOTH",
"661.89 455.924 OFFCURVE",
"664.889 516.914 OFFCURVE",
"669.888 578.904 CURVE",
"681.886 587.902 LINE"
);
}
);
width = 1260;
}
);
unicode = 0024;
},
{
glyphname = percent;
layers = (
{
layerId = "FE27A893-8D3D-4D0E-A6EA-BC9D15131593";
name = "Regular Italic";
paths = (
{
closed = 1;
nodes = (
"1593.73 668.889 OFFCURVE",
"1635.73 636.894 OFFCURVE",
"1662.72 592.901 CURVE SMOOTH",
"1689.72 547.909 OFFCURVE",
"1699.72 487.919 OFFCURVE",
"1699.72 434.928 CURVE SMOOTH",
"1699.72 382.936 OFFCURVE",
"1692.72 309.948 OFFCURVE",
"1665.72 249.958 CURVE SMOOTH",
"1638.73 189.968 OFFCURVE",
"1594.73 142.976 OFFCURVE",
"1518.75 142.976 CURVE SMOOTH",
"1453.76 142.976 OFFCURVE",
"1405.77 169.972 OFFCURVE",
"1374.77 212.965 CURVE SMOOTH",
"1342.78 255.957 OFFCURVE",
"1327.78 312.948 OFFCURVE",
"1327.78 371.938 CURVE SMOOTH",
"1327.78 431.928 OFFCURVE",
"1339.78 505.916 OFFCURVE",
"1371.77 565.906 CURVE SMOOTH",
"1402.77 624.896 OFFCURVE",
"1453.76 668.889 OFFCURVE",
"1532.74 668.889 CURVE SMOOTH"
);
},
{
closed = 1;
nodes = (
"1453.76 773.871 OFFCURVE",
"1366.77 740.877 OFFCURVE",
"1303.78 669.888 CURVE",
"1303.78 670.888 LINE",
"1262.79 625.896 OFFCURVE",
"1234.79 572.905 OFFCURVE",
"1217.8 517.914 CURVE SMOOTH",
"1200.8 461.923 OFFCURVE",
"1193.8 403.933 OFFCURVE",
"1193.8 347.942 CURVE SMOOTH",
"1193.8 259.957 OFFCURVE",
"1212.8 173.971 OFFCURVE",
"1267.79 109.982 CURVE",
"1296.78 70.9882 OFFCURVE",
"1338.78 43.9927 OFFCURVE",
"1383.77 25.9957 CURVE SMOOTH",
"1427.76 7.99867 OFFCURVE",
"1478.75 -1 OFFCURVE",
"1527.75 -1 CURVE SMOOTH",
"1566.74 -1 OFFCURVE",
"1607.73 4.99917 OFFCURVE",
"1645.73 19.9967 CURVE SMOOTH",
"1683.72 34.9942 OFFCURVE",
"1718.71 57.9903 OFFCURVE",
"1743.71 92.9845 CURVE",
"1779.7 135.977 OFFCURVE",
"1801.7 186.969 OFFCURVE",
"1813.7 239.96 CURVE SMOOTH",
"1825.7 292.951 OFFCURVE",
"1829.7 346.942 OFFCURVE",
"1829.7 397.934 CURVE SMOOTH",
"1829.7 494.918 OFFCURVE",
"1815.7 593.901 OFFCURVE",
"1759.71 669.888 CURVE",
"1712.71 740.877 OFFCURVE",
"1628.73 773.871 OFFCURVE",
"1541.74 773.871 CURVE SMOOTH"
);
},
{
closed = 1;
nodes = (
"665.889 1381.77 OFFCURVE",
"711.882 1350.78 OFFCURVE",
"740.877 1304.78 CURVE SMOOTH",
"769.872 1258.79 OFFCURVE",
"783.87 1199.8 OFFCURVE",
"783.87 1143.81 CURVE SMOOTH",
"783.87 1107.82 OFFCURVE",
"778.87 1060.82 OFFCURVE",
"766.872 1014.83 CURVE SMOOTH",
"754.874 968.839 OFFCURVE",
"735.878 923.846 OFFCURVE",
"705.883 889.852 CURVE SMOOTH",
"675.888 855.858 OFFCURVE",
"635.894 832.861 OFFCURVE",
"582.903 832.861 CURVE SMOOTH",
"514.914 832.861 OFFCURVE",
"472.921 867.856 OFFCURVE",
"445.926 916.847 CURVE SMOOTH",
"418.93 964.839 OFFCURVE",
"409.932 1028.83 OFFCURVE",
"409.932 1085.82 CURVE SMOOTH",
"409.932 1090.82 OFFCURVE",
"409.932 1094.82 OFFCURVE",
"409.932 1099.82 CURVE SMOOTH",
"409.932 1103.82 OFFCURVE",
"409.932 1107.82 OFFCURVE",
"410.932 1112.81 CURVE",
"410.932 1123.81 LINE SMOOTH",
"410.932 1178.8 OFFCURVE",
"424.929 1243.79 OFFCURVE",
"453.924 1295.78 CURVE SMOOTH",
"482.92 1346.78 OFFCURVE",
"528.912 1384.77 OFFCURVE",
"593.901 1384.77 CURVE SMOOTH",
"604.899 1384.77 LINE"
);
},
{
closed = 1;
nodes = (
"1337.78 1244.79 OFFCURVE",
"1165.81 993.835 OFFCURVE",
"993.835 742.876 CURVE SMOOTH",
"821.863 490.918 OFFCURVE",
"648.892 238.96 OFFCURVE",
"460.923 -1 CURVE",
"507.915 1.99967 OFFCURVE",
"551.908 2.9995 OFFCURVE",
"598.9 3.99933 CURVE",
"783.87 244.959 OFFCURVE",
"955.841 497.917 OFFCURVE",
"1127.81 749.875 CURVE SMOOTH",
"1299.78 1000.83 OFFCURVE",
"1473.75 1251.79 OFFCURVE",
"1662.72 1491.75 CURVE",
"1639.73 1490.75 OFFCURVE",
"1616.73 1489.75 OFFCURVE",
"1594.73 1488.75 CURVE SMOOTH",
"1571.74 1487.75 OFFCURVE",
"1548.74 1486.75 OFFCURVE",
"1525.75 1485.75 CURVE"
);
},
{
closed = 1;
nodes = (
"600.9 1489.75 OFFCURVE",
"596.901 1489.75 OFFCURVE",
"593.901 1490.75 CURVE",
"589.902 1490.75 OFFCURVE",
"585.902 1490.75 OFFCURVE",
"581.903 1490.75 CURVE SMOOTH",
"502.916 1489.75 OFFCURVE",
"419.93 1461.76 OFFCURVE",
"366.939 1397.77 CURVE SMOOTH",
"331.945 1354.77 OFFCURVE",
"310.948 1304.78 OFFCURVE",
"298.95 1252.79 CURVE SMOOTH",
"285.952 1199.8 OFFCURVE",
"281.953 1145.81 OFFCURVE",
"281.953 1094.82 CURVE SMOOTH",
"281.953 998.834 OFFCURVE",
"296.951 899.85 OFFCURVE",
"349.942 820.863 CURVE SMOOTH",
"374.938 783.87 OFFCURVE",
"408.932 756.874 OFFCURVE",
"448.925 740.877 CURVE SMOOTH",
"488.919 723.88 OFFCURVE",
"533.911 716.881 OFFCURVE",
"578.904 716.881 CURVE SMOOTH",
"662.89 716.881 OFFCURVE",
"746.876 752.875 OFFCURVE",
"806.866 817.864 CURVE SMOOTH",
"846.859 861.857 OFFCURVE",
"874.854 914.848 OFFCURVE",
"891.852 970.838 CURVE SMOOTH",
"908.849 1025.83 OFFCURVE",
"916.847 1083.82 OFFCURVE",
"916.847 1138.81 CURVE SMOOTH",
"916.847 1226.8 OFFCURVE",
"896.851 1312.78 OFFCURVE",
"843.86 1377.77 CURVE SMOOTH",
"784.869 1449.76 OFFCURVE",
"699.883 1486.75 OFFCURVE",
"604.899 1489.75 CURVE SMOOTH"
);
}
);
width = 2030;
}
);
unicode = 0025;
},
{
glyphname = ampersand;
layers = (
{
layerId = "FE27A893-8D3D-4D0E-A6EA-BC9D15131593";
name = "Regular Italic";
paths = (
{
closed = 1;
nodes = (
"538.91 760.873 OFFCURVE",
"616.897 670.888 OFFCURVE",
"694.884 580.903 CURVE SMOOTH",
"772.871 490.918 OFFCURVE",
"851.858 400.933 OFFCURVE",
"931.845 310.948 CURVE",
"831.862 226.962 OFFCURVE",
"704.883 177.97 OFFCURVE",
"579.904 177.97 CURVE SMOOTH",
"491.918 177.97 OFFCURVE",
"409.932 200.967 OFFCURVE",
"349.942 248.959 CURVE SMOOTH",
"288.952 295.951 OFFCURVE",
"249.958 366.939 OFFCURVE",
"249.958 465.922 CURVE SMOOTH",
"249.958 544.909 OFFCURVE",
"272.955 616.897 OFFCURVE",
"309.948 681.886 CURVE SMOOTH",
"346.942 745.876 OFFCURVE",
"399.933 802.866 OFFCURVE",
"459.923 851.858 CURVE"
);
},
{
closed = 1;
nodes = (
"543.909 971.838 OFFCURVE",
"509.915 1008.83 OFFCURVE",
"484.919 1048.83 CURVE SMOOTH",
"459.923 1087.82 OFFCURVE",
"441.926 1128.81 OFFCURVE",
"441.926 1175.8 CURVE SMOOTH",
"441.926 1243.79 OFFCURVE",
"470.922 1295.78 OFFCURVE",
"514.914 1331.78 CURVE SMOOTH",
"558.907 1366.77 OFFCURVE",
"617.897 1385.77 OFFCURVE",
"680.887 1385.77 CURVE SMOOTH",
"793.868 1385.77 OFFCURVE",
"893.851 1344.78 OFFCURVE",
"986.836 1295.78 CURVE",
"1010.83 1335.78 OFFCURVE",
"1035.83 1375.77 OFFCURVE",
"1060.82 1415.76 CURVE",
"963.84 1454.76 OFFCURVE",
"857.857 1480.75 OFFCURVE",
"748.875 1480.75 CURVE SMOOTH",
"647.892 1480.75 OFFCURVE",
"541.91 1461.76 OFFCURVE",
"457.924 1393.77 CURVE SMOOTH",
"418.93 1362.77 OFFCURVE",
"391.935 1322.78 OFFCURVE",
"372.938 1278.79 CURVE SMOOTH",
"353.941 1233.79 OFFCURVE",
"344.943 1185.8 OFFCURVE",
"344.943 1140.81 CURVE SMOOTH",
"344.943 1052.82 OFFCURVE",
"382.936 975.838 OFFCURVE",
"426.929 904.849 CURVE",
"339.943 844.859 OFFCURVE",
"264.956 770.872 OFFCURVE",
"211.965 683.886 CURVE SMOOTH",
"158.974 595.901 OFFCURVE",
"126.979 496.917 OFFCURVE",
"126.979 391.935 CURVE SMOOTH",
"126.979 291.951 OFFCURVE",
"156.974 194.968 OFFCURVE",
"224.963 125.979 CURVE SMOOTH",
"268.955 81.9864 OFFCURVE",
"322.946 52.9912 OFFCURVE",
"382.936 34.9942 CURVE SMOOTH",
"441.926 16.9972 OFFCURVE",
"505.916 8.9985 OFFCURVE",
"569.905 8.9985 CURVE SMOOTH",
"746.876 8.9985 OFFCURVE",
"915.848 62.9895 OFFCURVE",
"1058.82 179.97 CURVE",
"1081.82 153.974 OFFCURVE",
"1105.82 127.979 OFFCURVE",
"1129.81 102.983 CURVE",
"1152.81 76.9872 OFFCURVE",
"1176.8 50.9915 OFFCURVE",
"1199.8 25.9957 CURVE",
"1274.79 21.9963 OFFCURVE",
"1348.78 16.9972 OFFCURVE",
"1421.76 9.99834 CURVE",
"1378.77 57.9903 OFFCURVE",
"1335.78 105.982 OFFCURVE",
"1292.78 152.975 CURVE SMOOTH",
"1249.79 199.967 OFFCURVE",
"1205.8 246.959 OFFCURVE",
"1162.81 295.951 CURVE",
"1219.8 371.938 OFFCURVE",
"1264.79 454.924 OFFCURVE",
"1287.79 545.909 CURVE SMOOTH",
"1307.78 626.896 OFFCURVE",
"1324.78 707.882 OFFCURVE",
"1339.78 790.868 CURVE",
"1313.78 789.869 OFFCURVE",
"1287.79 789.869 OFFCURVE",
"1261.79 789.869 CURVE SMOOTH",
"1235.79 789.869 OFFCURVE",
"1209.8 789.869 OFFCURVE",
"1184.8 789.869 CURVE",
"1175.8 721.88 OFFCURVE",
"1162.81 656.891 OFFCURVE",
"1142.81 592.901 CURVE SMOOTH",
"1122.81 528.912 OFFCURVE",
"1094.82 467.922 OFFCURVE",
"1051.82 410.932 CURVE",
"970.838 498.917 OFFCURVE",
"891.852 586.902 OFFCURVE",
"812.865 674.888 CURVE SMOOTH",
"733.878 762.873 OFFCURVE",
"653.891 850.858 OFFCURVE",
"572.905 938.844 CURVE SMOOTH"
);
}
);
width = 1687;
}
);
unicode = 0026;
},
{
glyphname = parenleft;
layers = (
{
layerId = "FE27A893-8D3D-4D0E-A6EA-BC9D15131593";
name = "Regular Italic";
paths = (
{
closed = 1;
nodes = (
"749.875 1529.75 OFFCURVE",
"706.882 1521.75 OFFCURVE",
"659.89 1521.75 CURVE",
"555.907 1398.77 OFFCURVE",
"460.923 1265.79 OFFCURVE",
"384.936 1124.81 CURVE SMOOTH",
"308.949 983.836 OFFCURVE",
"252.958 833.861 OFFCURVE",
"228.962 677.887 CURVE",
"222.963 600.9 OFFCURVE",
"219.963 523.913 OFFCURVE",
"219.963 447.925 CURVE SMOOTH",
"219.963 219.963 OFFCURVE",
"247.959 -3 OFFCURVE",
"319.947 -214 CURVE",
"383.936 -215 OFFCURVE",
"444.926 -220 OFFCURVE",
"505.916 -231 CURVE",
"450.925 -88 OFFCURVE",
"413.931 58.9902 OFFCURVE",
"402.933 215.964 CURVE SMOOTH",
"397.934 294.951 OFFCURVE",
"393.934 369.938 OFFCURVE",
"393.934 449.925 CURVE SMOOTH",
"393.934 518.914 OFFCURVE",
"395.934 588.902 OFFCURVE",
"398.934 659.89 CURVE",
"415.931 819.864 OFFCURVE",
"468.922 973.838 OFFCURVE",
"540.91 1119.81 CURVE SMOOTH",
"612.898 1265.79 OFFCURVE",
"703.883 1404.77 OFFCURVE",
"796.867 1537.74 CURVE"
);
}
);
width = 752;
}
);
unicode = 0028;
},
{
glyphname = parenright;
layers = (
{
layerId = "FE27A893-8D3D-4D0E-A6EA-BC9D15131593";
name = "Regular Italic";
paths = (
{
closed = 1;
nodes = (
"451.925 1355.77 OFFCURVE",
"484.919 1149.81 OFFCURVE",
"484.919 916.847 CURVE SMOOTH",
"484.919 828.862 OFFCURVE",
"481.92 742.876 OFFCURVE",
"473.921 654.891 CURVE",
"449.925 495.917 OFFCURVE",
"394.934 343.943 OFFCURVE",
"323.946 197.967 CURVE SMOOTH",
"251.958 51.9913 OFFCURVE",
"162.973 -88 OFFCURVE",
"67.9887 -221 CURVE",
"135.977 -206 OFFCURVE",
"205.966 -201 OFFCURVE",
"273.954 -201 CURVE",
"361.94 -68 OFFCURVE",
"441.926 68.9885 OFFCURVE",
"513.914 211.965 CURVE SMOOTH",
"565.906 312.948 OFFCURVE",
"597.901 417.93 OFFCURVE",
"617.897 524.913 CURVE SMOOTH",
"636.894 631.895 OFFCURVE",
"643.893 741.877 OFFCURVE",
"643.893 854.858 CURVE SMOOTH",
"643.893 1099.82 OFFCURVE",
"607.899 1318.78 OFFCURVE",
"514.914 1527.75 CURVE",
"462.923 1530.75 OFFCURVE",
"411.931 1535.74 OFFCURVE",
"360.94 1546.74 CURVE",
"364.939 1550.74 LINE",
"371.938 1559.74 LINE"
);
}
);
width = 774;
}
);
unicode = 0029;
},
{
glyphname = asterisk;
layers = (
{
layerId = "FE27A893-8D3D-4D0E-A6EA-BC9D15131593";
name = "Regular Italic";
paths = (
{
closed = 1;
nodes = (
"1111.81 1276.79 OFFCURVE",
"1101.82 1301.78 OFFCURVE",
"1090.82 1328.78 CURVE",
"974.838 1257.79 OFFCURVE",
"860.857 1189.8 OFFCURVE",
"743.876 1121.81 CURVE",
"754.874 1245.79 OFFCURVE",
"766.872 1367.77 OFFCURVE",
"779.87 1491.75 CURVE",
"685.886 1491.75 LINE",
"680.887 1429.76 OFFCURVE",
"675.888 1367.77 OFFCURVE",
"670.888 1306.78 CURVE SMOOTH",
"665.889 1245.79 OFFCURVE",
"660.89 1183.8 OFFCURVE",
"655.891 1121.81 CURVE",
"603.899 1155.81 OFFCURVE",
"551.908 1189.8 OFFCURVE",
"499.917 1223.8 CURVE SMOOTH",
"446.926 1256.79 OFFCURVE",
"395.934 1291.79 OFFCURVE",
"344.943 1327.78 CURVE",
"335.944 1314.78 OFFCURVE",
"327.945 1301.78 OFFCURVE",
"320.947 1288.79 CURVE SMOOTH",
"313.948 1275.79 OFFCURVE",
"306.949 1262.79 OFFCURVE",
"297.95 1249.79 CURVE",
"405.932 1180.8 OFFCURVE",
"515.914 1114.81 OFFCURVE",
"627.896 1051.82 CURVE",
"503.916 986.836 OFFCURVE",
"383.936 922.846 OFFCURVE",
"262.956 853.858 CURVE",
"268.955 840.86 OFFCURVE",
"274.954 828.862 OFFCURVE",
"279.953 815.864 CURVE SMOOTH",
"284.953 802.866 OFFCURVE",
"290.952 789.869 OFFCURVE",
"295.951 776.871 CURVE",
"354.941 810.865 OFFCURVE",
"412.931 844.859 OFFCURVE",
"469.922 879.854 CURVE SMOOTH",
"526.912 914.848 OFFCURVE",
"583.903 948.842 OFFCURVE",
"642.893 982.836 CURVE",
"637.894 920.847 OFFCURVE",
"631.895 858.857 OFFCURVE",
"625.896 797.867 CURVE SMOOTH",
"619.897 736.877 OFFCURVE",
"613.898 674.888 OFFCURVE",
"608.899 612.898 CURVE",
"702.883 612.898 LINE",
"705.883 674.888 OFFCURVE",
"710.882 736.877 OFFCURVE",
"715.881 797.867 CURVE SMOOTH",
"720.88 858.857 OFFCURVE",
"726.879 920.847 OFFCURVE",
"731.878 982.836 CURVE",
"835.861 914.848 OFFCURVE",
"937.844 845.859 OFFCURVE",
"1040.83 776.871 CURVE",
"1057.82 801.867 OFFCURVE",
"1073.82 826.862 OFFCURVE",
"1088.82 853.858 CURVE",
"980.837 922.846 OFFCURVE",
"871.855 986.836 OFFCURVE",
"759.874 1051.82 CURVE",
"880.853 1116.81 OFFCURVE",
"1002.83 1181.8 OFFCURVE",
"1123.81 1249.79 CURVE"
);
}
);
width = 1174;
}
);
unicode = 002A;
},
{
glyphname = plus;
layers = (
{
layerId = "FE27A893-8D3D-4D0E-A6EA-BC9D15131593";
name = "Regular Italic";
paths = (
{
closed = 1;
nodes = (
"742.876 1158.81 OFFCURVE",
"735.878 1069.82 OFFCURVE",
"728.879 980.837 CURVE SMOOTH",
"721.88 891.852 OFFCURVE",
"713.881 802.866 OFFCURVE",
"705.883 712.881 CURVE",
"530.912 712.881 OFFCURVE",
"359.94 712.881 OFFCURVE",
"184.969 716.881 CURVE",
"171.971 566.906 LINE",
"258.957 566.906 OFFCURVE",
"345.942 566.906 OFFCURVE",
"432.928 567.905 CURVE SMOOTH",
"518.914 568.905 OFFCURVE",
"605.899 568.905 OFFCURVE",
"692.885 568.905 CURVE",
"685.886 479.92 OFFCURVE",
"677.887 390.935 OFFCURVE",
"668.889 301.95 CURVE SMOOTH",
"659.89 212.965 OFFCURVE",
"651.891 122.98 OFFCURVE",
"642.893 33.9943 CURVE",
"790.868 33.9943 LINE",
"795.868 122.98 OFFCURVE",
"802.866 212.965 OFFCURVE",
"809.865 301.95 CURVE SMOOTH",
"816.864 390.935 OFFCURVE",
"824.863 479.92 OFFCURVE",
"831.862 568.905 CURVE",
"918.847 568.905 OFFCURVE",
"1005.83 568.905 OFFCURVE",
"1092.82 568.905 CURVE SMOOTH",
"1178.8 568.905 OFFCURVE",
"1265.79 567.905 OFFCURVE",
"1352.77 566.906 CURVE",
"1365.77 715.881 LINE",
"1190.8 712.881 OFFCURVE",
"1019.83 711.882 OFFCURVE",
"844.859 711.882 CURVE",
"860.857 891.852 OFFCURVE",
"876.854 1068.82 OFFCURVE",
"897.851 1247.79 CURVE",
"749.875 1247.79 LINE"
);
}
);
width = 1499;
}
);
unicode = 002B;
},
{
glyphname = comma;
layers = (
{
layerId = "FE27A893-8D3D-4D0E-A6EA-BC9D15131593";
name = "Regular Italic";
paths = (
{
closed = 1;
nodes = (
"108.982 157.974 OFFCURVE",
"104.983 93.9844 OFFCURVE",
"99.9834 26.9955 CURVE",
"78.9869 -24 OFFCURVE",
"58.9902 -75 OFFCURVE",
"38.9935 -126 CURVE SMOOTH",
"17.997 -177 OFFCURVE",
"-4 -228 OFFCURVE",
"-27 -278 CURVE",
"-8 -275 OFFCURVE",
"9.99834 -273 OFFCURVE",
"27.9953 -272 CURVE SMOOTH",
"45.9923 -271 OFFCURVE",
"63.9893 -270 OFFCURVE",
"81.9864 -269 CURVE",
"123.979 -220 OFFCURVE",
"163.973 -169 OFFCURVE",
"202.966 -118 CURVE SMOOTH",
"240.96 -67 OFFCURVE",
"278.954 -16 OFFCURVE",
"317.947 34.9942 CURVE",
"324.946 101.983 OFFCURVE",
"333.944 166.972 OFFCURVE",
"345.942 233.961 CURVE",
"286.952 226.962 OFFCURVE",
"230.962 223.963 OFFCURVE",
"173.971 223.963 CURVE SMOOTH",
"162.973 223.963 OFFCURVE",
"152.975 223.963 OFFCURVE",
"142.976 223.963 CURVE SMOOTH",
"132.978 223.963 OFFCURVE",
"122.98 223.963 OFFCURVE",
"112.981 224.963 CURVE"
);
}
);
width = 577;
}
);
unicode = 002C;
},
{
glyphname = hyphen;
layers = (
{
layerId = "FE27A893-8D3D-4D0E-A6EA-BC9D15131593";
name = "Regular Italic";
paths = (
{
closed = 1;
nodes = (
"169.972 619.897 OFFCURVE",
"170.972 606.899 OFFCURVE",
"170.972 591.901 CURVE SMOOTH",
"170.972 556.907 OFFCURVE",
"161.973 520.913 OFFCURVE",
"142.976 488.919 CURVE",
"317.947 495.917 OFFCURVE",
"485.919 497.917 OFFCURVE",
"658.89 497.917 CURVE",
"654.891 511.915 OFFCURVE",
"652.891 525.912 OFFCURVE",
"652.891 540.91 CURVE SMOOTH",
"652.891 575.904 OFFCURVE",
"663.89 611.898 OFFCURVE",
"682.886 642.893 CURVE",
"531.911 637.894 OFFCURVE",
"384.936 631.895 OFFCURVE",
"235.961 631.895 CURVE SMOOTH",
"224.963 631.895 OFFCURVE",
"212.965 631.895 OFFCURVE",
"201.966 632.895 CURVE",
"189.968 632.895 OFFCURVE",
"177.97 632.895 OFFCURVE",
"166.972 632.895 CURVE"
);
}
);
width = 820;
}
);
unicode = 002D;
},
{
glyphname = period;
layers = (
{
layerId = "FE27A893-8D3D-4D0E-A6EA-BC9D15131593";
name = "Regular Italic";
paths = (
{
closed = 1;
nodes = (
"98.9835 186.969 OFFCURVE",
"89.985 97.9837 OFFCURVE",
"71.988 9.99834 CURVE",
"75.9874 9.99834 OFFCURVE",
"122.98 11.998 OFFCURVE",
"169.972 11.998 CURVE SMOOTH",
"216.964 11.998 OFFCURVE",
"262.956 9.99834 OFFCURVE",
"308.949 9.99834 CURVE",
"308.949 9.99834 LINE SMOOTH",
"308.949 9.99834 OFFCURVE",
"308.949 9.99834 OFFCURVE",
"355.941 9.99834 CURVE",
"354.941 16.9972 OFFCURVE",
"354.941 22.9962 OFFCURVE",
"354.941 29.995 CURVE SMOOTH",
"354.941 36.9938 OFFCURVE",
"354.941 43.9927 OFFCURVE",
"354.941 50.9915 CURVE SMOOTH",
"354.941 139.977 OFFCURVE",
"363.939 226.962 OFFCURVE",
"382.936 313.948 CURVE",
"378.937 313.948 OFFCURVE",
"328.945 311.948 OFFCURVE",
"278.954 311.948 CURVE SMOOTH",
"234.961 311.948 OFFCURVE",
"191.968 313.948 OFFCURVE",
"148.975 313.948 CURVE SMOOTH",
"148.975 313.948 LINE SMOOTH",
"148.975 313.948 OFFCURVE",
"148.975 313.948 OFFCURVE",
"98.9835 313.948 CURVE",
"98.9835 275.954 LINE SMOOTH"
);
}
);
width = 617;
}
);
unicode = 002E;
},
{
glyphname = slash;
layers = (
{
layerId = "FE27A893-8D3D-4D0E-A6EA-BC9D15131593";
name = "Regular Italic";
paths = (
{
closed = 1;
nodes = (
"583.903 1174.8 OFFCURVE",
"466.922 902.85 OFFCURVE",
"350.942 631.895 CURVE SMOOTH",
"233.961 359.94 OFFCURVE",
"117.98 87.9854 OFFCURVE",
"-6 -180 CURVE",
"62.9895 -169 OFFCURVE",
"132.978 -165 OFFCURVE",
"201.966 -162 CURVE",
"312.948 105.982 OFFCURVE",
"414.931 377.937 OFFCURVE",
"517.914 649.892 CURVE SMOOTH",
"620.897 920.847 OFFCURVE",
"724.879 1190.8 OFFCURVE",
"837.861 1458.76 CURVE",
"794.868 1451.76 OFFCURVE",
"750.875 1446.76 OFFCURVE",
"707.882 1442.76 CURVE"
);
}
);
width = 795;
}
);
unicode = 002F;
},
{
glyphname = zero;
layers = (
{
layerId = "FE27A893-8D3D-4D0E-A6EA-BC9D15131593";
name = "Regular Italic";
paths = (
{
closed = 1;
nodes = (
"747.876 1420.76 OFFCURVE",
"750.875 1420.76 OFFCURVE",
"753.875 1421.76 CURVE",
"756.874 1421.76 OFFCURVE",
"759.874 1421.76 OFFCURVE",
"762.873 1421.76 CURVE SMOOTH",
"822.863 1421.76 OFFCURVE",
"875.854 1398.77 OFFCURVE",
"916.847 1360.77 CURVE SMOOTH",
"957.841 1322.78 OFFCURVE",
"985.836 1266.79 OFFCURVE",
"994.834 1205.8 CURVE",
"1005.83 1153.81 OFFCURVE",
"1008.83 1099.82 OFFCURVE",
"1008.83 1046.83 CURVE SMOOTH",
"1008.83 1023.83 OFFCURVE",
"1006.83 968.839 OFFCURVE",
"999.834 899.85 CURVE SMOOTH",
"991.835 830.862 OFFCURVE",
"977.837 745.876 OFFCURVE",
"953.841 663.89 CURVE SMOOTH",
"928.845 581.903 OFFCURVE",
"893.851 501.916 OFFCURVE",
"843.86 442.926 CURVE SMOOTH",
"793.868 383.936 OFFCURVE",
"727.879 345.942 OFFCURVE",
"642.893 345.942 CURVE SMOOTH",
"640.893 345.942 OFFCURVE",
"638.894 345.942 OFFCURVE",
"636.894 346.942 CURVE",
"633.894 346.942 OFFCURVE",
"631.895 346.942 OFFCURVE",
"629.895 346.942 CURVE SMOOTH",
"618.897 346.942 LINE SMOOTH",
"574.904 346.942 OFFCURVE",
"532.911 358.94 OFFCURVE",
"497.917 380.937 CURVE SMOOTH",
"461.923 402.933 OFFCURVE",
"434.928 434.928 OFFCURVE",
"419.93 474.921 CURVE SMOOTH",
"391.935 550.908 OFFCURVE",
"384.936 631.895 OFFCURVE",
"384.936 715.881 CURVE SMOOTH",
"384.936 794.868 OFFCURVE",
"386.936 878.854 OFFCURVE",
"397.934 964.839 CURVE SMOOTH",
"408.932 1050.83 OFFCURVE",
"427.929 1137.81 OFFCURVE",
"462.923 1224.8 CURVE",
"482.92 1280.79 OFFCURVE",
"519.913 1329.78 OFFCURVE",
"566.906 1364.77 CURVE SMOOTH",
"613.898 1399.77 OFFCURVE",
"669.888 1420.76 OFFCURVE",
"728.879 1420.76 CURVE SMOOTH",
"744.876 1420.76 LINE SMOOTH"
);
},
{
closed = 1;
nodes = (
"668.889 1479.75 OFFCURVE",
"596.901 1463.76 OFFCURVE",
"531.911 1431.76 CURVE SMOOTH",
"466.922 1399.77 OFFCURVE",
"406.932 1350.78 OFFCURVE",
"362.94 1283.79 CURVE SMOOTH",
"307.949 1202.8 OFFCURVE",
"274.954 1113.81 OFFCURVE",
"250.958 1021.83 CURVE SMOOTH",
"226.962 929.845 OFFCURVE",
"213.964 835.861 OFFCURVE",
"200.967 744.876 CURVE",
"196.967 680.887 OFFCURVE",
"193.968 617.897 OFFCURVE",
"193.968 552.908 CURVE SMOOTH",
"193.968 424.929 OFFCURVE",
"206.966 298.95 OFFCURVE",
"265.956 179.97 CURVE SMOOTH",
"294.951 122.98 OFFCURVE",
"342.943 79.9867 OFFCURVE",
"398.934 51.9913 CURVE SMOOTH",
"454.924 23.996 OFFCURVE",
"519.913 9.99834 OFFCURVE",
"583.903 9.99834 CURVE SMOOTH",
"600.9 9.99834 LINE",
"615.897 9.99834 LINE SMOOTH",
"683.886 9.99834 OFFCURVE",
"754.874 25.9957 OFFCURVE",
"818.864 58.9902 CURVE SMOOTH",
"882.853 90.9849 OFFCURVE",
"941.843 138.977 OFFCURVE",
"986.836 205.966 CURVE SMOOTH",
"1039.83 286.952 OFFCURVE",
"1073.82 375.937 OFFCURVE",
"1097.82 467.922 CURVE SMOOTH",
"1121.81 559.907 OFFCURVE",
"1135.81 653.891 OFFCURVE",
"1148.81 745.876 CURVE",
"1152.81 805.866 OFFCURVE",
"1155.81 865.856 OFFCURVE",
"1155.81 926.846 CURVE SMOOTH",
"1155.81 1055.82 OFFCURVE",
"1141.81 1187.8 OFFCURVE",
"1082.82 1308.78 CURVE SMOOTH",
"1054.82 1365.77 OFFCURVE",
"1007.83 1408.77 OFFCURVE",
"951.842 1437.76 CURVE SMOOTH",
"895.851 1465.76 OFFCURVE",
"829.862 1479.75 OFFCURVE",
"765.872 1479.75 CURVE SMOOTH",
"749.875 1479.75 LINE",
"736.877 1479.75 LINE SMOOTH"
);
}
);
width = 1267;
}
);
unicode = 0030;
},
{
glyphname = one;
layers = (
{
layerId = "FE27A893-8D3D-4D0E-A6EA-BC9D15131593";
name = "Regular Italic";
paths = (
{
closed = 1;
nodes = (
"260.957 184.969 OFFCURVE",
"249.958 100.983 OFFCURVE",
"234.961 13.9977 CURVE",
"373.938 29.995 OFFCURVE",
"509.915 38.9935 OFFCURVE",
"648.892 38.9935 CURVE SMOOTH",
"792.868 38.9935 OFFCURVE",
"933.845 28.9952 OFFCURVE",
"1074.82 9.99834 CURVE",
"1074.82 44.9925 LINE SMOOTH",
"1074.82 120.98 OFFCURVE",
"1076.82 194.968 OFFCURVE",
"1079.82 270.955 CURVE",
"975.838 281.953 OFFCURVE",
"869.855 284.953 OFFCURVE",
"764.873 287.952 CURVE",
"793.868 679.887 OFFCURVE",
"828.862 1063.82 OFFCURVE",
"871.855 1455.76 CURVE",
"855.858 1454.76 OFFCURVE",
"839.86 1453.76 OFFCURVE",
"823.863 1453.76 CURVE SMOOTH",
"807.866 1453.76 OFFCURVE",
"791.868 1453.76 OFFCURVE",
"775.871 1453.76 CURVE SMOOTH",
"760.873 1453.76 OFFCURVE",
"744.876 1453.76 OFFCURVE",
"728.879 1453.76 CURVE SMOOTH",
"712.881 1453.76 OFFCURVE",
"696.884 1453.76 OFFCURVE",
"680.887 1454.76 CURVE",
"563.906 1435.76 OFFCURVE",
"449.925 1417.76 OFFCURVE",
"332.945 1412.76 CURVE",
"331.945 1384.77 OFFCURVE",
"331.945 1357.77 OFFCURVE",
"331.945 1330.78 CURVE",
"330.945 1303.78 OFFCURVE",
"329.945 1276.79 OFFCURVE",
"328.945 1248.79 CURVE",
"445.926 1258.79 OFFCURVE",
"561.906 1274.79 OFFCURVE",
"677.887 1296.78 CURVE",
"650.892 957.841 OFFCURVE",
"622.896 626.896 OFFCURVE",
"591.901 287.952 CURVE",
"484.919 286.952 OFFCURVE",
"379.937 280.953 OFFCURVE",
"272.955 272.955 CURVE"
);
}
);
width = 1340;
}
);
unicode = 0031;
},
{
glyphname = two;
layers = (
{
layerId = "FE27A893-8D3D-4D0E-A6EA-BC9D15131593";
name = "Regular Italic";
paths = (
{
closed = 1;
nodes = (
"659.89 300.95 OFFCURVE",
"657.891 302.95 OFFCURVE",
"656.891 304.949 CURVE",
"654.891 306.949 OFFCURVE",
"652.891 308.949 OFFCURVE",
"651.891 310.948 CURVE",
"686.886 410.932 OFFCURVE",
"758.874 496.917 OFFCURVE",
"834.861 569.905 CURVE SMOOTH",
"890.852 622.896 OFFCURVE",
"943.843 676.887 OFFCURVE",
"998.834 731.878 CURVE",
"996.834 730.878 LINE",
"1051.82 794.868 OFFCURVE",
"1098.82 859.857 OFFCURVE",
"1131.81 928.845 CURVE SMOOTH",
"1164.81 997.834 OFFCURVE",
"1184.8 1071.82 OFFCURVE",
"1184.8 1152.81 CURVE SMOOTH",
"1184.8 1240.79 OFFCURVE",
"1158.81 1323.78 OFFCURVE",
"1091.82 1379.77 CURVE SMOOTH",
"1044.83 1419.76 OFFCURVE",
"988.835 1443.76 OFFCURVE",
"928.845 1459.76 CURVE SMOOTH",
"868.855 1474.75 OFFCURVE",
"805.866 1479.75 OFFCURVE",
"742.876 1479.75 CURVE SMOOTH",
"603.899 1479.75 OFFCURVE",
"468.922 1445.76 OFFCURVE",
"331.945 1410.77 CURVE",
"331.945 1350.78 OFFCURVE",
"329.945 1291.79 OFFCURVE",
"326.946 1231.79 CURVE",
"457.924 1291.79 OFFCURVE",
"593.901 1333.78 OFFCURVE",
"733.878 1333.78 CURVE SMOOTH",
"804.866 1333.78 OFFCURVE",
"872.855 1315.78 OFFCURVE",
"923.846 1276.79 CURVE SMOOTH",
"974.838 1237.79 OFFCURVE",
"1007.83 1179.8 OFFCURVE",
"1007.83 1099.82 CURVE SMOOTH",
"1007.83 1036.83 OFFCURVE",
"985.836 975.838 OFFCURVE",
"952.841 919.847 CURVE",
"952.841 920.847 LINE",
"913.848 852.858 OFFCURVE",
"861.857 796.867 OFFCURVE",
"808.865 740.877 CURVE",
"809.865 740.877 LINE",
"737.877 669.888 OFFCURVE",
"658.89 611.898 OFFCURVE",
"575.904 554.908 CURVE",
"459.923 467.922 OFFCURVE",
"344.943 380.937 OFFCURVE",
"235.961 285.952 CURVE",
"220.963 193.968 OFFCURVE",
"206.966 101.983 OFFCURVE",
"191.968 9.99834 CURVE",
"350.942 28.9952 OFFCURVE",
"507.915 37.9937 OFFCURVE",
"664.889 37.9937 CURVE SMOOTH",
"817.864 37.9937 OFFCURVE",
"968.839 28.9952 OFFCURVE",
"1119.81 9.99834 CURVE",
"1119.81 100.983 OFFCURVE",
"1119.81 189.968 OFFCURVE",
"1123.81 280.953 CURVE",
"968.839 295.951 OFFCURVE",
"816.864 298.95 OFFCURVE",
"660.89 298.95 CURVE"
);
}
);
width = 1385;
}
);
unicode = 0032;
},
{
glyphname = three;
layers = (
{
layerId = "FE27A893-8D3D-4D0E-A6EA-BC9D15131593";
name = "Regular Italic";
paths = (
{
closed = 1;
nodes = (
"884.853 795.868 OFFCURVE",
"884.853 799.867 OFFCURVE",
"885.853 802.866 CURVE",
"885.853 805.866 OFFCURVE",
"885.853 809.865 OFFCURVE",
"885.853 812.865 CURVE",
"972.838 829.862 OFFCURVE",
"1044.83 879.854 OFFCURVE",
"1094.82 946.842 CURVE SMOOTH",
"1144.81 1013.83 OFFCURVE",
"1172.8 1097.82 OFFCURVE",
"1172.8 1181.8 CURVE SMOOTH",
"1172.8 1302.78 OFFCURVE",
"1111.81 1377.77 OFFCURVE",
"1026.83 1421.76 CURVE SMOOTH",
"941.843 1465.76 OFFCURVE",
"831.862 1479.75 OFFCURVE",
"732.878 1479.75 CURVE SMOOTH",
"600.9 1479.75 OFFCURVE",
"470.922 1461.76 OFFCURVE",
"338.944 1440.76 CURVE",
"337.944 1417.76 OFFCURVE",
"337.944 1394.77 OFFCURVE",
"337.944 1372.77 CURVE",
"336.944 1349.78 OFFCURVE",
"335.944 1326.78 OFFCURVE",
"334.944 1303.78 CURVE",
"457.924 1332.78 OFFCURVE",
"579.904 1353.77 OFFCURVE",
"704.883 1353.77 CURVE SMOOTH",
"760.873 1353.77 OFFCURVE",
"833.861 1345.78 OFFCURVE",
"893.851 1317.78 CURVE SMOOTH",
"952.841 1288.79 OFFCURVE",
"997.834 1237.79 OFFCURVE",
"997.834 1152.81 CURVE SMOOTH",
"997.834 1065.82 OFFCURVE",
"961.84 999.834 OFFCURVE",
"906.849 953.841 CURVE SMOOTH",
"851.858 907.849 OFFCURVE",
"776.871 882.853 OFFCURVE",
"699.883 882.853 CURVE SMOOTH",
"667.889 882.853 OFFCURVE",
"636.894 882.853 OFFCURVE",
"605.899 883.853 CURVE SMOOTH",
"574.904 884.853 OFFCURVE",
"542.91 884.853 OFFCURVE",
"510.915 884.853 CURVE",
"509.915 861.857 OFFCURVE",
"507.915 837.861 OFFCURVE",
"505.916 814.864 CURVE",
"502.916 790.868 OFFCURVE",
"500.917 766.872 OFFCURVE",
"498.917 743.876 CURVE",
"550.908 743.876 LINE SMOOTH",
"579.904 743.876 OFFCURVE",
"609.898 743.876 OFFCURVE",
"640.893 743.876 CURVE SMOOTH",
"671.888 743.876 OFFCURVE",
"701.883 741.877 OFFCURVE",
"731.878 737.877 CURVE SMOOTH",
"791.868 729.879 OFFCURVE",
"848.859 710.882 OFFCURVE",
"893.851 670.888 CURVE SMOOTH",
"938.844 630.895 OFFCURVE",
"971.838 573.904 OFFCURVE",
"971.838 508.915 CURVE SMOOTH",
"971.838 473.921 OFFCURVE",
"956.841 443.926 OFFCURVE",
"935.844 418.93 CURVE SMOOTH",
"914.848 393.934 OFFCURVE",
"886.852 371.938 OFFCURVE",
"861.857 351.941 CURVE",
"862.856 351.941 LINE",
"818.864 315.947 OFFCURVE",
"766.872 295.951 OFFCURVE",
"713.881 284.953 CURVE SMOOTH",
"660.89 272.955 OFFCURVE",
"604.899 269.955 OFFCURVE",
"552.908 269.955 CURVE SMOOTH",
"433.928 269.955 OFFCURVE",
"315.947 286.952 OFFCURVE",
"215.964 342.943 CURVE",
"203.966 245.959 OFFCURVE",
"189.968 148.975 OFFCURVE",
"173.971 51.9913 CURVE",
"285.952 22.9962 OFFCURVE",
"400.933 7.99867 OFFCURVE",
"518.914 7.99867 CURVE SMOOTH",
"594.901 7.99867 OFFCURVE",
"675.888 10.9982 OFFCURVE",
"756.874 26.9955 CURVE SMOOTH",
"837.861 41.993 OFFCURVE",
"917.847 69.9883 OFFCURVE",
"989.835 120.98 CURVE",
"1046.83 164.973 OFFCURVE",
"1084.82 225.962 OFFCURVE",
"1107.82 290.952 CURVE SMOOTH",
"1130.81 355.941 OFFCURVE",
"1138.81 426.929 OFFCURVE",
"1138.81 490.918 CURVE SMOOTH",
"1138.81 563.906 OFFCURVE",
"1119.81 631.895 OFFCURVE",
"1080.82 691.885 CURVE SMOOTH",
"1037.83 755.874 OFFCURVE",
"963.84 787.869 OFFCURVE",
"884.853 792.868 CURVE"
);
}
);
width = 1317;
}
);
unicode = 0033;
},
{
glyphname = four;
layers = (
{
layerId = "FE27A893-8D3D-4D0E-A6EA-BC9D15131593";
name = "Regular Italic";
paths = (
{
closed = 1;
nodes = (
"828.862 1122.81 OFFCURVE",
"800.867 857.857 OFFCURVE",
"775.871 585.902 CURVE",
"608.899 585.902 OFFCURVE",
"445.926 584.903 OFFCURVE",
"278.954 581.903 CURVE",
"471.921 856.857 OFFCURVE",
"660.89 1126.81 OFFCURVE",
"863.856 1394.77 CURVE"
);
},
{
closed = 1;
nodes = (
"583.903 1153.81 OFFCURVE",
"366.939 853.858 OFFCURVE",
"147.975 545.909 CURVE",
"143.976 506.916 OFFCURVE",
"139.977 471.921 OFFCURVE",
"134.978 432.928 CURVE",
"307.949 439.927 OFFCURVE",
"477.92 443.926 OFFCURVE",
"649.892 443.926 CURVE SMOOTH",
"753.875 443.926 LINE",
"744.876 375.937 OFFCURVE",
"736.877 307.949 OFFCURVE",
"729.879 240.96 CURVE SMOOTH",
"722.88 173.971 OFFCURVE",
"714.881 105.982 OFFCURVE",
"706.882 36.9938 CURVE",
"790.868 35.994 OFFCURVE",
"872.855 33.9943 OFFCURVE",
"956.841 26.9955 CURVE",
"953.841 118.98 OFFCURVE",
"951.842 209.965 OFFCURVE",
"951.842 301.95 CURVE SMOOTH",
"951.842 348.942 OFFCURVE",
"952.841 392.935 OFFCURVE",
"953.841 439.927 CURVE",
"985.836 438.927 OFFCURVE",
"1017.83 437.927 OFFCURVE",
"1049.83 436.927 CURVE SMOOTH",
"1080.82 435.927 OFFCURVE",
"1112.81 433.928 OFFCURVE",
"1144.81 432.928 CURVE",
"1145.81 457.924 OFFCURVE",
"1147.81 481.92 OFFCURVE",
"1149.81 506.916 CURVE",
"1150.81 531.911 OFFCURVE",
"1152.81 555.907 OFFCURVE",
"1153.81 580.903 CURVE",
"1121.81 581.903 OFFCURVE",
"1090.82 581.903 OFFCURVE",
"1059.82 582.903 CURVE SMOOTH",
"1028.83 583.903 OFFCURVE",
"996.834 583.903 OFFCURVE",
"964.839 583.903 CURVE",
"984.836 878.854 OFFCURVE",
"1009.83 1168.81 OFFCURVE",
"1052.82 1463.76 CURVE",
"971.838 1459.76 OFFCURVE",
"892.851 1455.76 OFFCURVE",
"812.865 1454.76 CURVE"
);
}
);
width = 1320;
}
);
unicode = 0034;
},
{
glyphname = five;
layers = (
{
layerId = "FE27A893-8D3D-4D0E-A6EA-BC9D15131593";
name = "Regular Italic";
paths = (
{
closed = 1;
nodes = (
"342.943 1233.79 OFFCURVE",
"329.945 997.834 OFFCURVE",
"308.949 757.874 CURVE",
"404.933 800.867 OFFCURVE",
"507.915 821.863 OFFCURVE",
"610.898 821.863 CURVE SMOOTH",
"690.885 821.863 OFFCURVE",
"776.871 810.865 OFFCURVE",
"852.858 755.874 CURVE",
"913.848 707.882 OFFCURVE",
"937.844 629.895 OFFCURVE",
"937.844 550.908 CURVE SMOOTH",
"937.844 505.916 OFFCURVE",
"926.846 468.922 OFFCURVE",
"907.849 436.927 CURVE SMOOTH",
"887.852 403.933 OFFCURVE",
"861.857 375.937 OFFCURVE",
"830.862 347.942 CURVE SMOOTH",
"790.868 311.948 OFFCURVE",
"743.876 289.952 OFFCURVE",
"693.885 276.954 CURVE SMOOTH",
"643.893 263.956 OFFCURVE",
"590.902 258.957 OFFCURVE",
"542.91 258.957 CURVE SMOOTH",
"423.929 258.957 OFFCURVE",
"307.949 276.954 OFFCURVE",
"206.966 331.945 CURVE",
"199.967 283.953 OFFCURVE",
"193.968 235.961 OFFCURVE",
"186.969 187.969 CURVE SMOOTH",
"179.97 139.977 OFFCURVE",
"172.971 91.9847 OFFCURVE",
"163.973 43.9927 CURVE",
"280.953 16.9972 OFFCURVE",
"398.934 7.99867 OFFCURVE",
"519.913 7.99867 CURVE SMOOTH",
"592.901 7.99867 OFFCURVE",
"670.888 12.9978 OFFCURVE",
"746.876 29.995 CURVE SMOOTH",
"821.863 45.9923 OFFCURVE",
"893.851 75.9874 OFFCURVE",
"956.841 124.979 CURVE SMOOTH",
"1019.83 173.971 OFFCURVE",
"1059.82 239.96 OFFCURVE",
"1083.82 311.948 CURVE SMOOTH",
"1107.82 383.936 OFFCURVE",
"1116.81 459.923 OFFCURVE",
"1116.81 528.912 CURVE SMOOTH",
"1116.81 644.893 OFFCURVE",
"1087.82 755.874 OFFCURVE",
"1010.83 838.86 CURVE SMOOTH",
"965.839 885.853 OFFCURVE",
"909.849 916.847 OFFCURVE",
"848.859 936.844 CURVE SMOOTH",
"787.869 956.841 OFFCURVE",
"720.88 964.839 OFFCURVE",
"655.891 964.839 CURVE SMOOTH",
"588.902 964.839 OFFCURVE",
"523.913 949.842 OFFCURVE",
"458.924 934.844 CURVE",
"469.922 1067.82 OFFCURVE",
"476.921 1198.8 OFFCURVE",
"483.919 1331.78 CURVE",
"569.905 1327.78 OFFCURVE",
"655.891 1325.78 OFFCURVE",
"742.876 1325.78 CURVE SMOOTH",
"861.857 1325.78 OFFCURVE",
"979.837 1328.78 OFFCURVE",
"1099.82 1339.78 CURVE",
"1102.82 1360.77 OFFCURVE",
"1106.82 1382.77 OFFCURVE",
"1109.82 1404.77 CURVE SMOOTH",
"1112.81 1426.76 OFFCURVE",
"1116.81 1448.76 OFFCURVE",
"1119.81 1469.76 CURVE",
"994.834 1457.76 OFFCURVE",
"869.855 1451.76 OFFCURVE",
"745.876 1451.76 CURVE SMOOTH",
"610.898 1451.76 OFFCURVE",
"478.92 1458.76 OFFCURVE",
"345.942 1473.75 CURVE"
);
}
);
width = 1288;
}
);
unicode = 0035;
},
{
glyphname = six;
layers = (
{
layerId = "FE27A893-8D3D-4D0E-A6EA-BC9D15131593";
name = "Regular Italic";
paths = (
{
closed = 1;
nodes = (
"780.87 831.862 OFFCURVE",
"860.857 803.866 OFFCURVE",
"903.85 739.877 CURVE",
"947.842 679.887 OFFCURVE",
"960.84 607.899 OFFCURVE",
"960.84 531.911 CURVE SMOOTH",
"960.84 524.913 OFFCURVE",
"960.84 516.914 OFFCURVE",
"960.84 508.915 CURVE",
"959.84 500.917 OFFCURVE",
"959.84 492.918 OFFCURVE",
"959.84 485.919 CURVE",
"956.841 408.932 OFFCURVE",
"914.848 354.941 OFFCURVE",
"857.857 319.947 CURVE SMOOTH",
"800.867 284.953 OFFCURVE",
"726.879 269.955 OFFCURVE",
"661.89 269.955 CURVE SMOOTH",
"597.901 269.955 OFFCURVE",
"527.912 279.953 OFFCURVE",
"473.921 308.949 CURVE SMOOTH",
"419.93 337.944 OFFCURVE",
"380.937 384.936 OFFCURVE",
"380.937 459.923 CURVE SMOOTH",
"380.937 506.916 OFFCURVE",
"389.935 557.907 OFFCURVE",
"406.932 606.899 CURVE SMOOTH",
"423.929 654.891 OFFCURVE",
"450.925 701.883 OFFCURVE",
"483.919 738.877 CURVE SMOOTH",
"542.91 802.866 OFFCURVE",
"620.897 831.862 OFFCURVE",
"701.883 831.862 CURVE SMOOTH"
);
},
{
closed = 1;
nodes = (
"1063.82 1464.76 OFFCURVE",
"971.838 1480.75 OFFCURVE",
"876.854 1480.75 CURVE SMOOTH",
"789.869 1480.75 OFFCURVE",
"699.883 1469.76 OFFCURVE",
"616.897 1439.76 CURVE SMOOTH",
"533.911 1409.77 OFFCURVE",
"456.924 1360.77 OFFCURVE",
"395.934 1287.79 CURVE SMOOTH",
"306.949 1184.8 OFFCURVE",
"256.957 1055.82 OFFCURVE",
"228.962 924.846 CURVE SMOOTH",
"200.967 792.868 OFFCURVE",
"195.967 658.89 OFFCURVE",
"195.967 545.909 CURVE SMOOTH",
"195.967 417.93 OFFCURVE",
"210.965 294.951 OFFCURVE",
"269.955 185.969 CURVE SMOOTH",
"302.95 122.98 OFFCURVE",
"354.941 79.9867 OFFCURVE",
"415.931 51.9913 CURVE SMOOTH",
"476.921 22.9962 OFFCURVE",
"546.909 9.99834 OFFCURVE",
"617.897 9.99834 CURVE SMOOTH",
"681.886 9.99834 OFFCURVE",
"749.875 15.9973 OFFCURVE",
"813.865 32.9945 CURVE SMOOTH",
"877.854 49.9917 OFFCURVE",
"937.844 79.9867 OFFCURVE",
"988.835 128.979 CURVE SMOOTH",
"1045.83 181.97 OFFCURVE",
"1083.82 248.959 OFFCURVE",
"1104.82 320.947 CURVE SMOOTH",
"1125.81 391.935 OFFCURVE",
"1133.81 467.922 OFFCURVE",
"1133.81 536.911 CURVE SMOOTH",
"1133.81 591.901 OFFCURVE",
"1128.81 646.892 OFFCURVE",
"1113.81 698.884 CURVE SMOOTH",
"1098.82 750.875 OFFCURVE",
"1076.82 799.867 OFFCURVE",
"1040.83 840.86 CURVE SMOOTH",
"1004.83 884.853 OFFCURVE",
"957.841 916.847 OFFCURVE",
"904.849 936.844 CURVE SMOOTH",
"851.858 956.841 OFFCURVE",
"791.868 965.839 OFFCURVE",
"734.878 965.839 CURVE SMOOTH",
"663.89 965.839 OFFCURVE",
"595.901 946.842 OFFCURVE",
"533.911 912.848 CURVE SMOOTH",
"471.921 878.854 OFFCURVE",
"416.931 829.862 OFFCURVE",
"373.938 769.872 CURVE",
"385.936 842.86 OFFCURVE",
"397.934 918.847 OFFCURVE",
"421.93 992.835 CURVE SMOOTH",
"444.926 1066.82 OFFCURVE",
"477.92 1138.81 OFFCURVE",
"530.912 1203.8 CURVE SMOOTH",
"570.905 1252.79 OFFCURVE",
"623.896 1286.79 OFFCURVE",
"680.887 1306.78 CURVE SMOOTH",
"737.877 1326.78 OFFCURVE",
"798.867 1334.78 OFFCURVE",
"857.857 1334.78 CURVE SMOOTH",
"949.842 1334.78 OFFCURVE",
"1038.83 1315.78 OFFCURVE",
"1121.81 1282.79 CURVE",
"1128.81 1338.78 OFFCURVE",
"1136.81 1393.77 OFFCURVE",
"1145.81 1449.76 CURVE",
"1145.81 1448.76 LINE",
"1152.81 1441.76 LINE"
);
}
);
width = 1305;
}
);
unicode = 0036;
},
{
glyphname = seven;
layers = (
{
layerId = "FE27A893-8D3D-4D0E-A6EA-BC9D15131593";
name = "Regular Italic";
paths = (
{
closed = 1;
nodes = (
"347.942 1461.76 OFFCURVE",
"347.942 1439.76 OFFCURVE",
"347.942 1418.76 CURVE SMOOTH",
"347.942 1396.77 OFFCURVE",
"347.942 1374.77 OFFCURVE",
"346.942 1352.77 CURVE",
"489.918 1333.78 OFFCURVE",
"632.895 1326.78 OFFCURVE",
"777.871 1326.78 CURVE SMOOTH",
"885.853 1326.78 OFFCURVE",
"992.835 1331.78 OFFCURVE",
"1100.82 1338.78 CURVE",
"985.836 1122.81 OFFCURVE",
"880.853 903.85 OFFCURVE",
"773.871 684.886 CURVE SMOOTH",
"665.889 464.923 OFFCURVE",
"557.907 245.959 OFFCURVE",
"441.926 30.9948 CURVE",
"521.913 35.994 OFFCURVE",
"599.9 37.9937 OFFCURVE",
"679.887 37.9937 CURVE SMOOTH",
"696.884 37.9937 OFFCURVE",
"713.881 37.9937 OFFCURVE",
"730.878 37.9937 CURVE SMOOTH",
"747.876 37.9937 OFFCURVE",
"764.873 37.9937 OFFCURVE",
"781.87 36.9938 CURVE",
"820.863 151.975 OFFCURVE",
"858.857 266.956 OFFCURVE",
"896.851 381.936 CURVE SMOOTH",
"933.845 496.917 OFFCURVE",
"972.838 611.898 OFFCURVE",
"1011.83 726.879 CURVE SMOOTH",
"1089.82 955.841 OFFCURVE",
"1170.81 1184.8 OFFCURVE",
"1265.79 1409.77 CURVE",
"1266.79 1422.76 OFFCURVE",
"1268.79 1434.76 OFFCURVE",
"1271.79 1446.76 CURVE",
"1273.79 1458.76 OFFCURVE",
"1275.79 1470.76 OFFCURVE",
"1277.79 1483.75 CURVE",
"1117.81 1463.76 OFFCURVE",
"959.84 1452.76 OFFCURVE",
"798.867 1452.76 CURVE SMOOTH",
"646.892 1452.76 OFFCURVE",
"496.917 1462.76 OFFCURVE",
"347.942 1483.75 CURVE"
);
}
);
width = 1233;
}
);
unicode = 0037;
},
{
glyphname = eight;
layers = (
{
layerId = "FE27A893-8D3D-4D0E-A6EA-BC9D15131593";
name = "Regular Italic";
paths = (
{
closed = 1;
nodes = (
"748.875 738.877 OFFCURVE",
"825.863 717.88 OFFCURVE",
"880.853 660.89 CURVE SMOOTH",
"927.846 609.898 OFFCURVE",
"946.842 544.909 OFFCURVE",
"946.842 473.921 CURVE SMOOTH",
"945.843 398.934 OFFCURVE",
"910.848 345.942 OFFCURVE",
"854.858 298.95 CURVE SMOOTH",
"822.863 271.955 OFFCURVE",
"784.869 254.958 OFFCURVE",
"744.876 244.959 CURVE SMOOTH",
"704.883 234.961 OFFCURVE",
"663.89 230.962 OFFCURVE",
"624.896 230.962 CURVE SMOOTH",
"584.903 230.962 OFFCURVE",
"544.909 234.961 OFFCURVE",
"506.916 244.959 CURVE SMOOTH",
"468.922 254.958 OFFCURVE",
"433.928 271.955 OFFCURVE",
"405.932 298.95 CURVE SMOOTH",
"369.938 333.944 OFFCURVE",
"340.943 376.937 OFFCURVE",
"340.943 428.929 CURVE",
"339.943 511.915 OFFCURVE",
"376.937 602.9 OFFCURVE",
"441.926 659.89 CURVE SMOOTH",
"505.916 715.881 OFFCURVE",
"588.902 737.877 OFFCURVE",
"668.889 737.877 CURVE SMOOTH"
);
},
{
closed = 1;
nodes = (
"399.933 762.873 OFFCURVE",
"315.947 721.88 OFFCURVE",
"254.958 654.891 CURVE",
"213.964 613.898 OFFCURVE",
"185.969 562.906 OFFCURVE",
"167.972 509.915 CURVE SMOOTH",
"149.975 456.924 OFFCURVE",
"141.976 399.933 OFFCURVE",
"141.976 346.942 CURVE SMOOTH",
"141.976 254.958 OFFCURVE",
"165.972 163.973 OFFCURVE",
"236.961 106.982 CURVE SMOOTH",
"287.952 66.9889 OFFCURVE",
"346.942 41.993 OFFCURVE",
"409.932 27.9953 CURVE SMOOTH",
"472.921 13.9977 OFFCURVE",
"538.91 8.9985 OFFCURVE",
"605.899 8.9985 CURVE SMOOTH",
"670.888 8.9985 OFFCURVE",
"738.877 12.9978 OFFCURVE",
"804.866 27.9953 CURVE SMOOTH",
"870.855 42.9928 OFFCURVE",
"933.845 67.9887 OFFCURVE",
"989.835 107.982 CURVE SMOOTH",
"1045.83 147.975 OFFCURVE",
"1080.82 202.966 OFFCURVE",
"1103.82 263.956 CURVE SMOOTH",
"1126.81 323.946 OFFCURVE",
"1134.81 389.935 OFFCURVE",
"1134.81 449.925 CURVE SMOOTH",
"1134.81 537.91 OFFCURVE",
"1104.82 611.898 OFFCURVE",
"1056.82 668.889 CURVE SMOOTH",
"1007.83 724.879 OFFCURVE",
"937.844 764.873 OFFCURVE",
"857.857 783.87 CURVE",
"859.857 800.867 LINE",
"947.842 816.864 OFFCURVE",
"1014.83 870.855 OFFCURVE",
"1061.82 939.844 CURVE SMOOTH",
"1108.82 1008.83 OFFCURVE",
"1132.81 1094.82 OFFCURVE",
"1132.81 1174.8 CURVE SMOOTH",
"1132.81 1250.79 OFFCURVE",
"1108.82 1322.78 OFFCURVE",
"1052.82 1371.77 CURVE SMOOTH",
"1009.83 1408.77 OFFCURVE",
"958.84 1431.76 OFFCURVE",
"903.85 1444.76 CURVE SMOOTH",
"848.859 1457.76 OFFCURVE",
"789.869 1460.76 OFFCURVE",
"732.878 1460.76 CURVE SMOOTH",
"675.888 1460.76 OFFCURVE",
"616.897 1455.76 OFFCURVE",
"558.907 1442.76 CURVE SMOOTH",
"500.917 1429.76 OFFCURVE",
"444.926 1406.77 OFFCURVE",
"396.934 1369.77 CURVE",
"395.934 1370.77 LINE",
"350.942 1334.78 OFFCURVE",
"319.947 1290.79 OFFCURVE",
"300.95 1241.79 CURVE SMOOTH",
"281.953 1192.8 OFFCURVE",
"273.954 1139.81 OFFCURVE",
"273.954 1086.82 CURVE SMOOTH",
"273.954 1019.83 OFFCURVE",
"293.951 955.841 OFFCURVE",
"329.945 903.85 CURVE SMOOTH",
"365.939 851.858 OFFCURVE",
"418.93 813.865 OFFCURVE",
"486.919 800.867 CURVE",
"484.919 781.87 LINE"
);
},
{
closed = 1;
nodes = (
"434.928 1234.79 OFFCURVE",
"472.921 1290.79 OFFCURVE",
"528.912 1327.78 CURVE SMOOTH",
"583.903 1363.77 OFFCURVE",
"652.891 1382.77 OFFCURVE",
"719.88 1382.77 CURVE SMOOTH",
"783.87 1382.77 OFFCURVE",
"848.859 1369.77 OFFCURVE",
"898.85 1338.78 CURVE SMOOTH",
"948.842 1307.78 OFFCURVE",
"981.837 1256.79 OFFCURVE",
"981.837 1183.8 CURVE SMOOTH",
"981.837 1107.82 OFFCURVE",
"950.842 1038.83 OFFCURVE",
"899.85 988.835 CURVE SMOOTH",
"848.859 938.844 OFFCURVE",
"780.87 907.849 OFFCURVE",
"705.883 907.849 CURVE SMOOTH",
"702.883 907.849 OFFCURVE",
"698.884 907.849 OFFCURVE",
"694.884 907.849 CURVE SMOOTH",
"690.885 907.849 OFFCURVE",
"686.886 907.849 OFFCURVE",
"683.886 908.849 CURVE",
"679.887 907.849 OFFCURVE",
"675.888 907.849 OFFCURVE",
"672.888 907.849 CURVE SMOOTH",
"668.889 907.849 OFFCURVE",
"664.889 907.849 OFFCURVE",
"661.89 907.849 CURVE SMOOTH",
"600.9 907.849 OFFCURVE",
"542.91 931.845 OFFCURVE",
"499.917 969.839 CURVE SMOOTH",
"455.924 1007.83 OFFCURVE",
"428.929 1060.82 OFFCURVE",
"428.929 1123.81 CURVE SMOOTH",
"428.929 1134.81 OFFCURVE",
"429.928 1146.81 OFFCURVE",
"431.928 1158.81 CURVE"
);
}
);
width = 1320;
}
);
unicode = 0038;
},
{
glyphname = nine;
layers = (
{
layerId = "FE27A893-8D3D-4D0E-A6EA-BC9D15131593";
name = "Regular Italic";
paths = (
{
closed = 1;
nodes = (
"240.96 43.9927 OFFCURVE",
"238.96 45.9923 OFFCURVE",
"235.961 48.9918 CURVE",
"326.946 21.9963 OFFCURVE",
"418.93 7.99867 OFFCURVE",
"514.914 7.99867 CURVE SMOOTH",
"599.9 7.99867 OFFCURVE",
"689.885 19.9967 OFFCURVE",
"771.872 49.9917 CURVE SMOOTH",
"853.858 79.9867 OFFCURVE",
"928.845 127.979 OFFCURVE",
"988.835 199.967 CURVE SMOOTH",
"1076.82 300.95 OFFCURVE",
"1126.81 428.929 OFFCURVE",
"1154.81 557.907 CURVE SMOOTH",
"1182.8 685.886 OFFCURVE",
"1189.8 817.864 OFFCURVE",
"1189.8 932.845 CURVE SMOOTH",
"1189.8 1061.82 OFFCURVE",
"1173.8 1193.8 OFFCURVE",
"1110.82 1312.78 CURVE SMOOTH",
"1077.82 1371.77 OFFCURVE",
"1025.83 1412.76 OFFCURVE",
"965.839 1440.76 CURVE SMOOTH",
"904.849 1467.76 OFFCURVE",
"836.861 1479.75 OFFCURVE",
"768.872 1479.75 CURVE SMOOTH",
"703.883 1479.75 OFFCURVE",
"636.894 1473.75 OFFCURVE",
"573.904 1455.76 CURVE SMOOTH",
"509.915 1437.76 OFFCURVE",
"449.925 1407.77 OFFCURVE",
"397.934 1359.77 CURVE SMOOTH",
"340.943 1307.78 OFFCURVE",
"305.949 1241.79 OFFCURVE",
"283.953 1170.81 CURVE SMOOTH",
"261.956 1099.82 OFFCURVE",
"253.958 1025.83 OFFCURVE",
"253.958 957.841 CURVE SMOOTH",
"253.958 901.85 OFFCURVE",
"259.957 844.859 OFFCURVE",
"273.954 792.868 CURVE SMOOTH",
"287.952 739.877 OFFCURVE",
"309.948 689.885 OFFCURVE",
"344.943 648.892 CURVE SMOOTH",
"380.937 603.899 OFFCURVE",
"427.929 572.905 OFFCURVE",
"480.92 552.908 CURVE SMOOTH",
"533.911 532.911 OFFCURVE",
"591.901 523.913 OFFCURVE",
"650.892 523.913 CURVE SMOOTH",
"722.88 523.913 OFFCURVE",
"791.868 543.909 OFFCURVE",
"853.858 577.904 CURVE SMOOTH",
"915.848 611.898 OFFCURVE",
"968.839 660.89 OFFCURVE",
"1011.83 720.88 CURVE",
"1005.83 687.885 OFFCURVE",
"999.834 654.891 OFFCURVE",
"994.834 619.897 CURVE SMOOTH",
"988.835 584.903 OFFCURVE",
"980.837 550.908 OFFCURVE",
"970.838 517.914 CURVE SMOOTH",
"950.842 449.925 OFFCURVE",
"919.847 387.935 OFFCURVE",
"862.856 340.943 CURVE",
"814.864 309.948 OFFCURVE",
"762.873 293.951 OFFCURVE",
"707.882 282.953 CURVE SMOOTH",
"652.891 271.955 OFFCURVE",
"596.901 269.955 OFFCURVE",
"544.909 269.955 CURVE SMOOTH",
"451.925 269.955 OFFCURVE",
"363.939 287.952 OFFCURVE",
"280.953 324.946 CURVE",
"268.955 228.962 OFFCURVE",
"256.957 135.977 OFFCURVE",
"240.96 39.9933 CURVE",
"240.96 40.9932 LINE SMOOTH"
);
},
{
closed = 1;
nodes = (
"595.901 793.868 OFFCURVE",
"509.915 798.867 OFFCURVE",
"432.928 830.862 CURVE",
"397.934 843.86 OFFCURVE",
"377.937 871.855 OFFCURVE",
"365.939 903.85 CURVE SMOOTH",
"353.941 935.844 OFFCURVE",
"349.942 973.838 OFFCURVE",
"349.942 1008.83 CURVE SMOOTH",
"349.942 1057.82 OFFCURVE",
"357.94 1109.82 OFFCURVE",
"374.938 1158.81 CURVE SMOOTH",
"391.935 1206.8 OFFCURVE",
"420.93 1251.79 OFFCURVE",
"460.923 1286.79 CURVE SMOOTH",
"533.911 1350.78 OFFCURVE",
"627.896 1374.77 OFFCURVE",
"719.88 1374.77 CURVE SMOOTH",
"768.872 1374.77 OFFCURVE",
"818.864 1369.77 OFFCURVE",
"863.856 1356.77 CURVE SMOOTH",
"908.849 1343.78 OFFCURVE",
"950.842 1320.78 OFFCURVE",
"983.836 1285.79 CURVE",
"1034.83 1236.79 OFFCURVE",
"1052.82 1165.81 OFFCURVE",
"1052.82 1092.82 CURVE SMOOTH",
"1052.82 1052.82 OFFCURVE",
"1048.83 998.834 OFFCURVE",
"1031.83 948.842 CURVE SMOOTH",
"1014.83 898.85 OFFCURVE",
"984.836 851.858 OFFCURVE",
"932.845 831.862 CURVE SMOOTH",
"852.858 799.867 OFFCURVE",
"764.873 792.868 OFFCURVE",
"680.887 792.868 CURVE SMOOTH"
);
}
);
width = 1303;
}
);
unicode = 0039;
},
{
glyphname = colon;
layers = (
{
layerId = "FE27A893-8D3D-4D0E-A6EA-BC9D15131593";
name = "Regular Italic";
paths = (
{
closed = 1;
nodes = (
"190.968 200.967 OFFCURVE",
"180.97 105.982 OFFCURVE",
"168.972 9.99834 CURVE",
"210.965 22.9962 OFFCURVE",
"252.958 29.995 OFFCURVE",
"294.951 29.995 CURVE SMOOTH",
"334.944 29.995 OFFCURVE",
"374.938 24.9958 OFFCURVE",
"410.932 9.99834 CURVE",
"413.931 57.9903 OFFCURVE",
"417.93 105.982 OFFCURVE",
"420.93 153.974 CURVE SMOOTH",
"423.929 200.967 OFFCURVE",
"426.929 248.959 OFFCURVE",
"429.928 296.951 CURVE",
"435.927 296.951 OFFCURVE",
"398.934 299.95 OFFCURVE",
"360.94 299.95 CURVE SMOOTH",
"320.947 299.95 OFFCURVE",
"280.953 295.951 OFFCURVE",
"241.96 295.951 CURVE SMOOTH",
"241.96 295.951 LINE SMOOTH",
"241.96 295.951 OFFCURVE",
"241.96 295.951 OFFCURVE",
"205.966 295.951 CURVE",
"199.967 296.951 LINE"
);
},
{
closed = 1;
nodes = (
"266.956 1045.83 OFFCURVE",
"263.956 1001.83 OFFCURVE",
"261.956 957.841 CURVE SMOOTH",
"258.957 913.848 OFFCURVE",
"255.957 869.855 OFFCURVE",
"251.958 824.863 CURVE",
"287.952 815.864 OFFCURVE",
"324.946 811.865 OFFCURVE",
"363.939 811.865 CURVE SMOOTH",
"402.933 811.865 OFFCURVE",
"442.926 815.864 OFFCURVE",
"482.92 823.863 CURVE",
"490.918 912.848 OFFCURVE",
"500.917 1001.83 OFFCURVE",
"511.915 1090.82 CURVE",
"470.922 1075.82 OFFCURVE",
"429.928 1067.82 OFFCURVE",
"386.936 1067.82 CURVE SMOOTH",
"345.942 1067.82 OFFCURVE",
"306.949 1075.82 OFFCURVE",
"269.955 1090.82 CURVE"
);
}
);
width = 676;
}
);
unicode = 003A;
},
{
glyphname = semicolon;
layers = (
{
layerId = "FE27A893-8D3D-4D0E-A6EA-BC9D15131593";
name = "Regular Italic";
paths = (
{
closed = 1;
nodes = (
"254.958 1016.83 OFFCURVE",
"251.958 972.838 OFFCURVE",
"248.959 928.845 CURVE SMOOTH",
"245.959 884.853 OFFCURVE",
"242.96 840.86 OFFCURVE",
"237.96 795.868 CURVE",
"248.959 794.868 OFFCURVE",
"258.957 793.868 OFFCURVE",
"269.955 793.868 CURVE SMOOTH",
"280.953 793.868 OFFCURVE",
"291.951 793.868 OFFCURVE",
"302.95 793.868 CURVE SMOOTH",
"353.941 793.868 OFFCURVE",
"401.933 797.867 OFFCURVE",
"452.925 810.865 CURVE",
"457.924 856.857 OFFCURVE",
"462.923 902.85 OFFCURVE",
"467.922 948.842 CURVE SMOOTH",
"472.921 993.835 OFFCURVE",
"478.92 1039.83 OFFCURVE",
"483.919 1085.82 CURVE",
"431.928 1065.82 OFFCURVE",
"377.937 1057.82 OFFCURVE",
"324.946 1057.82 CURVE SMOOTH",
"301.95 1057.82 OFFCURVE",
"280.953 1058.82 OFFCURVE",
"257.957 1061.82 CURVE"
);
},
{
closed = 1;
nodes = (
"190.968 182.97 OFFCURVE",
"187.969 153.974 OFFCURVE",
"184.969 124.979 CURVE SMOOTH",
"181.97 95.984 OFFCURVE",
"178.97 66.9889 OFFCURVE",
"176.971 36.9938 CURVE",
"155.974 -23 OFFCURVE",
"135.977 -82 OFFCURVE",
"115.981 -140 CURVE SMOOTH",
"94.9842 -199 OFFCURVE",
"74.9875 -258 OFFCURVE",
"54.9908 -318 CURVE",
"94.9842 -303 OFFCURVE",
"136.977 -296 OFFCURVE",
"179.97 -293 CURVE",
"212.965 -238 OFFCURVE",
"245.959 -184 OFFCURVE",
"278.954 -130 CURVE SMOOTH",
"311.948 -77 OFFCURVE",
"345.942 -23 OFFCURVE",
"378.937 31.9947 CURVE",
"380.937 61.9897 OFFCURVE",
"383.936 91.9847 OFFCURVE",
"386.936 120.98 CURVE SMOOTH",
"389.935 149.975 OFFCURVE",
"391.935 178.97 OFFCURVE",
"392.935 208.965 CURVE",
"349.942 212.965 OFFCURVE",
"309.948 213.964 OFFCURVE",
"268.955 213.964 CURVE SMOOTH",
"255.957 213.964 OFFCURVE",
"242.96 213.964 OFFCURVE",
"230.962 213.964 CURVE",
"217.964 212.965 OFFCURVE",
"205.966 212.965 OFFCURVE",
"192.968 212.965 CURVE"
);
}
);
width = 639;
}
);
unicode = 003B;
},
{
glyphname = less;
layers = (
{
layerId = "FE27A893-8D3D-4D0E-A6EA-BC9D15131593";
name = "Regular Italic";
paths = (
{
closed = 1;
nodes = (
"1460.76 1045.83 OFFCURVE",
"1477.75 1099.82 OFFCURVE",
"1495.75 1153.81 CURVE",
"1282.79 1085.82 OFFCURVE",
"1067.82 1025.83 OFFCURVE",
"852.858 969.839 CURVE SMOOTH",
"636.894 913.848 OFFCURVE",
"419.93 859.857 OFFCURVE",
"203.966 806.866 CURVE",
"196.967 735.878 OFFCURVE",
"184.969 667.889 OFFCURVE",
"172.971 596.901 CURVE",
"357.94 499.917 OFFCURVE",
"547.909 407.932 OFFCURVE",
"736.877 316.947 CURVE SMOOTH",
"925.846 224.963 OFFCURVE",
"1114.81 133.978 OFFCURVE",
"1301.78 37.9937 CURVE",
"1301.78 110.982 OFFCURVE",
"1304.78 182.97 OFFCURVE",
"1311.78 255.957 CURVE",
"1158.81 334.944 OFFCURVE",
"1004.83 410.932 OFFCURVE",
"850.858 484.919 CURVE SMOOTH",
"695.884 557.907 OFFCURVE",
"541.91 632.895 OFFCURVE",
"386.936 709.882 CURVE",
"742.876 797.867 OFFCURVE",
"1092.82 884.853 OFFCURVE",
"1445.76 991.835 CURVE"
);
}
);
width = 1561;
}
);
unicode = 003C;
},
{
glyphname = equal;
layers = (
{
layerId = "FE27A893-8D3D-4D0E-A6EA-BC9D15131593";
name = "Regular Italic";
paths = (
{
closed = 1;
nodes = (
"237.96 870.855 OFFCURVE",
"243.959 821.863 OFFCURVE",
"245.959 770.872 CURVE",
"241.96 770.872 OFFCURVE",
"434.928 768.872 OFFCURVE",
"627.896 768.872 CURVE SMOOTH",
"832.861 768.872 OFFCURVE",
"1039.83 770.872 OFFCURVE",
"1246.79 770.872 CURVE",
"1246.79 770.872 LINE SMOOTH",
"1246.79 770.872 OFFCURVE",
"1246.79 770.872 OFFCURVE",
"1438.76 770.872 CURVE",
"1449.76 821.863 OFFCURVE",
"1465.76 870.855 OFFCURVE",
"1485.75 919.847 CURVE",
"1478.75 919.847 OFFCURVE",
"1265.79 915.848 OFFCURVE",
"1045.83 915.848 CURVE SMOOTH",
"841.86 915.848 OFFCURVE",
"639.893 918.847 OFFCURVE",
"436.927 918.847 CURVE SMOOTH",
"436.927 918.847 LINE SMOOTH",
"436.927 918.847 OFFCURVE",
"436.927 918.847 OFFCURVE",
"216.964 918.847 CURVE",
"227.962 919.847 LINE"
);
},
{
closed = 1;
nodes = (
"207.965 479.92 OFFCURVE",
"191.968 419.93 OFFCURVE",
"167.972 360.94 CURVE",
"174.971 360.94 OFFCURVE",
"387.935 364.939 OFFCURVE",
"602.9 364.939 CURVE SMOOTH",
"809.865 364.939 OFFCURVE",
"1014.83 360.94 OFFCURVE",
"1221.8 360.94 CURVE",
"1221.8 360.94 LINE SMOOTH",
"1221.8 360.94 OFFCURVE",
"1221.8 360.94 OFFCURVE",
"1436.76 360.94 CURVE",
"1420.76 419.93 OFFCURVE",
"1414.76 479.92 OFFCURVE",
"1414.76 540.91 CURVE",
"1417.76 540.91 OFFCURVE",
"1240.79 541.91 OFFCURVE",
"1060.82 541.91 CURVE SMOOTH",
"841.86 541.91 OFFCURVE",
"627.896 540.91 OFFCURVE",
"408.932 540.91 CURVE SMOOTH",
"408.932 540.91 LINE SMOOTH",
"408.932 540.91 OFFCURVE",
"408.932 540.91 OFFCURVE",
"228.962 540.91 CURVE SMOOTH",
"218.964 540.91 LINE"
);
}
);
width = 1631;
}
);
unicode = 003D;
},
{
glyphname = greater;
layers = (
{
layerId = "FE27A893-8D3D-4D0E-A6EA-BC9D15131593";
name = "Regular Italic";
paths = (
{
closed = 1;
nodes = (
"444.926 1028.83 OFFCURVE",
"598.9 951.842 OFFCURVE",
"754.874 877.854 CURVE SMOOTH",
"910.848 803.866 OFFCURVE",
"1065.82 727.879 OFFCURVE",
"1219.8 650.892 CURVE",
"1044.83 604.899 OFFCURVE",
"869.855 559.907 OFFCURVE",
"694.884 514.914 CURVE SMOOTH",
"519.913 469.922 OFFCURVE",
"344.943 421.93 OFFCURVE",
"170.972 370.938 CURVE",
"151.975 295.951 OFFCURVE",
"132.978 222.963 OFFCURVE",
"107.982 150.975 CURVE",
"214.964 183.969 OFFCURVE",
"321.946 215.964 OFFCURVE",
"428.929 245.959 CURVE SMOOTH",
"642.893 305.949 OFFCURVE",
"857.857 361.94 OFFCURVE",
"1073.82 415.931 CURVE SMOOTH",
"1181.8 442.926 OFFCURVE",
"1289.79 469.922 OFFCURVE",
"1397.77 496.917 CURVE",
"1404.77 568.905 OFFCURVE",
"1416.76 637.894 OFFCURVE",
"1429.76 708.882 CURVE",
"1242.79 804.866 OFFCURVE",
"1053.82 895.851 OFFCURVE",
"865.856 987.836 CURVE SMOOTH",
"676.887 1078.82 OFFCURVE",
"486.919 1170.81 OFFCURVE",
"301.95 1267.79 CURVE",
"300.95 1240.79 OFFCURVE",
"299.95 1214.8 OFFCURVE",
"297.95 1188.8 CURVE SMOOTH",
"294.951 1161.81 OFFCURVE",
"292.951 1135.81 OFFCURVE",
"291.951 1108.82 CURVE"
);
}
);
width = 1559;
}
);
unicode = 003E;
},
{
glyphname = question;
layers = (
{
layerId = "FE27A893-8D3D-4D0E-A6EA-BC9D15131593";
name = "Regular Italic";
paths = (
{
closed = 1;
nodes = (
"410.932 234.961 OFFCURVE",
"405.932 191.968 OFFCURVE",
"400.933 149.975 CURVE SMOOTH",
"395.934 106.982 OFFCURVE",
"389.935 63.9893 OFFCURVE",
"384.936 20.9965 CURVE",
"453.924 25.9957 OFFCURVE",
"522.913 27.9953 OFFCURVE",
"590.902 27.9953 CURVE SMOOTH",
"630.895 27.9953 LINE",
"633.894 70.9882 OFFCURVE",
"637.894 112.981 OFFCURVE",
"640.893 155.974 CURVE SMOOTH",
"643.893 197.967 OFFCURVE",
"647.892 239.96 OFFCURVE",
"650.892 282.953 CURVE",
"610.898 282.953 LINE SMOOTH",
"545.909 282.953 OFFCURVE",
"479.92 280.953 OFFCURVE",
"415.931 277.954 CURVE"
);
},
{
closed = 1;
nodes = (
"669.888 462.923 OFFCURVE",
"672.888 502.916 OFFCURVE",
"674.888 543.909 CURVE SMOOTH",
"676.887 584.903 OFFCURVE",
"684.886 623.896 OFFCURVE",
"697.884 661.89 CURVE SMOOTH",
"701.883 672.888 OFFCURVE",
"707.882 683.886 OFFCURVE",
"714.881 693.885 CURVE SMOOTH",
"721.88 703.883 OFFCURVE",
"729.879 713.881 OFFCURVE",
"736.877 723.88 CURVE",
"736.877 722.88 LINE",
"743.876 732.878 OFFCURVE",
"750.875 742.876 OFFCURVE",
"757.874 753.875 CURVE",
"764.873 763.873 OFFCURVE",
"771.872 773.871 OFFCURVE",
"778.87 784.869 CURVE",
"806.866 812.865 OFFCURVE",
"833.861 840.86 OFFCURVE",
"861.857 869.855 CURVE SMOOTH",
"909.849 920.847 OFFCURVE",
"958.84 971.838 OFFCURVE",
"994.834 1028.83 CURVE SMOOTH",
"1030.83 1085.82 OFFCURVE",
"1054.82 1147.81 OFFCURVE",
"1054.82 1219.8 CURVE SMOOTH",
"1054.82 1288.79 OFFCURVE",
"1032.83 1354.77 OFFCURVE",
"981.837 1401.77 CURVE SMOOTH",
"945.843 1433.76 OFFCURVE",
"902.85 1452.76 OFFCURVE",
"855.858 1464.76 CURVE SMOOTH",
"807.866 1475.75 OFFCURVE",
"757.874 1478.75 OFFCURVE",
"709.882 1478.75 CURVE SMOOTH",
"580.903 1478.75 OFFCURVE",
"452.925 1451.76 OFFCURVE",
"329.945 1399.77 CURVE",
"328.945 1376.77 OFFCURVE",
"327.945 1354.77 OFFCURVE",
"326.946 1332.78 CURVE SMOOTH",
"325.946 1310.78 OFFCURVE",
"324.946 1288.79 OFFCURVE",
"323.946 1265.79 CURVE",
"430.928 1321.78 OFFCURVE",
"547.909 1367.77 OFFCURVE",
"664.889 1367.77 CURVE SMOOTH",
"724.879 1367.77 OFFCURVE",
"779.87 1348.78 OFFCURVE",
"819.864 1313.78 CURVE SMOOTH",
"859.857 1277.79 OFFCURVE",
"884.853 1227.8 OFFCURVE",
"884.853 1163.81 CURVE SMOOTH",
"884.853 1120.81 OFFCURVE",
"858.857 1080.82 OFFCURVE",
"823.863 1044.83 CURVE SMOOTH",
"788.869 1008.83 OFFCURVE",
"745.876 976.837 OFFCURVE",
"712.881 951.842 CURVE",
"713.881 951.842 LINE",
"695.884 938.844 OFFCURVE",
"678.887 924.846 OFFCURVE",
"662.89 909.849 CURVE SMOOTH",
"645.893 894.851 OFFCURVE",
"628.895 879.854 OFFCURVE",
"610.898 866.856 CURVE",
"610.898 867.856 LINE",
"587.902 846.859 OFFCURVE",
"564.906 823.863 OFFCURVE",
"543.909 800.867 CURVE SMOOTH",
"499.917 752.875 OFFCURVE",
"476.921 697.884 OFFCURVE",
"464.923 647.892 CURVE SMOOTH",
"452.925 597.901 OFFCURVE",
"446.926 547.909 OFFCURVE",
"442.926 496.917 CURVE SMOOTH",
"440.927 471.921 OFFCURVE",
"438.927 445.926 OFFCURVE",
"435.927 419.93 CURVE",
"514.914 422.93 OFFCURVE",
"589.902 423.929 OFFCURVE",
"666.889 423.929 CURVE"
);
}
);
width = 1070;
}
);
unicode = 003F;
},
{
glyphname = at;
layers = (
{
layerId = "FE27A893-8D3D-4D0E-A6EA-BC9D15131593";
name = "Regular Italic";
paths = (
{
closed = 1;
nodes = (
"707.882 686.886 OFFCURVE",
"730.878 758.874 OFFCURVE",
"786.869 811.865 CURVE SMOOTH",
"838.86 862.856 OFFCURVE",
"908.849 884.853 OFFCURVE",
"977.837 884.853 CURVE SMOOTH",
"1046.83 884.853 OFFCURVE",
"1106.82 863.856 OFFCURVE",
"1149.81 824.863 CURVE SMOOTH",
"1192.8 784.869 OFFCURVE",
"1218.8 725.879 OFFCURVE",
"1218.8 652.891 CURVE SMOOTH",
"1218.8 568.905 OFFCURVE",
"1194.8 477.92 OFFCURVE",
"1130.81 413.931 CURVE SMOOTH",
"1079.82 362.94 OFFCURVE",
"1008.83 341.943 OFFCURVE",
"940.843 341.943 CURVE SMOOTH",
"869.855 341.943 OFFCURVE",
"809.865 362.94 OFFCURVE",
"766.872 402.933 CURVE SMOOTH",
"723.88 442.926 OFFCURVE",
"698.884 501.916 OFFCURVE",
"698.884 577.904 CURVE SMOOTH",
"698.884 589.902 OFFCURVE",
"699.883 602.9 OFFCURVE",
"700.883 614.898 CURVE SMOOTH"
);
},
{
closed = 1;
nodes = (
"1229.8 247.959 OFFCURVE",
"1227.8 219.963 OFFCURVE",
"1225.8 192.968 CURVE SMOOTH",
"1223.8 165.972 OFFCURVE",
"1221.8 137.977 OFFCURVE",
"1219.8 109.982 CURVE",
"1290.79 109.982 OFFCURVE",
"1365.77 119.98 OFFCURVE",
"1435.76 142.976 CURVE SMOOTH",
"1505.75 165.972 OFFCURVE",
"1571.74 200.967 OFFCURVE",
"1627.73 252.958 CURVE SMOOTH",
"1695.72 315.947 OFFCURVE",
"1740.71 396.934 OFFCURVE",
"1768.71 481.92 CURVE SMOOTH",
"1796.7 566.906 OFFCURVE",
"1808.7 656.891 OFFCURVE",
"1808.7 739.877 CURVE SMOOTH",
"1808.7 886.852 OFFCURVE",
"1771.71 1007.83 OFFCURVE",
"1707.72 1104.82 CURVE SMOOTH",
"1643.73 1201.8 OFFCURVE",
"1553.74 1274.79 OFFCURVE",
"1448.76 1323.78 CURVE SMOOTH",
"1343.78 1371.77 OFFCURVE",
"1223.8 1395.77 OFFCURVE",
"1099.82 1395.77 CURVE SMOOTH",
"980.837 1395.77 OFFCURVE",
"861.857 1376.77 OFFCURVE",
"747.876 1336.78 CURVE SMOOTH",
"633.894 1296.78 OFFCURVE",
"524.913 1236.79 OFFCURVE",
"431.928 1156.81 CURVE",
"332.945 1061.82 OFFCURVE",
"261.956 944.843 OFFCURVE",
"216.964 820.863 CURVE SMOOTH",
"171.971 695.884 OFFCURVE",
"150.975 561.906 OFFCURVE",
"150.975 436.927 CURVE SMOOTH",
"150.975 341.943 OFFCURVE",
"162.973 246.959 OFFCURVE",
"190.968 158.974 CURVE SMOOTH",
"218.964 70.9882 OFFCURVE",
"261.956 -11 OFFCURVE",
"324.946 -79 CURVE SMOOTH",
"395.934 -160 OFFCURVE",
"487.919 -219 OFFCURVE",
"589.902 -257 CURVE SMOOTH",
"691.885 -295 OFFCURVE",
"803.866 -313 OFFCURVE",
"914.848 -313 CURVE SMOOTH",
"1111.81 -313 OFFCURVE",
"1309.78 -256 OFFCURVE",
"1478.75 -136 CURVE",
"1451.76 -83 OFFCURVE",
"1429.76 -31 OFFCURVE",
"1406.77 24.9958 CURVE",
"1266.79 -75 OFFCURVE",
"1097.82 -116 OFFCURVE",
"934.844 -117 CURVE SMOOTH",
"843.86 -116 OFFCURVE",
"751.875 -107 OFFCURVE",
"667.889 -82 CURVE SMOOTH",
"583.903 -57 OFFCURVE",
"507.915 -13 OFFCURVE",
"446.926 55.9907 CURVE",
"390.935 127.979 OFFCURVE",
"333.944 198.967 OFFCURVE",
"294.951 282.953 CURVE SMOOTH",
"270.955 334.944 OFFCURVE",
"263.956 392.935 OFFCURVE",
"263.956 452.925 CURVE SMOOTH",
"263.956 585.902 OFFCURVE",
"291.951 724.879 OFFCURVE",
"351.941 847.859 CURVE SMOOTH",
"411.931 970.838 OFFCURVE",
"501.916 1079.82 OFFCURVE",
"625.896 1152.81 CURVE",
"624.896 1152.81 LINE",
"761.873 1236.79 OFFCURVE",
"919.847 1274.79 OFFCURVE",
"1074.82 1274.79 CURVE SMOOTH",
"1179.8 1274.79 OFFCURVE",
"1285.79 1253.79 OFFCURVE",
"1378.77 1210.8 CURVE SMOOTH",
"1470.76 1167.81 OFFCURVE",
"1552.74 1104.82 OFFCURVE",
"1611.73 1020.83 CURVE",
"1667.72 932.845 OFFCURVE",
"1692.72 829.862 OFFCURVE",
"1692.72 722.88 CURVE SMOOTH",
"1692.72 662.89 OFFCURVE",
"1685.72 598.9 OFFCURVE",
"1669.72 536.911 CURVE SMOOTH",
"1652.72 474.921 OFFCURVE",
"1624.73 412.931 OFFCURVE",
"1584.74 360.94 CURVE SMOOTH",
"1524.75 283.953 OFFCURVE",
"1436.76 240.96 OFFCURVE",
"1343.78 227.962 CURVE",
"1359.77 467.922 OFFCURVE",
"1381.77 701.883 OFFCURVE",
"1408.77 941.843 CURVE",
"1369.77 940.843 OFFCURVE",
"1331.78 939.844 OFFCURVE",
"1292.78 939.844 CURVE",
"1290.79 915.848 OFFCURVE",
"1288.79 891.852 OFFCURVE",
"1285.79 867.856 CURVE SMOOTH",
"1282.79 843.86 OFFCURVE",
"1279.79 819.864 OFFCURVE",
"1276.79 795.868 CURVE",
"1245.79 842.86 OFFCURVE",
"1205.8 882.853 OFFCURVE",
"1156.81 911.848 CURVE SMOOTH",
"1107.82 939.844 OFFCURVE",
"1051.82 956.841 OFFCURVE",
"991.835 956.841 CURVE SMOOTH",
"887.852 956.841 OFFCURVE",
"789.869 921.847 OFFCURVE",
"714.881 840.86 CURVE SMOOTH",
"666.889 791.868 OFFCURVE",
"634.894 732.878 OFFCURVE",
"614.898 669.888 CURVE SMOOTH",
"594.901 605.899 OFFCURVE",
"586.902 539.91 OFFCURVE",
"586.902 476.921 CURVE SMOOTH",
"586.902 385.936 OFFCURVE",
"605.899 297.95 OFFCURVE",
"660.89 228.962 CURVE",
"720.88 145.976 OFFCURVE",
"814.864 114.981 OFFCURVE",
"918.847 114.981 CURVE SMOOTH",
"978.837 114.981 OFFCURVE",
"1037.83 130.978 OFFCURVE",
"1091.82 159.973 CURVE SMOOTH",
"1145.81 187.969 OFFCURVE",
"1192.8 227.962 OFFCURVE",
"1231.79 275.954 CURVE"
);
}
);
width = 1938;
}
);
unicode = 0040;
},
{
glyphname = A;
layers = (
{
layerId = "FE27A893-8D3D-4D0E-A6EA-BC9D15131593";
name = "Regular Italic";
paths = (
{
closed = 1;
nodes = (
"850.858 1174.8 OFFCURVE",
"883.853 1035.83 OFFCURVE",
"915.848 897.851 CURVE SMOOTH",
"947.842 758.874 OFFCURVE",
"980.837 619.897 OFFCURVE",
"1015.83 480.92 CURVE",
"969.839 480.92 OFFCURVE",
"924.846 480.92 OFFCURVE",
"879.854 481.92 CURVE SMOOTH",
"834.861 481.92 OFFCURVE",
"789.869 481.92 OFFCURVE",
"743.876 481.92 CURVE SMOOTH",
"651.891 481.92 OFFCURVE",
"563.906 480.92 OFFCURVE",
"471.921 479.92 CURVE",
"530.912 618.897 OFFCURVE",
"588.902 757.874 OFFCURVE",
"644.893 896.851 CURVE SMOOTH",
"700.883 1035.83 OFFCURVE",
"757.874 1174.8 OFFCURVE",
"816.864 1313.78 CURVE"
);
},
{
closed = 1;
nodes = (
"684.886 1332.78 OFFCURVE",
"627.896 1211.8 OFFCURVE",
"572.905 1090.82 CURVE SMOOTH",
"516.914 968.839 OFFCURVE",
"459.923 846.859 OFFCURVE",
"402.933 725.879 CURVE SMOOTH",
"287.952 482.92 OFFCURVE",
"169.972 242.96 OFFCURVE",
"33.9943 9.99834 CURVE",
"116.981 16.9972 OFFCURVE",
"200.967 22.9962 OFFCURVE",
"284.953 27.9953 CURVE",
"323.946 107.982 OFFCURVE",
"360.94 186.969 OFFCURVE",
"393.934 267.955 CURVE",
"396.934 267.955 OFFCURVE",
"505.916 268.955 OFFCURVE",
"617.897 268.955 CURVE SMOOTH",
"729.879 268.955 OFFCURVE",
"837.861 267.955 OFFCURVE",
"949.842 267.955 CURVE",
"949.842 267.955 LINE SMOOTH",
"949.842 267.955 OFFCURVE",
"949.842 267.955 OFFCURVE",
"1060.82 267.955 CURVE",
"1075.82 186.969 OFFCURVE",
"1092.82 106.982 OFFCURVE",
"1111.81 28.9952 CURVE",
"1200.8 24.9958 OFFCURVE",
"1288.79 17.997 OFFCURVE",
"1376.77 9.99834 CURVE",
"1327.78 125.979 OFFCURVE",
"1283.79 243.959 OFFCURVE",
"1243.79 363.939 CURVE SMOOTH",
"1163.81 602.9 OFFCURVE",
"1093.82 844.859 OFFCURVE",
"1026.83 1088.82 CURVE SMOOTH",
"992.835 1210.8 OFFCURVE",
"957.841 1332.78 OFFCURVE",
"921.847 1453.76 CURVE",
"743.876 1453.76 LINE"
);
}
);
width = 1639;
}
);
unicode = 0041;
},
{
glyphname = B;
layers = (
{
layerId = "FE27A893-8D3D-4D0E-A6EA-BC9D15131593";
name = "Regular Italic";
paths = (
{
closed = 1;
nodes = (
"837.861 722.88 OFFCURVE",
"879.854 718.88 OFFCURVE",
"919.847 709.882 CURVE SMOOTH",
"958.84 700.883 OFFCURVE",
"995.834 684.886 OFFCURVE",
"1024.83 656.891 CURVE",
"1023.83 656.891 LINE",
"1055.82 625.896 OFFCURVE",
"1091.82 588.902 OFFCURVE",
"1091.82 537.91 CURVE SMOOTH",
"1091.82 502.916 OFFCURVE",
"1085.82 465.922 OFFCURVE",
"1070.82 430.928 CURVE SMOOTH",
"1054.82 395.934 OFFCURVE",
"1031.83 365.939 OFFCURVE",
"999.834 346.942 CURVE",
"923.846 307.949 OFFCURVE",
"840.86 303.949 OFFCURVE",
"760.873 303.949 CURVE SMOOTH",
"652.891 303.949 OFFCURVE",
"545.909 300.95 OFFCURVE",
"437.927 296.951 CURVE",
"446.926 367.939 OFFCURVE",
"455.924 438.927 OFFCURVE",
"462.923 509.915 CURVE SMOOTH",
"469.922 580.903 OFFCURVE",
"476.921 651.891 OFFCURVE",
"483.919 722.88 CURVE",
"797.867 722.88 LINE SMOOTH"
);
},
{
closed = 1;
nodes = (
"623.896 1344.78 OFFCURVE",
"724.879 1341.78 OFFCURVE",
"826.862 1341.78 CURVE SMOOTH",
"893.851 1341.78 OFFCURVE",
"960.84 1329.78 OFFCURVE",
"1011.83 1295.78 CURVE SMOOTH",
"1062.82 1261.79 OFFCURVE",
"1096.82 1207.8 OFFCURVE",
"1096.82 1124.81 CURVE SMOOTH",
"1096.82 1089.82 OFFCURVE",
"1091.82 1050.83 OFFCURVE",
"1076.82 1012.83 CURVE SMOOTH",
"1060.82 974.838 OFFCURVE",
"1035.83 937.844 OFFCURVE",
"995.834 910.848 CURVE SMOOTH",
"932.845 867.856 OFFCURVE",
"857.857 860.857 OFFCURVE",
"786.869 860.857 CURVE SMOOTH",
"737.877 860.857 OFFCURVE",
"689.885 860.857 OFFCURVE",
"641.893 860.857 CURVE SMOOTH",
"592.901 860.857 OFFCURVE",
"544.909 861.857 OFFCURVE",
"495.917 862.856 CURVE",
"508.915 1026.83 OFFCURVE",
"518.914 1187.8 OFFCURVE",
"523.913 1350.78 CURVE"
);
},
{
closed = 1;
nodes = (
"347.942 990.835 OFFCURVE",
"307.949 502.916 OFFCURVE",
"218.964 9.99834 CURVE",
"397.934 29.995 OFFCURVE",
"571.905 37.9937 OFFCURVE",
"748.875 37.9937 CURVE SMOOTH",
"813.865 37.9937 OFFCURVE",
"883.853 41.993 OFFCURVE",
"949.842 54.9908 CURVE SMOOTH",
"1015.83 67.9887 OFFCURVE",
"1079.82 90.9849 OFFCURVE",
"1139.81 129.978 CURVE SMOOTH",
"1196.8 166.972 OFFCURVE",
"1235.79 220.963 OFFCURVE",
"1257.79 279.953 CURVE SMOOTH",
"1279.79 338.944 OFFCURVE",
"1287.79 403.933 OFFCURVE",
"1287.79 464.923 CURVE SMOOTH",
"1287.79 553.908 OFFCURVE",
"1249.79 634.894 OFFCURVE",
"1189.8 692.885 CURVE SMOOTH",
"1128.81 750.875 OFFCURVE",
"1045.83 786.869 OFFCURVE",
"957.841 793.868 CURVE",
"958.84 810.865 LINE",
"1049.83 818.864 OFFCURVE",
"1116.81 869.855 OFFCURVE",
"1161.81 937.844 CURVE SMOOTH",
"1205.8 1005.83 OFFCURVE",
"1227.8 1090.82 OFFCURVE",
"1227.8 1169.81 CURVE SMOOTH",
"1227.8 1221.8 OFFCURVE",
"1213.8 1270.79 OFFCURVE",
"1186.8 1314.78 CURVE SMOOTH",
"1158.81 1357.77 OFFCURVE",
"1116.81 1392.77 OFFCURVE",
"1060.82 1413.76 CURVE SMOOTH",
"979.837 1444.76 OFFCURVE",
"890.852 1452.76 OFFCURVE",
"801.867 1453.76 CURVE SMOOTH",
"648.892 1456.76 OFFCURVE",
"496.917 1462.76 OFFCURVE",
"347.942 1483.75 CURVE"
);
}
);
width = 1470;
}
);
unicode = 0042;
},
{
glyphname = C;
layers = (
{
layerId = "FE27A893-8D3D-4D0E-A6EA-BC9D15131593";
name = "Regular Italic";
paths = (
{
closed = 1;
nodes = (
"1392.77 1372.77 OFFCURVE",
"1393.77 1369.77 OFFCURVE",
"1393.77 1368.77 CURVE",
"1334.78 1409.77 OFFCURVE",
"1268.79 1438.76 OFFCURVE",
"1197.8 1455.76 CURVE SMOOTH",
"1125.81 1472.75 OFFCURVE",
"1050.83 1480.75 OFFCURVE",
"977.837 1480.75 CURVE SMOOTH",
"880.853 1480.75 OFFCURVE",
"777.871 1470.76 OFFCURVE",
"680.887 1442.76 CURVE SMOOTH",
"583.903 1413.76 OFFCURVE",
"491.918 1365.77 OFFCURVE",
"415.931 1289.79 CURVE SMOOTH",
"327.945 1202.8 OFFCURVE",
"272.955 1090.82 OFFCURVE",
"240.96 973.838 CURVE SMOOTH",
"207.965 856.857 OFFCURVE",
"197.967 732.878 OFFCURVE",
"197.967 627.896 CURVE SMOOTH",
"197.967 548.909 OFFCURVE",
"204.966 471.921 OFFCURVE",
"224.963 398.934 CURVE SMOOTH",
"243.959 325.946 OFFCURVE",
"274.954 256.957 OFFCURVE",
"321.946 196.967 CURVE",
"384.936 124.979 OFFCURVE",
"467.922 77.987 OFFCURVE",
"557.907 49.9917 CURVE SMOOTH",
"647.892 20.9965 OFFCURVE",
"745.876 8.9985 OFFCURVE",
"841.86 8.9985 CURVE SMOOTH",
"990.835 8.9985 OFFCURVE",
"1144.81 37.9937 OFFCURVE",
"1279.79 120.98 CURVE",
"1279.79 153.974 LINE SMOOTH",
"1279.79 249.958 OFFCURVE",
"1282.79 346.942 OFFCURVE",
"1287.79 443.926 CURVE",
"1228.8 391.935 OFFCURVE",
"1161.81 352.941 OFFCURVE",
"1089.82 325.946 CURVE SMOOTH",
"1017.83 297.95 OFFCURVE",
"942.843 284.953 OFFCURVE",
"867.856 284.953 CURVE SMOOTH",
"800.867 284.953 OFFCURVE",
"729.879 287.952 OFFCURVE",
"662.89 302.95 CURVE SMOOTH",
"595.901 317.947 OFFCURVE",
"531.911 340.943 OFFCURVE",
"479.92 383.936 CURVE SMOOTH",
"439.927 418.93 OFFCURVE",
"414.931 463.923 OFFCURVE",
"399.933 512.915 CURVE SMOOTH",
"384.936 561.906 OFFCURVE",
"379.937 616.897 OFFCURVE",
"379.937 669.888 CURVE SMOOTH",
"379.937 753.875 OFFCURVE",
"389.935 848.859 OFFCURVE",
"415.931 940.843 CURVE SMOOTH",
"441.926 1032.83 OFFCURVE",
"485.919 1121.81 OFFCURVE",
"554.908 1196.8 CURVE",
"610.898 1252.79 OFFCURVE",
"677.887 1288.79 OFFCURVE",
"749.875 1309.78 CURVE SMOOTH",
"821.863 1330.78 OFFCURVE",
"896.851 1338.78 OFFCURVE",
"968.839 1338.78 CURVE SMOOTH",
"1116.81 1338.78 OFFCURVE",
"1260.79 1287.79 OFFCURVE",
"1360.77 1186.8 CURVE",
"1369.77 1250.79 OFFCURVE",
"1379.77 1312.78 OFFCURVE",
"1391.77 1376.77 CURVE"
);
}
);
width = 1521;
}
);
unicode = 0043;
},
{
glyphname = D;
layers = (
{
layerId = "FE27A893-8D3D-4D0E-A6EA-BC9D15131593";
name = "Regular Italic";
paths = (
{
closed = 1;
nodes = (
"617.897 1317.78 OFFCURVE",
"698.884 1314.78 OFFCURVE",
"781.87 1313.78 CURVE SMOOTH",
"858.857 1310.78 OFFCURVE",
"940.843 1304.78 OFFCURVE",
"1017.83 1284.79 CURVE SMOOTH",
"1093.82 1264.79 OFFCURVE",
"1165.81 1229.8 OFFCURVE",
"1222.8 1169.81 CURVE",
"1258.79 1128.81 OFFCURVE",
"1281.79 1079.82 OFFCURVE",
"1295.78 1027.83 CURVE SMOOTH",
"1309.78 975.838 OFFCURVE",
"1313.78 920.847 OFFCURVE",
"1313.78 864.856 CURVE SMOOTH",
"1313.78 831.862 OFFCURVE",
"1312.78 797.867 OFFCURVE",
"1309.78 765.872 CURVE",
"1290.79 709.882 OFFCURVE",
"1270.79 651.891 OFFCURVE",
"1241.79 597.901 CURVE SMOOTH",
"1212.8 543.909 OFFCURVE",
"1174.8 494.918 OFFCURVE",
"1122.81 458.924 CURVE",
"1089.82 439.927 OFFCURVE",
"1056.82 425.929 OFFCURVE",
"1022.83 415.931 CURVE SMOOTH",
"953.841 395.934 OFFCURVE",
"881.853 386.936 OFFCURVE",
"810.865 383.936 CURVE SMOOTH",
"774.871 382.936 OFFCURVE",
"739.877 380.937 OFFCURVE",
"704.883 379.937 CURVE SMOOTH",
"622.896 378.937 OFFCURVE",
"541.91 376.937 OFFCURVE",
"460.923 373.938 CURVE",
"499.917 690.885 OFFCURVE",
"522.913 1004.83 OFFCURVE",
"533.911 1321.78 CURVE"
);
},
{
closed = 1;
nodes = (
"348.942 1462.76 OFFCURVE",
"348.942 1440.76 OFFCURVE",
"348.942 1419.76 CURVE SMOOTH",
"348.942 1397.77 OFFCURVE",
"348.942 1375.77 OFFCURVE",
"348.942 1354.77 CURVE SMOOTH",
"348.942 905.849 OFFCURVE",
"306.949 458.924 OFFCURVE",
"218.964 9.99834 CURVE",
"355.941 24.9958 OFFCURVE",
"488.919 30.9948 OFFCURVE",
"625.896 34.9942 CURVE SMOOTH",
"732.878 38.9935 OFFCURVE",
"844.859 44.9925 OFFCURVE",
"952.841 67.9887 CURVE SMOOTH",
"1060.82 90.9849 OFFCURVE",
"1164.81 129.978 OFFCURVE",
"1256.79 200.967 CURVE",
"1355.77 284.953 OFFCURVE",
"1412.76 406.932 OFFCURVE",
"1444.76 531.911 CURVE SMOOTH",
"1476.75 656.891 OFFCURVE",
"1484.75 787.869 OFFCURVE",
"1484.75 890.852 CURVE SMOOTH",
"1484.75 963.84 OFFCURVE",
"1478.75 1038.83 OFFCURVE",
"1458.76 1107.82 CURVE SMOOTH",
"1438.76 1175.8 OFFCURVE",
"1406.77 1238.79 OFFCURVE",
"1354.77 1290.79 CURVE",
"1275.79 1362.77 OFFCURVE",
"1176.8 1401.77 OFFCURVE",
"1072.82 1423.76 CURVE SMOOTH",
"967.839 1445.76 OFFCURVE",
"854.858 1451.76 OFFCURVE",
"749.875 1456.76 CURVE SMOOTH",
"613.898 1459.76 OFFCURVE",
"480.92 1467.76 OFFCURVE",
"347.942 1483.75 CURVE"
);
}
);
width = 1600;
}
);
unicode = 0044;
},
{
glyphname = E;
layers = (
{
layerId = "FE27A893-8D3D-4D0E-A6EA-BC9D15131593";
name = "Regular Italic";
paths = (
{
closed = 1;
nodes = (
"342.943 990.835 OFFCURVE",
"302.95 502.916 OFFCURVE",
"218.964 9.99834 CURVE",
"378.937 28.9952 OFFCURVE",
"536.911 37.9937 OFFCURVE",
"695.884 37.9937 CURVE SMOOTH",
"852.858 37.9937 OFFCURVE",
"1007.83 28.9952 OFFCURVE",
"1160.81 9.99834 CURVE",
"1160.81 106.982 OFFCURVE",
"1160.81 203.966 OFFCURVE",
"1165.81 300.95 CURVE",
"1016.83 312.948 OFFCURVE",
"868.855 317.947 OFFCURVE",
"719.88 317.947 CURVE SMOOTH",
"626.896 317.947 OFFCURVE",
"532.911 315.947 OFFCURVE",
"438.927 311.948 CURVE",
"453.924 448.925 OFFCURVE",
"467.922 583.903 OFFCURVE",
"479.92 720.88 CURVE",
"591.901 720.88 OFFCURVE",
"702.883 720.88 OFFCURVE",
"813.865 721.88 CURVE SMOOTH",
"923.846 721.88 OFFCURVE",
"1034.83 721.88 OFFCURVE",
"1146.81 721.88 CURVE",
"1148.81 746.876 OFFCURVE",
"1150.81 770.872 OFFCURVE",
"1152.81 795.868 CURVE SMOOTH",
"1154.81 820.863 OFFCURVE",
"1157.81 844.859 OFFCURVE",
"1160.81 869.855 CURVE",
"1019.83 866.856 OFFCURVE",
"882.853 864.856 OFFCURVE",
"741.877 864.856 CURVE SMOOTH",
"657.891 864.856 OFFCURVE",
"575.904 865.856 OFFCURVE",
"491.918 866.856 CURVE",
"503.916 1017.83 OFFCURVE",
"514.914 1165.81 OFFCURVE",
"521.913 1316.78 CURVE",
"617.897 1310.78 OFFCURVE",
"714.881 1307.78 OFFCURVE",
"811.865 1307.78 CURVE SMOOTH",
"956.841 1307.78 OFFCURVE",
"1101.82 1314.78 OFFCURVE",
"1246.79 1329.78 CURVE",
"1249.79 1354.77 OFFCURVE",
"1253.79 1380.77 OFFCURVE",
"1258.79 1405.77 CURVE SMOOTH",
"1263.79 1430.76 OFFCURVE",
"1267.79 1456.76 OFFCURVE",
"1271.79 1481.75 CURVE",
"1114.81 1462.76 OFFCURVE",
"960.84 1452.76 OFFCURVE",
"804.866 1452.76 CURVE SMOOTH",
"649.892 1452.76 OFFCURVE",
"498.917 1462.76 OFFCURVE",
"347.942 1483.75 CURVE"
);
}
);
width = 1426;
}
);
unicode = 0045;
},
{
glyphname = F;
layers = (
{
layerId = "FE27A893-8D3D-4D0E-A6EA-BC9D15131593";
name = "Regular Italic";
paths = (
{
closed = 1;
nodes = (
"321.946 985.836 OFFCURVE",
"269.955 500.917 OFFCURVE",
"177.97 9.99834 CURVE",
"254.958 21.9963 OFFCURVE",
"333.944 27.9953 OFFCURVE",
"410.932 32.9945 CURVE",
"431.928 251.958 OFFCURVE",
"444.926 464.923 OFFCURVE",
"459.923 683.886 CURVE",
"519.913 683.886 OFFCURVE",
"579.904 683.886 OFFCURVE",
"638.894 684.886 CURVE SMOOTH",
"697.884 684.886 OFFCURVE",
"757.874 684.886 OFFCURVE",
"817.864 684.886 CURVE SMOOTH",
"847.859 684.886 OFFCURVE",
"877.854 684.886 OFFCURVE",
"906.849 684.886 CURVE SMOOTH",
"935.844 684.886 OFFCURVE",
"965.839 684.886 OFFCURVE",
"995.834 683.886 CURVE",
"998.834 714.881 OFFCURVE",
"1001.83 746.876 OFFCURVE",
"1004.83 777.871 CURVE SMOOTH",
"1006.83 808.865 OFFCURVE",
"1009.83 839.86 OFFCURVE",
"1013.83 870.855 CURVE",
"890.852 867.856 OFFCURVE",
"770.872 866.856 OFFCURVE",
"647.892 866.856 CURVE SMOOTH",
"616.897 866.856 OFFCURVE",
"586.902 866.856 OFFCURVE",
"556.907 867.856 CURVE SMOOTH",
"526.912 867.856 OFFCURVE",
"496.917 867.856 OFFCURVE",
"465.922 867.856 CURVE",
"484.919 1012.83 OFFCURVE",
"500.917 1156.81 OFFCURVE",
"516.914 1301.78 CURVE",
"576.904 1298.78 OFFCURVE",
"637.894 1297.78 OFFCURVE",
"698.884 1297.78 CURVE SMOOTH",
"839.86 1297.78 OFFCURVE",
"978.837 1304.78 OFFCURVE",
"1119.81 1321.78 CURVE",
"1127.81 1376.77 OFFCURVE",
"1135.81 1428.76 OFFCURVE",
"1144.81 1483.75 CURVE",
"999.834 1463.76 OFFCURVE",
"857.857 1452.76 OFFCURVE",
"712.881 1452.76 CURVE SMOOTH",
"588.902 1452.76 OFFCURVE",
"466.922 1460.76 OFFCURVE",
"345.942 1477.75 CURVE"
);
}
);
width = 1117;
}
);
unicode = 0046;
},
{
glyphname = G;
layers = (
{
layerId = "FE27A893-8D3D-4D0E-A6EA-BC9D15131593";
name = "Regular Italic";
paths = (
{
closed = 1;
nodes = (
"1182.8 380.937 OFFCURVE",
"1182.8 379.937 OFFCURVE",
"1181.8 378.937 CURVE SMOOTH",
"1180.8 377.937 OFFCURVE",
"1180.8 375.937 OFFCURVE",
"1179.8 374.938 CURVE SMOOTH",
"1162.81 357.94 OFFCURVE",
"1141.81 343.943 OFFCURVE",
"1116.81 334.944 CURVE SMOOTH",
"1067.82 315.947 OFFCURVE",
"1009.83 306.949 OFFCURVE",
"952.841 305.949 CURVE SMOOTH",
"923.846 304.949 OFFCURVE",
"896.851 304.949 OFFCURVE",
"871.855 303.949 CURVE",
"803.866 304.949 OFFCURVE",
"734.878 309.948 OFFCURVE",
"668.889 322.946 CURVE SMOOTH",
"602.9 334.944 OFFCURVE",
"538.91 356.941 OFFCURVE",
"485.919 395.934 CURVE",
"441.926 432.928 OFFCURVE",
"417.93 481.92 OFFCURVE",
"402.933 534.911 CURVE SMOOTH",
"387.935 586.902 OFFCURVE",
"384.936 645.893 OFFCURVE",
"384.936 701.883 CURVE SMOOTH",
"384.936 784.869 OFFCURVE",
"393.934 877.854 OFFCURVE",
"419.93 968.839 CURVE SMOOTH",
"445.926 1059.82 OFFCURVE",
"488.919 1147.81 OFFCURVE",
"557.907 1219.8 CURVE",
"614.898 1274.79 OFFCURVE",
"684.886 1309.78 OFFCURVE",
"757.874 1330.78 CURVE SMOOTH",
"830.862 1350.78 OFFCURVE",
"908.849 1357.77 OFFCURVE",
"980.837 1357.77 CURVE SMOOTH",
"1061.82 1357.77 OFFCURVE",
"1143.81 1345.78 OFFCURVE",
"1219.8 1319.78 CURVE SMOOTH",
"1295.78 1293.78 OFFCURVE",
"1364.77 1253.79 OFFCURVE",
"1423.76 1200.8 CURVE",
"1426.76 1228.8 OFFCURVE",
"1430.76 1256.79 OFFCURVE",
"1435.76 1284.79 CURVE SMOOTH",
"1440.76 1312.78 OFFCURVE",
"1444.76 1340.78 OFFCURVE",
"1449.76 1368.77 CURVE",
"1380.77 1412.76 OFFCURVE",
"1303.78 1440.76 OFFCURVE",
"1223.8 1457.76 CURVE SMOOTH",
"1142.81 1473.75 OFFCURVE",
"1057.82 1480.75 OFFCURVE",
"973.838 1480.75 CURVE SMOOTH",
"877.854 1480.75 OFFCURVE",
"776.871 1469.76 OFFCURVE",
"680.887 1441.76 CURVE SMOOTH",
"583.903 1412.76 OFFCURVE",
"491.918 1365.77 OFFCURVE",
"418.93 1292.78 CURVE SMOOTH",
"357.94 1233.79 OFFCURVE",
"311.948 1162.81 OFFCURVE",
"279.953 1086.82 CURVE SMOOTH",
"246.959 1009.83 OFFCURVE",
"226.962 926.846 OFFCURVE",
"214.964 845.859 CURVE SMOOTH",
"202.966 764.873 OFFCURVE",
"198.967 684.886 OFFCURVE",
"198.967 613.898 CURVE SMOOTH",
"198.967 537.91 OFFCURVE",
"204.966 460.923 OFFCURVE",
"224.963 388.935 CURVE SMOOTH",
"243.959 316.947 OFFCURVE",
"274.954 249.958 OFFCURVE",
"322.946 193.968 CURVE SMOOTH",
"386.936 118.98 OFFCURVE",
"471.921 72.9879 OFFCURVE",
"564.906 45.9923 CURVE SMOOTH",
"657.891 17.997 OFFCURVE",
"759.874 9.99834 OFFCURVE",
"856.857 9.99834 CURVE SMOOTH",
"945.843 9.99834 OFFCURVE",
"1036.83 18.9968 OFFCURVE",
"1125.81 39.9933 CURVE SMOOTH",
"1213.8 59.99 OFFCURVE",
"1298.78 93.9844 OFFCURVE",
"1377.77 144.976 CURVE",
"1377.77 343.943 OFFCURVE",
"1388.77 540.91 OFFCURVE",
"1405.77 740.877 CURVE",
"1322.78 740.877 OFFCURVE",
"1239.79 740.877 OFFCURVE",
"1157.81 740.877 CURVE SMOOTH",
"1075.82 739.877 OFFCURVE",
"992.835 739.877 OFFCURVE",
"909.849 739.877 CURVE",
"893.851 550.908 LINE",
"943.843 550.908 OFFCURVE",
"993.835 550.908 OFFCURVE",
"1044.83 550.908 CURVE SMOOTH",
"1094.82 550.908 OFFCURVE",
"1144.81 549.908 OFFCURVE",
"1194.8 548.909 CURVE",
"1192.8 520.913 OFFCURVE",
"1190.8 492.918 OFFCURVE",
"1188.8 465.922 CURVE SMOOTH",
"1186.8 437.927 OFFCURVE",
"1184.8 409.932 OFFCURVE",
"1183.8 381.936 CURVE"
);
}
);
width = 1614;
}
);
unicode = 0047;
},
{
glyphname = H;
layers = (
{
layerId = "FE27A893-8D3D-4D0E-A6EA-BC9D15131593";
name = "Regular Italic";
paths = (
{
closed = 1;
nodes = (
"341.943 988.835 OFFCURVE",
"297.95 500.917 OFFCURVE",
"197.967 9.99834 CURVE",
"267.955 16.9972 OFFCURVE",
"338.944 22.9962 OFFCURVE",
"409.932 27.9953 CURVE",
"434.928 190.968 OFFCURVE",
"455.924 353.941 OFFCURVE",
"472.921 516.914 CURVE",
"474.921 516.914 OFFCURVE",
"586.902 517.914 OFFCURVE",
"698.884 517.914 CURVE SMOOTH",
"809.865 517.914 OFFCURVE",
"922.846 516.914 OFFCURVE",
"1035.83 516.914 CURVE",
"1035.83 516.914 LINE SMOOTH",
"1035.83 516.914 OFFCURVE",
"1035.83 516.914 OFFCURVE",
"1147.81 516.914 CURVE",
"1135.81 352.941 OFFCURVE",
"1128.81 191.968 OFFCURVE",
"1127.81 27.9953 CURVE",
"1199.8 22.9962 OFFCURVE",
"1268.79 17.997 OFFCURVE",
"1337.78 9.99834 CURVE",
"1334.78 81.9864 OFFCURVE",
"1333.78 153.974 OFFCURVE",
"1333.78 225.962 CURVE SMOOTH",
"1333.78 645.893 OFFCURVE",
"1373.77 1061.82 OFFCURVE",
"1446.76 1481.75 CURVE",
"1414.76 1478.75 OFFCURVE",
"1382.77 1475.75 OFFCURVE",
"1350.78 1473.75 CURVE SMOOTH",
"1317.78 1470.76 OFFCURVE",
"1285.79 1467.76 OFFCURVE",
"1253.79 1464.76 CURVE",
"1214.8 1232.79 OFFCURVE",
"1188.8 1003.83 OFFCURVE",
"1168.81 770.872 CURVE",
"1009.83 769.872 OFFCURVE",
"852.858 768.872 OFFCURVE",
"693.885 768.872 CURVE SMOOTH",
"660.89 768.872 OFFCURVE",
"628.895 768.872 OFFCURVE",
"595.901 769.872 CURVE SMOOTH",
"562.906 769.872 OFFCURVE",
"530.912 769.872 OFFCURVE",
"497.917 769.872 CURVE",
"517.914 1002.83 OFFCURVE",
"530.912 1231.79 OFFCURVE",
"537.91 1463.76 CURVE",
"473.921 1467.76 OFFCURVE",
"411.931 1472.75 OFFCURVE",
"348.942 1481.75 CURVE",
"346.942 1481.75 LINE"
);
}
);
width = 1601;
}
);
unicode = 0048;
},
{
glyphname = I;
layers = (
{
layerId = "FE27A893-8D3D-4D0E-A6EA-BC9D15131593";
name = "Regular Italic";
paths = (
{
closed = 1;
nodes = (
"296.951 978.837 OFFCURVE",
"248.959 498.917 OFFCURVE",
"185.969 9.99834 CURVE",
"222.963 28.9952 OFFCURVE",
"261.956 37.9937 OFFCURVE",
"300.95 37.9937 CURVE SMOOTH",
"339.943 37.9937 OFFCURVE",
"375.937 28.9952 OFFCURVE",
"407.932 9.99834 CURVE",
"434.928 500.917 OFFCURVE",
"471.921 982.836 OFFCURVE",
"515.914 1473.75 CURVE",
"484.919 1458.76 OFFCURVE",
"453.924 1453.76 OFFCURVE",
"421.93 1453.76 CURVE SMOOTH",
"394.934 1453.76 OFFCURVE",
"368.939 1458.76 OFFCURVE",
"343.943 1467.76 CURVE"
);
}
);
width = 673;
}
);
unicode = 0049;
},
{
glyphname = J;
layers = (
{
layerId = "FE27A893-8D3D-4D0E-A6EA-BC9D15131593";
name = "Regular Italic";
paths = (
{
closed = 1;
nodes = (
"481.92 995.834 OFFCURVE",
"428.929 548.909 OFFCURVE",
"372.938 92.9845 CURVE",
"361.94 25.9957 OFFCURVE",
"321.946 -19 OFFCURVE",
"268.955 -50 CURVE SMOOTH",
"215.964 -82 OFFCURVE",
"151.975 -99 OFFCURVE",
"95.984 -108 CURVE",
"81.9864 -107 OFFCURVE",
"67.9887 -105 OFFCURVE",
"53.991 -104 CURVE SMOOTH",
"38.9935 -103 OFFCURVE",
"24.9958 -102 OFFCURVE",
"10.9982 -101 CURVE",
"0 -205 OFFCURVE",
"-10 -306 OFFCURVE",
"-23 -410 CURVE",
"12.9978 -406 OFFCURVE",
"48.9918 -403 OFFCURVE",
"84.9859 -400 CURVE",
"83.986 -400 LINE",
"112.981 -395 OFFCURVE",
"141.976 -389 OFFCURVE",
"172.971 -384 CURVE SMOOTH",
"202.966 -379 OFFCURVE",
"232.961 -373 OFFCURVE",
"261.956 -365 CURVE SMOOTH",
"320.947 -349 OFFCURVE",
"376.937 -327 OFFCURVE",
"425.929 -284 CURVE",
"473.921 -237 OFFCURVE",
"502.916 -179 OFFCURVE",
"520.913 -117 CURVE SMOOTH",
"538.91 -55 OFFCURVE",
"545.909 8.9985 OFFCURVE",
"552.908 69.9883 CURVE SMOOTH",
"604.899 537.91 OFFCURVE",
"663.89 1004.83 OFFCURVE",
"740.877 1471.76 CURVE",
"676.887 1456.76 OFFCURVE",
"612.898 1454.76 OFFCURVE",
"548.909 1451.76 CURVE"
);
}
);
width = 814;
}
);
unicode = 004A;
},
{
glyphname = K;
layers = (
{
layerId = "FE27A893-8D3D-4D0E-A6EA-BC9D15131593";
name = "Regular Italic";
paths = (
{
closed = 1;
nodes = (
"337.944 986.836 OFFCURVE",
"282.953 498.917 OFFCURVE",
"178.97 9.99834 CURVE",
"219.963 14.9975 OFFCURVE",
"259.957 17.997 OFFCURVE",
"300.95 20.9965 CURVE SMOOTH",
"340.943 23.996 OFFCURVE",
"380.937 25.9957 OFFCURVE",
"420.93 28.9952 CURVE",
"442.926 269.955 OFFCURVE",
"457.924 510.915 OFFCURVE",
"465.922 751.875 CURVE",
"609.898 508.915 OFFCURVE",
"750.875 271.955 OFFCURVE",
"906.849 36.9938 CURVE",
"1055.82 33.9943 OFFCURVE",
"1203.8 25.9957 OFFCURVE",
"1350.78 9.99834 CURVE",
"1230.8 139.977 OFFCURVE",
"1112.81 269.955 OFFCURVE",
"996.834 400.933 CURVE SMOOTH",
"880.853 531.911 OFFCURVE",
"763.873 662.89 OFFCURVE",
"645.893 794.868 CURVE",
"775.871 909.849 OFFCURVE",
"905.849 1023.83 OFFCURVE",
"1034.83 1136.81 CURVE SMOOTH",
"1163.81 1249.79 OFFCURVE",
"1293.78 1362.77 OFFCURVE",
"1424.76 1477.75 CURVE",
"1345.78 1470.76 OFFCURVE",
"1271.79 1464.76 OFFCURVE",
"1192.8 1461.76 CURVE",
"1071.82 1356.77 OFFCURVE",
"951.842 1253.79 OFFCURVE",
"831.862 1150.81 CURVE SMOOTH",
"711.882 1047.83 OFFCURVE",
"592.901 941.843 OFFCURVE",
"474.921 834.861 CURVE",
"497.917 1045.83 OFFCURVE",
"515.914 1252.79 OFFCURVE",
"527.912 1463.76 CURVE",
"467.922 1467.76 OFFCURVE",
"407.932 1472.75 OFFCURVE",
"346.942 1478.75 CURVE"
);
}
);
width = 1616;
}
);
unicode = 004B;
},
{
glyphname = L;
layers = (
{
layerId = "FE27A893-8D3D-4D0E-A6EA-BC9D15131593";
name = "Regular Italic";
paths = (
{
closed = 1;
nodes = (
"333.944 987.836 OFFCURVE",
"286.952 501.916 OFFCURVE",
"197.967 9.99834 CURVE",
"353.941 28.9952 OFFCURVE",
"506.916 37.9937 OFFCURVE",
"662.89 37.9937 CURVE SMOOTH",
"809.865 37.9937 OFFCURVE",
"953.841 29.995 OFFCURVE",
"1098.82 12.9978 CURVE",
"1103.82 108.982 OFFCURVE",
"1111.81 204.966 OFFCURVE",
"1122.81 300.95 CURVE",
"979.837 312.948 OFFCURVE",
"839.86 317.947 OFFCURVE",
"695.884 317.947 CURVE SMOOTH",
"606.899 317.947 OFFCURVE",
"516.914 315.947 OFFCURVE",
"426.929 311.948 CURVE",
"473.921 694.884 OFFCURVE",
"506.916 1077.82 OFFCURVE",
"525.912 1461.76 CURVE",
"465.922 1464.76 OFFCURVE",
"406.932 1471.76 OFFCURVE",
"346.942 1480.75 CURVE"
);
}
);
width = 1363;
}
);
unicode = 004C;
},
{
glyphname = M;
layers = (
{
layerId = "FE27A893-8D3D-4D0E-A6EA-BC9D15131593";
name = "Regular Italic";
paths = (
{
closed = 1;
nodes = (
"346.942 987.836 OFFCURVE",
"299.95 500.917 OFFCURVE",
"187.969 9.99834 CURVE",
"267.955 16.9972 OFFCURVE",
"345.942 22.9962 OFFCURVE",
"424.929 25.9957 CURVE",
"480.92 433.928 OFFCURVE",
"508.915 834.861 OFFCURVE",
"508.915 1239.79 CURVE SMOOTH",
"508.915 1299.78 LINE",
"511.915 1299.78 OFFCURVE",
"514.914 1299.78 OFFCURVE",
"517.914 1300.78 CURVE",
"519.913 1301.78 OFFCURVE",
"522.913 1301.78 OFFCURVE",
"525.912 1302.78 CURVE",
"551.908 1217.8 OFFCURVE",
"576.904 1131.81 OFFCURVE",
"599.9 1045.83 CURVE SMOOTH",
"645.893 873.855 OFFCURVE",
"688.885 700.883 OFFCURVE",
"729.879 526.912 CURVE SMOOTH",
"749.875 439.927 OFFCURVE",
"770.872 352.941 OFFCURVE",
"791.868 265.956 CURVE",
"809.865 265.956 OFFCURVE",
"827.862 265.956 OFFCURVE",
"846.859 266.956 CURVE",
"864.856 266.956 OFFCURVE",
"882.853 266.956 OFFCURVE",
"901.85 266.956 CURVE SMOOTH",
"920.847 266.956 OFFCURVE",
"938.844 266.956 OFFCURVE",
"956.841 266.956 CURVE",
"974.838 265.956 OFFCURVE",
"992.835 265.956 OFFCURVE",
"1011.83 265.956 CURVE",
"1154.81 613.898 OFFCURVE",
"1293.78 963.84 OFFCURVE",
"1458.76 1303.78 CURVE",
"1461.76 1302.78 OFFCURVE",
"1463.76 1302.78 OFFCURVE",
"1466.76 1302.78 CURVE",
"1468.76 1301.78 OFFCURVE",
"1471.76 1301.78 OFFCURVE",
"1474.75 1300.78 CURVE",
"1398.77 875.854 OFFCURVE",
"1347.78 453.924 OFFCURVE",
"1338.78 26.9955 CURVE",
"1418.76 22.9962 OFFCURVE",
"1494.75 16.9972 OFFCURVE",
"1573.74 9.99834 CURVE",
"1566.74 121.98 OFFCURVE",
"1562.74 230.962 OFFCURVE",
"1562.74 343.943 CURVE SMOOTH",
"1562.74 723.88 OFFCURVE",
"1601.73 1100.82 OFFCURVE",
"1672.72 1480.75 CURVE",
"1583.74 1473.75 OFFCURVE",
"1494.75 1467.76 OFFCURVE",
"1405.77 1462.76 CURVE",
"1318.78 1320.78 OFFCURVE",
"1237.79 1175.8 OFFCURVE",
"1160.81 1028.83 CURVE SMOOTH",
"1083.82 881.853 OFFCURVE",
"1006.83 734.878 OFFCURVE",
"929.845 587.902 CURVE",
"836.861 883.853 OFFCURVE",
"740.877 1172.8 OFFCURVE",
"627.896 1460.76 CURVE",
"534.911 1465.76 OFFCURVE",
"439.927 1471.76 OFFCURVE",
"346.942 1480.75 CURVE"
);
}
);
width = 1839;
}
);
unicode = 004D;
},
{
glyphname = N;
layers = (
{
layerId = "FE27A893-8D3D-4D0E-A6EA-BC9D15131593";
name = "Regular Italic";
paths = (
{
closed = 1;
nodes = (
"326.946 965.839 OFFCURVE",
"274.954 489.918 OFFCURVE",
"171.971 9.99834 CURVE",
"251.958 18.9968 OFFCURVE",
"328.945 23.996 OFFCURVE",
"407.932 28.9952 CURVE",
"446.926 435.927 OFFCURVE",
"466.922 833.861 OFFCURVE",
"466.922 1238.79 CURVE",
"482.92 1242.79 LINE",
"529.912 1142.81 OFFCURVE",
"575.904 1041.83 OFFCURVE",
"619.897 940.843 CURVE SMOOTH",
"663.89 838.86 OFFCURVE",
"707.882 736.877 OFFCURVE",
"751.875 635.894 CURVE SMOOTH",
"839.86 431.928 OFFCURVE",
"928.845 228.962 OFFCURVE",
"1027.83 31.9947 CURVE",
"1119.81 26.9955 OFFCURVE",
"1209.8 20.9965 OFFCURVE",
"1301.78 9.99834 CURVE",
"1300.78 28.9952 OFFCURVE",
"1300.78 48.9918 OFFCURVE",
"1300.78 68.9885 CURVE SMOOTH",
"1300.78 87.9854 OFFCURVE",
"1300.78 107.982 OFFCURVE",
"1300.78 126.979 CURVE SMOOTH",
"1300.78 579.904 OFFCURVE",
"1346.78 1030.83 OFFCURVE",
"1430.76 1483.75 CURVE",
"1374.77 1476.75 OFFCURVE",
"1319.78 1472.75 OFFCURVE",
"1263.79 1468.76 CURVE",
"1187.8 1064.82 OFFCURVE",
"1140.81 664.889 OFFCURVE",
"1111.81 257.957 CURVE",
"1018.83 450.925 OFFCURVE",
"932.845 648.892 OFFCURVE",
"845.859 845.859 CURVE SMOOTH",
"757.874 1042.83 OFFCURVE",
"669.888 1238.79 OFFCURVE",
"572.905 1430.76 CURVE",
"533.911 1433.76 OFFCURVE",
"494.918 1435.76 OFFCURVE",
"455.924 1438.76 CURVE SMOOTH",
"416.931 1440.76 OFFCURVE",
"378.937 1443.76 OFFCURVE",
"339.943 1448.76 CURVE"
);
}
);
width = 1567;
}
);
unicode = 004E;
},
{
glyphname = O;
layers = (
{
layerId = "FE27A893-8D3D-4D0E-A6EA-BC9D15131593";
name = "Regular Italic";
paths = (
{
closed = 1;
nodes = (
"1025.83 1339.78 OFFCURVE",
"1149.81 1287.79 OFFCURVE",
"1221.8 1182.8 CURVE",
"1282.79 1082.82 OFFCURVE",
"1301.78 966.839 OFFCURVE",
"1301.78 845.859 CURVE SMOOTH",
"1301.78 785.869 OFFCURVE",
"1298.78 703.883 OFFCURVE",
"1278.79 627.896 CURVE SMOOTH",
"1257.79 550.908 OFFCURVE",
"1219.8 477.92 OFFCURVE",
"1148.81 434.928 CURVE",
"1148.81 435.927 LINE",
"1041.83 374.938 OFFCURVE",
"922.846 360.94 OFFCURVE",
"807.866 360.94 CURVE SMOOTH",
"750.875 360.94 OFFCURVE",
"691.885 363.939 OFFCURVE",
"635.894 374.938 CURVE SMOOTH",
"579.904 385.936 OFFCURVE",
"525.912 402.933 OFFCURVE",
"477.92 433.928 CURVE SMOOTH",
"438.927 458.924 OFFCURVE",
"414.931 495.917 OFFCURVE",
"399.933 537.91 CURVE SMOOTH",
"384.936 579.904 OFFCURVE",
"380.937 625.896 OFFCURVE",
"380.937 672.888 CURVE SMOOTH",
"380.937 755.874 OFFCURVE",
"390.935 847.859 OFFCURVE",
"414.931 936.844 CURVE SMOOTH",
"438.927 1024.83 OFFCURVE",
"477.92 1110.82 OFFCURVE",
"536.911 1181.8 CURVE SMOOTH",
"580.903 1237.79 OFFCURVE",
"637.894 1276.79 OFFCURVE",
"699.883 1302.78 CURVE SMOOTH",
"761.873 1328.78 OFFCURVE",
"827.862 1339.78 OFFCURVE",
"894.851 1339.78 CURVE SMOOTH"
);
},
{
closed = 1;
nodes = (
"818.864 1479.75 OFFCURVE",
"726.879 1467.76 OFFCURVE",
"640.893 1437.76 CURVE SMOOTH",
"554.908 1407.77 OFFCURVE",
"472.921 1359.77 OFFCURVE",
"407.932 1288.79 CURVE SMOOTH",
"320.947 1197.8 OFFCURVE",
"268.955 1083.82 OFFCURVE",
"237.96 964.839 CURVE SMOOTH",
"206.966 844.859 OFFCURVE",
"197.967 722.88 OFFCURVE",
"197.967 614.898 CURVE SMOOTH",
"197.967 538.91 OFFCURVE",
"204.966 464.923 OFFCURVE",
"221.963 393.934 CURVE SMOOTH",
"238.96 322.946 OFFCURVE",
"268.955 257.957 OFFCURVE",
"312.948 198.967 CURVE SMOOTH",
"364.939 130.978 OFFCURVE",
"434.928 83.986 OFFCURVE",
"512.915 53.991 CURVE SMOOTH",
"590.902 23.996 OFFCURVE",
"676.887 9.99834 OFFCURVE",
"763.873 9.99834 CURVE SMOOTH",
"854.858 9.99834 OFFCURVE",
"948.842 21.9963 OFFCURVE",
"1036.83 50.9915 CURVE SMOOTH",
"1123.81 79.9867 OFFCURVE",
"1205.8 127.979 OFFCURVE",
"1272.79 199.967 CURVE SMOOTH",
"1353.77 292.951 OFFCURVE",
"1407.77 405.932 OFFCURVE",
"1439.76 523.913 CURVE SMOOTH",
"1471.76 641.893 OFFCURVE",
"1483.75 762.873 OFFCURVE",
"1483.75 873.855 CURVE SMOOTH",
"1483.75 948.842 OFFCURVE",
"1476.75 1022.83 OFFCURVE",
"1459.76 1093.82 CURVE SMOOTH",
"1442.76 1164.81 OFFCURVE",
"1413.76 1230.8 OFFCURVE",
"1369.77 1289.79 CURVE SMOOTH",
"1317.78 1361.77 OFFCURVE",
"1246.79 1408.77 OFFCURVE",
"1166.81 1438.76 CURVE SMOOTH",
"1085.82 1468.76 OFFCURVE",
"995.834 1479.75 OFFCURVE",
"907.849 1479.75 CURVE SMOOTH"
);
}
);
width = 1597;
}
);
unicode = 004F;
},
{
glyphname = P;
layers = (
{
layerId = "FE27A893-8D3D-4D0E-A6EA-BC9D15131593";
name = "Regular Italic";
paths = (
{
closed = 1;
nodes = (
"620.897 1389.77 OFFCURVE",
"705.883 1389.77 OFFCURVE",
"793.868 1389.77 CURVE SMOOTH",
"853.858 1389.77 OFFCURVE",
"925.846 1380.77 OFFCURVE",
"982.836 1348.78 CURVE SMOOTH",
"1038.83 1316.78 OFFCURVE",
"1081.82 1260.79 OFFCURVE",
"1081.82 1164.81 CURVE SMOOTH",
"1081.82 1147.81 OFFCURVE",
"1080.82 1132.81 OFFCURVE",
"1078.82 1117.81 CURVE",
"1077.82 1037.83 OFFCURVE",
"1037.83 965.839 OFFCURVE",
"980.837 913.848 CURVE SMOOTH",
"923.846 861.857 OFFCURVE",
"846.859 829.862 OFFCURVE",
"769.872 829.862 CURVE SMOOTH",
"670.888 829.862 OFFCURVE",
"575.904 830.862 OFFCURVE",
"476.921 831.862 CURVE",
"499.917 1020.83 OFFCURVE",
"516.914 1205.8 OFFCURVE",
"533.911 1394.77 CURVE"
);
},
{
closed = 1;
nodes = (
"320.947 983.836 OFFCURVE",
"263.956 498.917 OFFCURVE",
"158.974 9.99834 CURVE",
"233.961 18.9968 OFFCURVE",
"307.949 24.9958 OFFCURVE",
"380.937 29.995 CURVE",
"412.931 217.964 OFFCURVE",
"441.926 404.933 OFFCURVE",
"464.923 593.901 CURVE",
"505.916 594.901 OFFCURVE",
"545.909 595.901 OFFCURVE",
"585.902 595.901 CURVE SMOOTH",
"625.896 595.901 OFFCURVE",
"665.889 595.901 OFFCURVE",
"705.883 595.901 CURVE SMOOTH",
"766.872 595.901 OFFCURVE",
"832.861 601.9 OFFCURVE",
"894.851 618.897 CURVE SMOOTH",
"956.841 635.894 OFFCURVE",
"1014.83 663.89 OFFCURVE",
"1063.82 710.882 CURVE SMOOTH",
"1120.81 763.873 OFFCURVE",
"1160.81 833.861 OFFCURVE",
"1185.8 906.849 CURVE SMOOTH",
"1210.8 979.837 OFFCURVE",
"1221.8 1057.82 OFFCURVE",
"1221.8 1126.81 CURVE SMOOTH",
"1221.8 1177.8 OFFCURVE",
"1214.8 1228.8 OFFCURVE",
"1195.8 1273.79 CURVE SMOOTH",
"1175.8 1318.78 OFFCURVE",
"1145.81 1359.77 OFFCURVE",
"1100.82 1388.77 CURVE",
"1053.82 1416.76 OFFCURVE",
"1001.83 1432.76 OFFCURVE",
"947.842 1441.76 CURVE SMOOTH",
"893.851 1450.76 OFFCURVE",
"836.861 1453.76 OFFCURVE",
"780.87 1453.76 CURVE SMOOTH",
"633.894 1453.76 OFFCURVE",
"489.918 1458.76 OFFCURVE",
"345.942 1475.75 CURVE"
);
}
);
width = 1265;
}
);
unicode = 0050;
},
{
glyphname = Q;
layers = (
{
layerId = "FE27A893-8D3D-4D0E-A6EA-BC9D15131593";
name = "Regular Italic";
paths = (
{
closed = 1;
nodes = (
"959.84 1333.78 OFFCURVE",
"1024.83 1321.78 OFFCURVE",
"1081.82 1295.78 CURVE SMOOTH",
"1138.81 1269.79 OFFCURVE",
"1188.8 1228.8 OFFCURVE",
"1223.8 1175.8 CURVE SMOOTH",
"1286.79 1079.82 OFFCURVE",
"1305.78 963.84 OFFCURVE",
"1305.78 846.859 CURVE SMOOTH",
"1305.78 759.874 OFFCURVE",
"1294.78 671.888 OFFCURVE",
"1262.79 593.901 CURVE SMOOTH",
"1229.8 515.914 OFFCURVE",
"1174.8 448.925 OFFCURVE",
"1087.82 405.932 CURVE",
"1008.83 416.931 OFFCURVE",
"935.844 438.927 OFFCURVE",
"868.855 471.921 CURVE",
"853.858 449.925 OFFCURVE",
"839.86 427.929 OFFCURVE",
"824.863 406.932 CURVE SMOOTH",
"809.865 384.936 OFFCURVE",
"795.868 362.94 OFFCURVE",
"780.87 340.943 CURVE",
"664.889 356.941 OFFCURVE",
"572.905 376.937 OFFCURVE",
"481.92 433.928 CURVE SMOOTH",
"440.927 458.924 OFFCURVE",
"415.931 497.917 OFFCURVE",
"400.933 541.91 CURVE SMOOTH",
"385.936 585.902 OFFCURVE",
"381.936 634.894 OFFCURVE",
"381.936 682.886 CURVE SMOOTH",
"381.936 762.873 OFFCURVE",
"391.935 853.858 OFFCURVE",
"416.931 939.844 CURVE SMOOTH",
"440.927 1025.83 OFFCURVE",
"479.92 1109.82 OFFCURVE",
"536.911 1177.8 CURVE SMOOTH",
"628.895 1286.79 OFFCURVE",
"759.874 1333.78 OFFCURVE",
"894.851 1333.78 CURVE SMOOTH"
);
},
{
closed = 1;
nodes = (
"1272.79 180.97 OFFCURVE",
"1324.78 260.957 OFFCURVE",
"1375.77 344.943 CURVE SMOOTH",
"1420.76 424.929 OFFCURVE",
"1448.76 516.914 OFFCURVE",
"1465.76 608.899 CURVE SMOOTH",
"1482.75 700.883 OFFCURVE",
"1488.75 793.868 OFFCURVE",
"1488.75 874.854 CURVE SMOOTH",
"1488.75 947.842 OFFCURVE",
"1482.75 1022.83 OFFCURVE",
"1464.76 1092.82 CURVE SMOOTH",
"1446.76 1162.81 OFFCURVE",
"1416.76 1227.8 OFFCURVE",
"1372.77 1283.79 CURVE SMOOTH",
"1317.78 1358.77 OFFCURVE",
"1242.79 1405.77 OFFCURVE",
"1158.81 1434.76 CURVE SMOOTH",
"1074.82 1463.76 OFFCURVE",
"980.837 1473.75 OFFCURVE",
"888.852 1473.75 CURVE SMOOTH",
"803.866 1473.75 OFFCURVE",
"714.881 1460.76 OFFCURVE",
"631.895 1429.76 CURVE SMOOTH",
"547.909 1398.77 OFFCURVE",
"470.922 1352.77 OFFCURVE",
"406.932 1285.79 CURVE SMOOTH",
"323.946 1198.8 OFFCURVE",
"273.954 1091.82 OFFCURVE",
"242.96 979.837 CURVE SMOOTH",
"210.965 867.856 OFFCURVE",
"200.967 750.875 OFFCURVE",
"200.967 646.892 CURVE SMOOTH",
"200.967 483.919 OFFCURVE",
"230.962 324.946 OFFCURVE",
"322.946 195.967 CURVE SMOOTH",
"375.937 124.979 OFFCURVE",
"445.926 78.9869 OFFCURVE",
"525.912 48.9918 CURVE SMOOTH",
"604.899 18.9968 OFFCURVE",
"692.885 5.999 OFFCURVE",
"780.87 5.999 CURVE SMOOTH",
"805.866 5.999 OFFCURVE",
"830.862 6.99884 OFFCURVE",
"854.858 9.99834 CURVE",
"886.852 -30 OFFCURVE",
"918.847 -69 OFFCURVE",
"951.842 -108 CURVE SMOOTH",
"983.836 -147 OFFCURVE",
"1015.83 -186 OFFCURVE",
"1048.83 -225 CURVE",
"1197.8 -229 OFFCURVE",
"1345.78 -238 OFFCURVE",
"1493.75 -254 CURVE",
"1444.76 -195 OFFCURVE",
"1396.77 -137 OFFCURVE",
"1348.78 -80 CURVE SMOOTH",
"1299.78 -23 OFFCURVE",
"1251.79 35.994 OFFCURVE",
"1204.8 94.9842 CURVE",
"1204.8 108.982 LINE"
);
}
);
width = 1815;
}
);
unicode = 0051;
},
{
glyphname = R;
layers = (
{
layerId = "FE27A893-8D3D-4D0E-A6EA-BC9D15131593";
name = "Regular Italic";
paths = (
{
closed = 1;
nodes = (
"1055.82 736.877 OFFCURVE",
"1115.81 799.867 OFFCURVE",
"1154.81 875.854 CURVE SMOOTH",
"1193.8 951.842 OFFCURVE",
"1210.8 1040.83 OFFCURVE",
"1210.8 1116.81 CURVE SMOOTH",
"1210.8 1168.81 OFFCURVE",
"1202.8 1219.8 OFFCURVE",
"1182.8 1266.79 CURVE SMOOTH",
"1161.81 1313.78 OFFCURVE",
"1128.81 1356.77 OFFCURVE",
"1080.82 1388.77 CURVE",
"993.835 1439.76 OFFCURVE",
"892.851 1451.76 OFFCURVE",
"791.868 1454.76 CURVE SMOOTH",
"642.893 1457.76 OFFCURVE",
"495.917 1464.76 OFFCURVE",
"347.942 1483.75 CURVE",
"347.942 1419.76 LINE SMOOTH",
"347.942 947.842 OFFCURVE",
"306.949 481.92 OFFCURVE",
"218.964 9.99834 CURVE",
"294.951 17.997 OFFCURVE",
"366.939 24.9958 OFFCURVE",
"441.926 27.9953 CURVE",
"472.921 234.961 OFFCURVE",
"496.917 434.928 OFFCURVE",
"515.914 641.893 CURVE",
"566.906 642.893 OFFCURVE",
"615.897 643.893 OFFCURVE",
"666.889 643.893 CURVE SMOOTH",
"731.878 643.893 OFFCURVE",
"794.868 632.895 OFFCURVE",
"846.859 595.901 CURVE",
"875.854 570.905 OFFCURVE",
"898.85 539.91 OFFCURVE",
"918.847 505.916 CURVE SMOOTH",
"937.844 471.921 OFFCURVE",
"953.841 435.927 OFFCURVE",
"968.839 399.933 CURVE",
"1008.83 274.954 OFFCURVE",
"1047.83 153.974 OFFCURVE",
"1094.82 30.9948 CURVE",
"1182.8 25.9957 OFFCURVE",
"1268.79 20.9965 OFFCURVE",
"1356.77 9.99834 CURVE",
"1291.79 142.976 OFFCURVE",
"1230.8 275.954 OFFCURVE",
"1173.8 412.931 CURVE SMOOTH",
"1161.81 439.927 OFFCURVE",
"1149.81 466.922 OFFCURVE",
"1137.81 494.918 CURVE",
"1124.81 521.913 OFFCURVE",
"1110.82 548.909 OFFCURVE",
"1094.82 573.904 CURVE SMOOTH",
"1062.82 624.896 OFFCURVE",
"1022.83 668.889 OFFCURVE",
"965.839 692.885 CURVE",
"966.839 698.884 LINE",
"967.839 709.882 LINE"
);
},
{
closed = 1;
nodes = (
"632.895 1372.77 OFFCURVE",
"717.88 1371.77 OFFCURVE",
"804.866 1370.77 CURVE SMOOTH",
"881.853 1369.77 OFFCURVE",
"955.841 1346.78 OFFCURVE",
"1016.83 1303.78 CURVE",
"1015.83 1303.78 LINE",
"1076.82 1260.79 OFFCURVE",
"1091.82 1188.8 OFFCURVE",
"1091.82 1115.81 CURVE SMOOTH",
"1091.82 1104.82 OFFCURVE",
"1091.82 1093.82 OFFCURVE",
"1090.82 1082.82 CURVE SMOOTH",
"1089.82 1071.82 OFFCURVE",
"1089.82 1061.82 OFFCURVE",
"1088.82 1050.83 CURVE SMOOTH",
"1083.82 981.837 OFFCURVE",
"1034.83 924.846 OFFCURVE",
"971.838 884.853 CURVE SMOOTH",
"908.849 844.859 OFFCURVE",
"830.862 822.863 OFFCURVE",
"765.872 822.863 CURVE SMOOTH",
"723.88 822.863 OFFCURVE",
"681.886 822.863 OFFCURVE",
"639.893 822.863 CURVE SMOOTH",
"597.901 822.863 OFFCURVE",
"555.907 822.863 OFFCURVE",
"513.914 823.863 CURVE",
"528.912 1010.83 OFFCURVE",
"537.91 1192.8 OFFCURVE",
"544.909 1379.77 CURVE"
);
}
);
width = 1622;
}
);
unicode = 0052;
},
{
glyphname = S;
layers = (
{
layerId = "FE27A893-8D3D-4D0E-A6EA-BC9D15131593";
name = "Regular Italic";
paths = (
{
closed = 1;
nodes = (
"1212.8 1433.76 OFFCURVE",
"1213.8 1431.76 OFFCURVE",
"1214.8 1430.76 CURVE",
"1215.8 1428.76 OFFCURVE",
"1215.8 1426.76 OFFCURVE",
"1216.8 1425.76 CURVE",
"1079.82 1461.76 OFFCURVE",
"937.844 1479.75 OFFCURVE",
"792.868 1479.75 CURVE SMOOTH",
"727.879 1479.75 OFFCURVE",
"660.89 1475.75 OFFCURVE",
"595.901 1461.76 CURVE SMOOTH",
"530.912 1447.76 OFFCURVE",
"467.922 1422.76 OFFCURVE",
"411.931 1383.77 CURVE SMOOTH",
"358.94 1346.78 OFFCURVE",
"323.946 1296.78 OFFCURVE",
"301.95 1240.79 CURVE SMOOTH",
"279.953 1184.8 OFFCURVE",
"269.955 1123.81 OFFCURVE",
"269.955 1066.82 CURVE SMOOTH",
"269.955 1023.83 OFFCURVE",
"275.954 981.837 OFFCURVE",
"286.952 940.843 CURVE SMOOTH",
"308.949 858.857 OFFCURVE",
"361.94 809.865 OFFCURVE",
"406.932 780.87 CURVE SMOOTH",
"451.925 751.875 OFFCURVE",
"502.916 731.878 OFFCURVE",
"555.907 716.881 CURVE SMOOTH",
"607.899 700.883 OFFCURVE",
"646.892 692.885 OFFCURVE",
"697.884 683.886 CURVE SMOOTH",
"722.88 678.887 OFFCURVE",
"749.875 672.888 OFFCURVE",
"777.871 665.889 CURVE SMOOTH",
"832.861 650.892 OFFCURVE",
"891.852 628.895 OFFCURVE",
"935.844 596.901 CURVE SMOOTH",
"979.837 564.906 OFFCURVE",
"1010.83 520.913 OFFCURVE",
"1010.83 461.923 CURVE SMOOTH",
"1010.83 430.928 OFFCURVE",
"997.834 403.933 OFFCURVE",
"977.837 379.937 CURVE SMOOTH",
"957.841 355.941 OFFCURVE",
"931.845 335.944 OFFCURVE",
"907.849 319.947 CURVE SMOOTH",
"827.862 267.955 OFFCURVE",
"733.878 254.958 OFFCURVE",
"642.893 254.958 CURVE SMOOTH",
"487.919 254.958 OFFCURVE",
"341.943 290.952 OFFCURVE",
"212.965 366.939 CURVE",
"200.967 267.955 OFFCURVE",
"185.969 172.971 OFFCURVE",
"169.972 73.9877 CURVE",
"314.948 30.9948 OFFCURVE",
"464.923 9.99834 OFFCURVE",
"619.897 9.99834 CURVE SMOOTH",
"690.885 10.9982 OFFCURVE",
"764.873 14.9975 OFFCURVE",
"837.861 27.9953 CURVE SMOOTH",
"909.849 40.9932 OFFCURVE",
"980.837 65.989 OFFCURVE",
"1048.83 110.982 CURVE",
"1104.82 150.975 OFFCURVE",
"1139.81 205.966 OFFCURVE",
"1160.81 265.956 CURVE SMOOTH",
"1181.8 325.946 OFFCURVE",
"1189.8 391.935 OFFCURVE",
"1189.8 451.925 CURVE SMOOTH",
"1189.8 567.905 OFFCURVE",
"1148.81 679.887 OFFCURVE",
"1048.83 750.875 CURVE SMOOTH",
"1023.83 767.872 OFFCURVE",
"996.834 782.87 OFFCURVE",
"968.839 793.868 CURVE SMOOTH",
"911.848 816.864 OFFCURVE",
"852.858 831.862 OFFCURVE",
"792.868 843.86 CURVE SMOOTH",
"761.873 849.859 OFFCURVE",
"731.878 855.858 OFFCURVE",
"702.883 862.856 CURVE SMOOTH",
"626.896 878.854 OFFCURVE",
"550.908 895.851 OFFCURVE",
"490.918 943.843 CURVE",
"454.924 978.837 OFFCURVE",
"442.926 1029.83 OFFCURVE",
"442.926 1080.82 CURVE SMOOTH",
"442.926 1156.81 OFFCURVE",
"470.922 1233.79 OFFCURVE",
"553.908 1286.79 CURVE",
"632.895 1329.78 OFFCURVE",
"718.88 1339.78 OFFCURVE",
"802.866 1339.78 CURVE SMOOTH",
"937.844 1339.78 OFFCURVE",
"1063.82 1305.78 OFFCURVE",
"1184.8 1254.79 CURVE",
"1188.8 1284.79 OFFCURVE",
"1192.8 1314.78 OFFCURVE",
"1197.8 1344.78 CURVE SMOOTH",
"1202.8 1374.77 OFFCURVE",
"1206.8 1404.77 OFFCURVE",
"1211.8 1434.76 CURVE"
);
}
);
width = 1375;
}
);
unicode = 0053;
},
{
glyphname = T;
layers = (
{
layerId = "FE27A893-8D3D-4D0E-A6EA-BC9D15131593";
name = "Regular Italic";
paths = (
{
closed = 1;
nodes = (
"348.942 1432.76 OFFCURVE",
"349.942 1383.77 OFFCURVE",
"349.942 1332.78 CURVE",
"444.926 1325.78 OFFCURVE",
"537.91 1324.78 OFFCURVE",
"633.894 1324.78 CURVE SMOOTH",
"710.882 1324.78 OFFCURVE",
"787.869 1325.78 OFFCURVE",
"865.856 1327.78 CURVE",
"820.863 895.851 OFFCURVE",
"770.872 468.922 OFFCURVE",
"711.882 36.9938 CURVE",
"736.877 36.9938 OFFCURVE",
"762.873 36.9938 OFFCURVE",
"787.869 37.9937 CURVE",
"812.865 37.9937 OFFCURVE",
"838.86 37.9937 OFFCURVE",
"863.856 37.9937 CURVE SMOOTH",
"882.853 37.9937 OFFCURVE",
"901.85 37.9937 OFFCURVE",
"920.847 37.9937 CURVE SMOOTH",
"938.844 37.9937 OFFCURVE",
"956.841 37.9937 OFFCURVE",
"975.838 36.9938 CURVE",
"986.836 468.922 OFFCURVE",
"1014.83 895.851 OFFCURVE",
"1045.83 1328.78 CURVE",
"1113.81 1325.78 OFFCURVE",
"1181.8 1324.78 OFFCURVE",
"1250.79 1324.78 CURVE SMOOTH",
"1354.77 1324.78 OFFCURVE",
"1458.76 1327.78 OFFCURVE",
"1562.74 1331.78 CURVE",
"1570.74 1382.77 OFFCURVE",
"1580.74 1432.76 OFFCURVE",
"1591.74 1483.75 CURVE",
"1376.77 1463.76 OFFCURVE",
"1166.81 1452.76 OFFCURVE",
"951.842 1452.76 CURVE SMOOTH",
"748.875 1452.76 OFFCURVE",
"548.909 1462.76 OFFCURVE",
"347.942 1483.75 CURVE"
);
}
);
width = 1547;
}
);
unicode = 0054;
},
{
glyphname = U;
layers = (
{
layerId = "FE27A893-8D3D-4D0E-A6EA-BC9D15131593";
name = "Regular Italic";
paths = (
{
closed = 1;
nodes = (
"346.942 1127.81 OFFCURVE",
"329.945 847.859 OFFCURVE",
"300.95 560.907 CURVE SMOOTH",
"296.951 517.914 OFFCURVE",
"293.951 475.921 OFFCURVE",
"293.951 432.928 CURVE SMOOTH",
"293.951 377.937 OFFCURVE",
"298.95 324.946 OFFCURVE",
"312.948 273.954 CURVE SMOOTH",
"326.946 221.963 OFFCURVE",
"350.942 173.971 OFFCURVE",
"387.935 130.978 CURVE SMOOTH",
"435.927 78.9869 OFFCURVE",
"498.917 49.9917 OFFCURVE",
"567.905 31.9947 CURVE SMOOTH",
"635.894 13.9977 OFFCURVE",
"709.882 8.9985 OFFCURVE",
"780.87 8.9985 CURVE SMOOTH",
"852.858 8.9985 OFFCURVE",
"929.845 14.9975 OFFCURVE",
"1002.83 34.9942 CURVE SMOOTH",
"1075.82 54.9908 OFFCURVE",
"1147.81 88.9852 OFFCURVE",
"1208.8 147.975 CURVE",
"1261.79 203.966 OFFCURVE",
"1295.78 271.955 OFFCURVE",
"1317.78 343.943 CURVE SMOOTH",
"1339.78 414.931 OFFCURVE",
"1349.78 488.919 OFFCURVE",
"1354.77 560.907 CURVE SMOOTH",
"1377.77 869.855 OFFCURVE",
"1410.77 1174.8 OFFCURVE",
"1470.76 1482.75 CURVE",
"1439.76 1479.75 OFFCURVE",
"1409.77 1475.75 OFFCURVE",
"1378.77 1472.75 CURVE SMOOTH",
"1347.78 1469.76 OFFCURVE",
"1317.78 1466.76 OFFCURVE",
"1286.79 1465.76 CURVE",
"1245.79 1217.8 OFFCURVE",
"1219.8 973.838 OFFCURVE",
"1196.8 725.879 CURVE SMOOTH",
"1191.8 666.889 OFFCURVE",
"1183.8 606.899 OFFCURVE",
"1167.81 547.909 CURVE SMOOTH",
"1151.81 487.919 OFFCURVE",
"1126.81 431.928 OFFCURVE",
"1086.82 383.936 CURVE",
"1050.83 343.943 OFFCURVE",
"1004.83 317.947 OFFCURVE",
"955.841 302.95 CURVE SMOOTH",
"906.849 287.952 OFFCURVE",
"852.858 282.953 OFFCURVE",
"803.866 282.953 CURVE SMOOTH",
"754.874 282.953 OFFCURVE",
"701.883 286.952 OFFCURVE",
"654.891 302.95 CURVE SMOOTH",
"606.899 317.947 OFFCURVE",
"564.906 342.943 OFFCURVE",
"535.911 383.936 CURVE",
"491.918 451.925 OFFCURVE",
"480.92 531.911 OFFCURVE",
"480.92 615.897 CURVE SMOOTH",
"480.92 651.891 OFFCURVE",
"482.92 688.885 OFFCURVE",
"485.919 724.879 CURVE SMOOTH",
"506.916 972.838 OFFCURVE",
"522.913 1215.8 OFFCURVE",
"527.912 1463.76 CURVE",
"466.922 1468.76 OFFCURVE",
"406.932 1474.75 OFFCURVE",
"346.942 1482.75 CURVE",
"346.942 1412.76 LINE SMOOTH"
);
}
);
width = 1515;
}
);
unicode = 0055;
},
{
glyphname = V;
layers = (
{
layerId = "FE27A893-8D3D-4D0E-A6EA-BC9D15131593";
name = "Regular Italic";
paths = (
{
closed = 1;
nodes = (
"763.873 36.9938 OFFCURVE",
"793.868 36.9938 OFFCURVE",
"824.863 37.9937 CURVE SMOOTH",
"854.858 37.9937 OFFCURVE",
"884.853 37.9937 OFFCURVE",
"915.848 37.9937 CURVE SMOOTH",
"938.844 37.9937 OFFCURVE",
"960.84 37.9937 OFFCURVE",
"982.836 37.9937 CURVE SMOOTH",
"1004.83 37.9937 OFFCURVE",
"1026.83 37.9937 OFFCURVE",
"1049.83 36.9938 CURVE",
"1098.82 158.974 OFFCURVE",
"1148.81 280.953 OFFCURVE",
"1197.8 402.933 CURVE SMOOTH",
"1246.79 524.913 OFFCURVE",
"1296.78 646.892 OFFCURVE",
"1348.78 767.872 CURVE SMOOTH",
"1451.76 1010.83 OFFCURVE",
"1560.74 1250.79 OFFCURVE",
"1687.72 1483.75 CURVE",
"1655.72 1480.75 OFFCURVE",
"1623.73 1478.75 OFFCURVE",
"1592.73 1475.75 CURVE SMOOTH",
"1560.74 1472.75 OFFCURVE",
"1528.75 1470.76 OFFCURVE",
"1496.75 1468.76 CURVE",
"1443.76 1379.77 OFFCURVE",
"1391.77 1288.79 OFFCURVE",
"1342.78 1197.8 CURVE SMOOTH",
"1243.79 1014.83 OFFCURVE",
"1150.81 830.862 OFFCURVE",
"1058.82 644.893 CURVE SMOOTH",
"1011.83 551.908 OFFCURVE",
"965.839 458.924 OFFCURVE",
"918.847 366.939 CURVE",
"887.852 458.924 OFFCURVE",
"857.857 550.908 OFFCURVE",
"827.862 643.893 CURVE SMOOTH",
"797.867 736.877 OFFCURVE",
"767.872 828.862 OFFCURVE",
"736.877 920.847 CURVE SMOOTH",
"674.888 1104.82 OFFCURVE",
"607.899 1287.79 OFFCURVE",
"534.911 1467.76 CURVE",
"470.922 1471.76 OFFCURVE",
"410.932 1476.75 OFFCURVE",
"347.942 1483.75 CURVE",
"389.935 1366.77 OFFCURVE",
"427.929 1247.79 OFFCURVE",
"461.923 1128.81 CURVE SMOOTH",
"529.912 888.852 OFFCURVE",
"589.902 645.893 OFFCURVE",
"646.892 401.933 CURVE SMOOTH",
"674.888 279.953 OFFCURVE",
"703.883 157.974 OFFCURVE",
"733.878 36.9938 CURVE"
);
}
);
width = 1639;
}
);
unicode = 0056;
},
{
glyphname = W;
layers = (
{
layerId = "FE27A893-8D3D-4D0E-A6EA-BC9D15131593";
name = "Regular Italic";
paths = (
{
closed = 1;
nodes = (
"415.931 1248.79 OFFCURVE",
"460.923 1008.83 OFFCURVE",
"491.918 764.873 CURVE SMOOTH",
"522.913 520.913 OFFCURVE",
"539.91 273.954 OFFCURVE",
"548.909 26.9955 CURVE",
"648.892 30.9948 OFFCURVE",
"748.875 33.9943 OFFCURVE",
"849.859 34.9942 CURVE",
"982.836 297.95 OFFCURVE",
"1102.82 561.906 OFFCURVE",
"1222.8 829.862 CURVE",
"1289.79 562.906 OFFCURVE",
"1351.78 294.951 OFFCURVE",
"1438.76 35.994 CURVE",
"1484.75 34.9942 OFFCURVE",
"1530.75 33.9943 OFFCURVE",
"1577.74 32.9945 CURVE SMOOTH",
"1624.73 31.9947 OFFCURVE",
"1670.72 29.995 OFFCURVE",
"1717.71 28.9952 CURVE",
"1774.7 276.954 OFFCURVE",
"1840.69 523.913 OFFCURVE",
"1921.68 767.872 CURVE SMOOTH",
"2001.67 1011.83 OFFCURVE",
"2097.65 1251.79 OFFCURVE",
"2213.63 1483.75 CURVE",
"2184.64 1482.75 OFFCURVE",
"2155.64 1480.75 OFFCURVE",
"2127.65 1478.75 CURVE SMOOTH",
"2098.65 1476.75 OFFCURVE",
"2069.66 1474.75 OFFCURVE",
"2039.66 1473.75 CURVE",
"1850.69 1122.81 OFFCURVE",
"1705.72 753.875 OFFCURVE",
"1572.74 384.936 CURVE",
"1526.75 500.917 OFFCURVE",
"1483.75 617.897 OFFCURVE",
"1442.76 734.878 CURVE SMOOTH",
"1401.77 851.858 OFFCURVE",
"1360.77 968.839 OFFCURVE",
"1318.78 1086.82 CURVE",
"1161.81 1086.82 LINE",
"1092.82 972.838 OFFCURVE",
"1025.83 858.857 OFFCURVE",
"960.84 744.876 CURVE SMOOTH",
"894.851 630.895 OFFCURVE",
"826.862 516.914 OFFCURVE",
"755.874 403.933 CURVE",
"727.879 584.903 OFFCURVE",
"696.884 764.873 OFFCURVE",
"658.89 943.843 CURVE SMOOTH",
"620.897 1122.81 OFFCURVE",
"575.904 1299.78 OFFCURVE",
"518.914 1471.76 CURVE",
"462.923 1475.75 OFFCURVE",
"404.933 1479.75 OFFCURVE",
"347.942 1483.75 CURVE"
);
}
);
width = 2165;
}
);
unicode = 0057;
},
{
glyphname = X;
layers = (
{
layerId = "FE27A893-8D3D-4D0E-A6EA-BC9D15131593";
name = "Regular Italic";
paths = (
{
closed = 1;
nodes = (
"482.92 1220.8 OFFCURVE",
"601.9 961.84 OFFCURVE",
"724.879 697.884 CURVE",
"535.911 464.923 OFFCURVE",
"348.942 236.961 OFFCURVE",
"152.975 9.99834 CURVE",
"253.958 20.9965 OFFCURVE",
"355.941 26.9955 OFFCURVE",
"455.924 30.9948 CURVE",
"582.903 205.966 OFFCURVE",
"702.883 381.936 OFFCURVE",
"821.863 562.906 CURVE",
"908.849 382.936 OFFCURVE",
"995.834 206.966 OFFCURVE",
"1092.82 31.9947 CURVE",
"1193.8 26.9955 OFFCURVE",
"1292.78 20.9965 OFFCURVE",
"1392.77 9.99834 CURVE",
"1237.79 233.961 OFFCURVE",
"1098.82 464.923 OFFCURVE",
"957.841 697.884 CURVE",
"1130.81 962.84 OFFCURVE",
"1301.78 1224.8 OFFCURVE",
"1490.75 1480.75 CURVE",
"1458.76 1477.75 OFFCURVE",
"1426.76 1475.75 OFFCURVE",
"1393.77 1472.75 CURVE SMOOTH",
"1360.77 1469.76 OFFCURVE",
"1328.78 1466.76 OFFCURVE",
"1296.78 1465.76 CURVE",
"1143.81 1257.79 OFFCURVE",
"1001.83 1047.83 OFFCURVE",
"858.857 832.861 CURVE",
"754.874 1045.83 OFFCURVE",
"650.892 1254.79 OFFCURVE",
"537.91 1461.76 CURVE",
"505.916 1464.76 OFFCURVE",
"473.921 1466.76 OFFCURVE",
"441.926 1468.76 CURVE SMOOTH",
"409.932 1470.76 OFFCURVE",
"377.937 1473.75 OFFCURVE",
"345.942 1476.75 CURVE"
);
}
);
width = 1658;
}
);
unicode = 0058;
},
{
glyphname = Y;
layers = (
{
layerId = "FE27A893-8D3D-4D0E-A6EA-BC9D15131593";
name = "Regular Italic";
paths = (
{
closed = 1;
nodes = (
"496.917 1167.81 OFFCURVE",
"622.896 846.859 OFFCURVE",
"751.875 521.913 CURVE",
"735.878 358.94 OFFCURVE",
"719.88 199.967 OFFCURVE",
"702.883 36.9938 CURVE",
"727.879 36.9938 OFFCURVE",
"751.875 36.9938 OFFCURVE",
"776.871 37.9937 CURVE",
"800.867 37.9937 OFFCURVE",
"824.863 37.9937 OFFCURVE",
"848.859 37.9937 CURVE SMOOTH",
"866.856 37.9937 OFFCURVE",
"884.853 37.9937 OFFCURVE",
"902.85 37.9937 CURVE SMOOTH",
"920.847 37.9937 OFFCURVE",
"938.844 37.9937 OFFCURVE",
"956.841 36.9938 CURVE",
"965.839 199.967 OFFCURVE",
"975.838 359.94 OFFCURVE",
"990.835 522.913 CURVE",
"1085.82 684.886 OFFCURVE",
"1179.8 846.859 OFFCURVE",
"1274.79 1008.83 CURVE SMOOTH",
"1368.77 1169.81 OFFCURVE",
"1468.76 1328.78 OFFCURVE",
"1573.74 1483.75 CURVE",
"1508.75 1476.75 OFFCURVE",
"1443.76 1470.76 OFFCURVE",
"1378.77 1467.76 CURVE",
"1206.8 1218.8 OFFCURVE",
"1050.83 964.839 OFFCURVE",
"893.851 707.882 CURVE",
"780.87 963.84 OFFCURVE",
"667.889 1216.8 OFFCURVE",
"539.91 1465.76 CURVE",
"507.915 1468.76 OFFCURVE",
"475.921 1470.76 OFFCURVE",
"443.926 1473.75 CURVE SMOOTH",
"411.931 1476.75 OFFCURVE",
"379.937 1479.75 OFFCURVE",
"347.942 1483.75 CURVE"
);
}
);
width = 1525;
}
);
unicode = 0059;
},
{
glyphname = Z;
layers = (
{
layerId = "FE27A893-8D3D-4D0E-A6EA-BC9D15131593";
name = "Regular Italic";
paths = (
{
closed = 1;
nodes = (
"526.912 1313.78 OFFCURVE",
"704.883 1307.78 OFFCURVE",
"887.852 1307.78 CURVE SMOOTH",
"1011.83 1307.78 OFFCURVE",
"1132.81 1310.78 OFFCURVE",
"1257.79 1315.78 CURVE",
"912.848 972.838 OFFCURVE",
"578.904 631.895 OFFCURVE",
"242.96 280.953 CURVE",
"227.962 189.968 OFFCURVE",
"213.964 100.983 OFFCURVE",
"194.968 9.99834 CURVE",
"397.934 28.9952 OFFCURVE",
"596.901 37.9937 OFFCURVE",
"797.867 37.9937 CURVE SMOOTH",
"998.834 37.9937 OFFCURVE",
"1195.8 28.9952 OFFCURVE",
"1394.77 9.99834 CURVE",
"1392.77 69.9883 OFFCURVE",
"1391.77 129.978 OFFCURVE",
"1391.77 190.968 CURVE SMOOTH",
"1391.77 207.965 OFFCURVE",
"1391.77 223.963 OFFCURVE",
"1391.77 240.96 CURVE SMOOTH",
"1391.77 257.957 OFFCURVE",
"1391.77 273.954 OFFCURVE",
"1392.77 290.952 CURVE",
"1207.8 302.95 OFFCURVE",
"1025.83 307.949 OFFCURVE",
"838.86 307.949 CURVE SMOOTH",
"709.882 307.949 OFFCURVE",
"582.903 304.949 OFFCURVE",
"453.924 300.95 CURVE",
"625.896 473.921 OFFCURVE",
"795.868 647.892 OFFCURVE",
"964.839 820.863 CURVE SMOOTH",
"1132.81 993.835 OFFCURVE",
"1302.78 1166.81 OFFCURVE",
"1474.75 1339.78 CURVE",
"1479.75 1362.77 OFFCURVE",
"1483.75 1386.77 OFFCURVE",
"1487.75 1410.77 CURVE SMOOTH",
"1491.75 1434.76 OFFCURVE",
"1495.75 1458.76 OFFCURVE",
"1500.75 1481.75 CURVE",
"1301.78 1462.76 OFFCURVE",
"1104.82 1453.76 OFFCURVE",
"905.849 1453.76 CURVE SMOOTH",
"717.88 1453.76 OFFCURVE",
"533.911 1461.76 OFFCURVE",
"346.942 1480.75 CURVE",
"346.942 1430.76 LINE",
"346.942 1329.78 LINE"
);
}
);
width = 1660;
}
);
unicode = 005A;
},
{
glyphname = bracketleft;
layers = (
{
layerId = "FE27A893-8D3D-4D0E-A6EA-BC9D15131593";
name = "Regular Italic";
paths = (
{
closed = 1;
nodes = (
"324.946 940.843 OFFCURVE",
"273.954 344.943 OFFCURVE",
"202.966 -260 CURVE",
"270.955 -237 OFFCURVE",
"340.943 -226 OFFCURVE",
"409.932 -226 CURVE SMOOTH",
"477.92 -226 OFFCURVE",
"543.909 -237 OFFCURVE",
"606.899 -260 CURVE",
"608.899 -226 OFFCURVE",
"610.898 -192 OFFCURVE",
"612.898 -158 CURVE SMOOTH",
"613.898 -124 OFFCURVE",
"615.897 -90 OFFCURVE",
"618.897 -56 CURVE",
"557.907 -36 OFFCURVE",
"491.918 -31 OFFCURVE",
"424.929 -31 CURVE SMOOTH",
"387.935 -31 LINE",
"431.928 444.926 OFFCURVE",
"471.921 913.848 OFFCURVE",
"510.915 1389.77 CURVE",
"515.914 1388.77 OFFCURVE",
"521.913 1388.77 OFFCURVE",
"527.912 1388.77 CURVE SMOOTH",
"533.911 1388.77 OFFCURVE",
"539.91 1388.77 OFFCURVE",
"544.909 1388.77 CURVE SMOOTH",
"613.898 1388.77 OFFCURVE",
"681.886 1397.77 OFFCURVE",
"749.875 1420.76 CURVE",
"751.875 1441.76 OFFCURVE",
"753.875 1462.76 OFFCURVE",
"756.874 1483.75 CURVE SMOOTH",
"759.874 1503.75 OFFCURVE",
"761.873 1524.75 OFFCURVE",
"764.873 1545.74 CURVE",
"696.884 1521.75 OFFCURVE",
"624.896 1507.75 OFFCURVE",
"552.908 1507.75 CURVE SMOOTH",
"484.919 1507.75 OFFCURVE",
"420.93 1518.75 OFFCURVE",
"360.94 1545.74 CURVE"
);
}
);
width = 929;
}
);
unicode = 005B;
},
{
glyphname = backslash;
layers = (
{
layerId = "FE27A893-8D3D-4D0E-A6EA-BC9D15131593";
name = "Regular Italic";
paths = (
{
closed = 1;
nodes = (
"442.926 1456.76 OFFCURVE",
"393.934 1465.76 OFFCURVE",
"346.942 1481.75 CURVE",
"397.934 1206.8 OFFCURVE",
"440.927 932.845 OFFCURVE",
"484.919 656.891 CURVE SMOOTH",
"527.912 380.937 OFFCURVE",
"570.905 104.983 OFFCURVE",
"619.897 -168 CURVE",
"683.886 -173 OFFCURVE",
"742.876 -189 OFFCURVE",
"805.866 -204 CURVE",
"746.876 68.9885 OFFCURVE",
"696.884 345.942 OFFCURVE",
"647.892 622.896 CURVE SMOOTH",
"598.9 898.85 OFFCURVE",
"548.909 1174.8 OFFCURVE",
"491.918 1449.76 CURVE"
);
}
);
width = 1116;
}
);
unicode = 005C;
},
{
glyphname = bracketright;
layers = (
{
layerId = "FE27A893-8D3D-4D0E-A6EA-BC9D15131593";
name = "Regular Italic";
paths = (
{
closed = 1;
nodes = (
"696.884 1521.75 OFFCURVE",
"624.896 1507.75 OFFCURVE",
"552.908 1507.75 CURVE SMOOTH",
"484.919 1507.75 OFFCURVE",
"420.93 1518.75 OFFCURVE",
"360.94 1545.74 CURVE",
"359.94 1524.75 OFFCURVE",
"357.94 1503.75 OFFCURVE",
"356.941 1483.75 CURVE SMOOTH",
"355.941 1462.76 OFFCURVE",
"353.941 1441.76 OFFCURVE",
"352.941 1420.76 CURVE",
"412.931 1395.77 OFFCURVE",
"476.921 1388.77 OFFCURVE",
"543.909 1388.77 CURVE SMOOTH",
"550.908 1388.77 OFFCURVE",
"556.907 1388.77 OFFCURVE",
"563.906 1388.77 CURVE SMOOTH",
"570.905 1388.77 OFFCURVE",
"577.904 1388.77 OFFCURVE",
"584.903 1389.77 CURVE",
"540.91 909.849 OFFCURVE",
"498.917 439.927 OFFCURVE",
"458.924 -40 CURVE",
"426.929 -40 LINE SMOOTH",
"358.94 -40 OFFCURVE",
"292.951 -47 OFFCURVE",
"224.963 -66 CURVE",
"221.963 -99 OFFCURVE",
"217.964 -131 OFFCURVE",
"213.964 -163 CURVE SMOOTH",
"209.965 -195 OFFCURVE",
"205.966 -227 OFFCURVE",
"202.966 -260 CURVE",
"270.955 -237 OFFCURVE",
"340.943 -226 OFFCURVE",
"409.932 -226 CURVE SMOOTH",
"477.92 -226 OFFCURVE",
"543.909 -237 OFFCURVE",
"606.899 -260 CURVE",
"639.893 344.943 OFFCURVE",
"693.885 940.843 OFFCURVE",
"764.873 1545.74 CURVE"
);
}
);
width = 929;
}
);
unicode = 005D;
},
{
glyphname = asciicircum;
layers = (
{
layerId = "FE27A893-8D3D-4D0E-A6EA-BC9D15131593";
name = "Regular Italic";
paths = (
{
closed = 1;
nodes = (
"772.871 1428.76 OFFCURVE",
"724.879 1383.77 OFFCURVE",
"677.887 1337.78 CURVE SMOOTH",
"629.895 1291.79 OFFCURVE",
"581.903 1246.79 OFFCURVE",
"533.911 1201.8 CURVE SMOOTH",
"437.927 1111.81 OFFCURVE",
"339.943 1024.83 OFFCURVE",
"232.961 945.843 CURVE",
"279.953 946.842 OFFCURVE",
"326.946 948.842 OFFCURVE",
"373.938 949.842 CURVE SMOOTH",
"420.93 950.842 OFFCURVE",
"466.922 951.842 OFFCURVE",
"513.914 952.841 CURVE",
"548.909 987.836 OFFCURVE",
"581.903 1022.83 OFFCURVE",
"613.898 1059.82 CURVE SMOOTH",
"676.887 1132.81 OFFCURVE",
"736.877 1209.8 OFFCURVE",
"796.867 1286.79 CURVE SMOOTH",
"826.862 1324.78 OFFCURVE",
"857.857 1362.77 OFFCURVE",
"888.852 1399.77 CURVE",
"912.848 1362.77 OFFCURVE",
"936.844 1324.78 OFFCURVE",
"959.84 1285.79 CURVE SMOOTH",
"982.836 1246.79 OFFCURVE",
"1005.83 1208.8 OFFCURVE",
"1029.83 1170.81 CURVE SMOOTH",
"1077.82 1094.82 OFFCURVE",
"1126.81 1021.83 OFFCURVE",
"1185.8 953.841 CURVE",
"1232.79 952.841 OFFCURVE",
"1279.79 951.842 OFFCURVE",
"1326.78 950.842 CURVE SMOOTH",
"1373.77 949.842 OFFCURVE",
"1419.76 947.842 OFFCURVE",
"1466.76 945.843 CURVE",
"1419.76 983.836 OFFCURVE",
"1374.77 1024.83 OFFCURVE",
"1332.78 1067.82 CURVE SMOOTH",
"1247.79 1153.81 OFFCURVE",
"1167.81 1243.79 OFFCURVE",
"1089.82 1336.78 CURVE SMOOTH",
"1050.83 1382.77 OFFCURVE",
"1010.83 1427.76 OFFCURVE",
"969.839 1472.75 CURVE",
"821.863 1472.75 LINE"
);
}
);
width = 1533;
}
);
unicode = 005E;
},
{
glyphname = underscore;
layers = (
{
layerId = "FE27A893-8D3D-4D0E-A6EA-BC9D15131593";
name = "Regular Italic";
paths = (
{
closed = 1;
nodes = (
"1007.83 -313 OFFCURVE",
"825.863 -314 OFFCURVE",
"640.893 -314 CURVE SMOOTH",
"475.921 -314 OFFCURVE",
"312.948 -313 OFFCURVE",
"147.975 -313 CURVE SMOOTH",
"147.975 -313 LINE SMOOTH",
"147.975 -313 OFFCURVE",
"147.975 -313 OFFCURVE",
"-37 -313 CURVE",
"-20 -332 OFFCURVE",
"-11 -357 OFFCURVE",
"-11 -384 CURVE SMOOTH",
"-11 -416 OFFCURVE",
"-23 -449 OFFCURVE",
"-50 -473 CURVE",
"-48 -473 OFFCURVE",
"124.979 -472 OFFCURVE",
"299.95 -472 CURVE SMOOTH",
"473.921 -472 OFFCURVE",
"647.892 -473 OFFCURVE",
"821.863 -473 CURVE",
"821.863 -473 LINE SMOOTH",
"821.863 -473 OFFCURVE",
"821.863 -473 OFFCURVE",
"994.834 -473 CURVE",
"975.838 -456 OFFCURVE",
"967.839 -432 OFFCURVE",
"967.839 -405 CURVE SMOOTH",
"967.839 -372 OFFCURVE",
"982.836 -336 OFFCURVE",
"1009.83 -313 CURVE",
"1010.83 -313 LINE"
);
}
);
width = 1363;
}
);
unicode = 005F;
},
{
glyphname = a;
lastChange = "2013-01-13 11:03:22 -0500";
layers = (
{
layerId = "FE27A893-8D3D-4D0E-A6EA-BC9D15131593";
name = "Regular Italic";
paths = (
{
closed = 1;
nodes = (
"1070 1096 OFFCURVE",
"996 1123 OFFCURVE",
"995.834 1122.81 CURVE",
"995.834 1122.81 OFFCURVE",
"1007 1049 OFFCURVE",
"977.837 885.853 CURVE",
"978 873 OFFCURVE",
"967 901 OFFCURVE",
"945 940 CURVE",
"901 1012 OFFCURVE",
"875.854 1042.83 OFFCURVE",
"823.863 1073.82 CURVE SMOOTH",
"770.872 1104.82 OFFCURVE",
"708.882 1119.81 OFFCURVE",
"644.893 1119.81 CURVE SMOOTH",
"627.896 1119.81 LINE",
"615.897 1119.81 LINE SMOOTH",
"559.907 1119.81 OFFCURVE",
"501.916 1106.82 OFFCURVE",
"449.925 1081.82 CURVE SMOOTH",
"396.934 1056.82 OFFCURVE",
"348.942 1020.83 OFFCURVE",
"311.948 973.838 CURVE SMOOTH",
"248.959 898.85 OFFCURVE",
"208.965 808.865 OFFCURVE",
"184.969 715.881 CURVE SMOOTH",
"160.973 622.896 OFFCURVE",
"151.975 526.912 OFFCURVE",
"151.975 442.926 CURVE SMOOTH",
"151.975 337.944 OFFCURVE",
"169.972 236.961 OFFCURVE",
"226.962 149.975 CURVE SMOOTH",
"287.952 57.9903 OFFCURVE",
"394.934 8.9985 OFFCURVE",
"509.915 8.9985 CURVE SMOOTH",
"533 9 OFFCURVE",
"507 9 OFFCURVE",
"545 9 CURVE SMOOTH",
"617 9 OFFCURVE",
"687.885 29.995 OFFCURVE",
"751.875 65.989 CURVE SMOOTH",
"814.864 101.983 OFFCURVE",
"868.855 154.974 OFFCURVE",
"905.849 219.963 CURVE",
"903.85 187.969 OFFCURVE",
"902.85 155.974 OFFCURVE",
"901.85 123.979 CURVE SMOOTH",
"900.85 91.9847 OFFCURVE",
"899.85 59.99 OFFCURVE",
"898.85 27.9953 CURVE",
"925.846 24.9958 OFFCURVE",
"952.841 22.9962 OFFCURVE",
"979.837 20.9965 CURVE SMOOTH",
"1006.83 18.9968 OFFCURVE",
"1033.83 15.9973 OFFCURVE",
"1060.82 11.998 CURVE",
"1037 556 OFFCURVE",
"1037 600 OFFCURVE",
"1151 1123 CURVE"
);
},
{
closed = 1;
nodes = (
"670.888 1010.83 OFFCURVE",
"719.88 992.835 OFFCURVE",
"757.874 959.84 CURVE SMOOTH",
"795.868 926.846 OFFCURVE",
"823.863 878.854 OFFCURVE",
"835.861 821.863 CURVE SMOOTH",
"846.859 768.872 OFFCURVE",
"851.858 713.881 OFFCURVE",
"851.858 657.891 CURVE SMOOTH",
"851.858 617.897 OFFCURVE",
"849.859 561.906 OFFCURVE",
"836.861 506.916 CURVE SMOOTH",
"823.863 450.925 OFFCURVE",
"799.867 396.934 OFFCURVE",
"754.874 363.939 CURVE",
"689.885 320.947 OFFCURVE",
"609.898 315.947 OFFCURVE",
"536.911 312.948 CURVE",
"499.917 312.948 OFFCURVE",
"461.923 315.947 OFFCURVE",
"425.929 323.946 CURVE SMOOTH",
"389.935 331.945 OFFCURVE",
"356.941 345.942 OFFCURVE",
"329.945 372.938 CURVE",
"277 418 OFFCURVE",
"266 505 OFFCURVE",
"266 581 CURVE",
"266 623 OFFCURVE",
"282.953 711.882 OFFCURVE",
"306.949 775.871 CURVE SMOOTH",
"330.945 839.86 OFFCURVE",
"364.939 897.851 OFFCURVE",
"411.931 940.843 CURVE SMOOTH",
"458.924 983.836 OFFCURVE",
"517.914 1010.83 OFFCURVE",
"592.901 1010.83 CURVE SMOOTH",
"603.899 1010.83 LINE",
"617.897 1010.83 LINE SMOOTH"
);
}
);
width = 1263;
}
);
unicode = 0061;
},
{
glyphname = b;
layers = (
{
layerId = "FE27A893-8D3D-4D0E-A6EA-BC9D15131593";
name = "Regular Italic";
paths = (
{
closed = 1;
nodes = (
"1107.82 561.906 OFFCURVE",
"1095.82 517.914 OFFCURVE",
"1079.82 477.92 CURVE SMOOTH",
"1062.82 436.927 OFFCURVE",
"1038.83 398.934 OFFCURVE",
"1002.83 369.938 CURVE",
"942.843 328.945 OFFCURVE",
"873.855 309.948 OFFCURVE",
"802.866 305.949 CURVE",
"763.873 305.949 OFFCURVE",
"723.88 309.948 OFFCURVE",
"684.886 321.946 CURVE SMOOTH",
"645.893 333.944 OFFCURVE",
"610.898 354.941 OFFCURVE",
"579.904 387.935 CURVE",
"534.911 444.926 OFFCURVE",
"525.912 521.913 OFFCURVE",
"522.913 594.901 CURVE",
"531.911 701.883 OFFCURVE",
"558.907 812.865 OFFCURVE",
"629.895 903.85 CURVE SMOOTH",
"689.885 979.837 OFFCURVE",
"780.87 1013.83 OFFCURVE",
"872.855 1013.83 CURVE SMOOTH",
"971.838 1013.83 OFFCURVE",
"1032.83 965.839 OFFCURVE",
"1069.82 896.851 CURVE SMOOTH",
"1105.82 827.862 OFFCURVE",
"1117.81 735.878 OFFCURVE",
"1117.81 650.892 CURVE SMOOTH",
"1117.81 642.893 OFFCURVE",
"1117.81 634.894 OFFCURVE",
"1117.81 627.896 CURVE",
"1116.81 619.897 OFFCURVE",
"1116.81 611.898 OFFCURVE",
"1116.81 603.899 CURVE SMOOTH",
"1116.81 602.9 LINE"
);
},
{
closed = 1;
nodes = (
"492.918 1134.81 OFFCURVE",
"506.916 1328.78 OFFCURVE",
"521.913 1524.75 CURVE",
"493.918 1527.75 OFFCURVE",
"466.922 1530.75 OFFCURVE",
"439.927 1533.74 CURVE",
"412.931 1535.74 OFFCURVE",
"386.936 1538.74 OFFCURVE",
"359.94 1543.74 CURVE",
"347.942 1028.83 OFFCURVE",
"345.942 893.851 OFFCURVE",
"270.955 380.937 CURVE",
"397.934 218.964 LINE",
"422.93 154.974 OFFCURVE",
"468.922 101.983 OFFCURVE",
"525.912 65.989 CURVE SMOOTH",
"581.903 28.9952 OFFCURVE",
"648.892 8.9985 OFFCURVE",
"719.88 8.9985 CURVE SMOOTH",
"722.88 8.9985 OFFCURVE",
"725.879 8.9985 OFFCURVE",
"728.879 9.99834 CURVE",
"731.878 9.99834 OFFCURVE",
"734.878 9.99834 OFFCURVE",
"737.877 9.99834 CURVE SMOOTH",
"753.875 9.99834 LINE SMOOTH",
"869.855 8.9985 OFFCURVE",
"984.836 58.9902 OFFCURVE",
"1063.82 150.975 CURVE SMOOTH",
"1122.81 219.963 OFFCURVE",
"1158.81 304.949 OFFCURVE",
"1179.8 391.935 CURVE SMOOTH",
"1200.8 478.92 OFFCURVE",
"1207.8 567.905 OFFCURVE",
"1207.8 647.892 CURVE SMOOTH",
"1207.8 764.873 OFFCURVE",
"1181.8 883.853 OFFCURVE",
"1122.81 972.838 CURVE SMOOTH",
"1063.82 1060.82 OFFCURVE",
"973.838 1119.81 OFFCURVE",
"846.859 1119.81 CURVE SMOOTH",
"831.862 1119.81 LINE",
"815.864 1119.81 LINE SMOOTH",
"751.875 1119.81 OFFCURVE",
"686.886 1102.82 OFFCURVE",
"628.895 1071.82 CURVE SMOOTH",
"570.905 1039.83 OFFCURVE",
"518.914 993.835 OFFCURVE",
"485.919 934.844 CURVE",
"484.919 935.844 OFFCURVE",
"482.92 935.844 OFFCURVE",
"480.92 936.844 CURVE",
"478.92 936.844 OFFCURVE",
"474.921 937.844 OFFCURVE",
"469.922 938.844 CURVE"
);
}
);
width = 1364;
}
);
unicode = 0062;
},
{
glyphname = c;
layers = (
{
layerId = "FE27A893-8D3D-4D0E-A6EA-BC9D15131593";
name = "Regular Italic";
paths = (
{
closed = 1;
nodes = (
"1039.83 1071.82 OFFCURVE",
"1040.83 1069.82 OFFCURVE",
"1042.83 1066.82 CURVE",
"954.841 1099.82 OFFCURVE",
"863.856 1115.81 OFFCURVE",
"767.872 1115.81 CURVE SMOOTH",
"691.885 1115.81 OFFCURVE",
"610.898 1108.82 OFFCURVE",
"533.911 1086.82 CURVE SMOOTH",
"456.924 1064.82 OFFCURVE",
"383.936 1028.83 OFFCURVE",
"322.946 969.839 CURVE SMOOTH",
"254.958 904.849 OFFCURVE",
"212.965 817.864 OFFCURVE",
"188.969 728.879 CURVE SMOOTH",
"163.973 639.893 OFFCURVE",
"155.974 545.909 OFFCURVE",
"155.974 465.922 CURVE SMOOTH",
"155.974 348.942 OFFCURVE",
"176.971 233.961 OFFCURVE",
"249.958 145.976 CURVE SMOOTH",
"296.951 86.9855 OFFCURVE",
"361.94 49.9917 OFFCURVE",
"433.928 28.9952 CURVE SMOOTH",
"504.916 7.99867 OFFCURVE",
"581.903 0.999834 OFFCURVE",
"656.891 0.999834 CURVE SMOOTH",
"753.875 0.999834 OFFCURVE",
"851.858 14.9975 OFFCURVE",
"947.842 49.9917 CURVE",
"946.842 84.9859 OFFCURVE",
"945.843 118.98 OFFCURVE",
"945.843 153.974 CURVE SMOOTH",
"945.843 208.965 OFFCURVE",
"946.842 259.957 OFFCURVE",
"949.842 314.948 CURVE",
"908.849 294.951 OFFCURVE",
"862.856 284.953 OFFCURVE",
"818.864 284.953 CURVE SMOOTH",
"806.866 284.953 LINE",
"654.891 287.952 LINE",
"566.906 294.951 OFFCURVE",
"478.92 304.949 OFFCURVE",
"406.932 353.941 CURVE",
"375.937 376.937 OFFCURVE",
"357.94 408.932 OFFCURVE",
"346.942 444.926 CURVE SMOOTH",
"334.944 479.92 OFFCURVE",
"330.945 519.913 OFFCURVE",
"330.945 556.907 CURVE",
"335.944 611.898 OFFCURVE",
"345.942 669.888 OFFCURVE",
"362.94 723.88 CURVE SMOOTH",
"379.937 777.871 OFFCURVE",
"406.932 829.862 OFFCURVE",
"445.926 873.855 CURVE SMOOTH",
"482.92 917.847 OFFCURVE",
"529.912 946.842 OFFCURVE",
"581.903 966.839 CURVE SMOOTH",
"632.895 985.836 OFFCURVE",
"688.885 992.835 OFFCURVE",
"740.877 992.835 CURVE SMOOTH",
"836.861 992.835 OFFCURVE",
"929.845 971.838 OFFCURVE",
"1013.83 928.845 CURVE",
"1017.83 953.841 OFFCURVE",
"1021.83 977.837 OFFCURVE",
"1025.83 1001.83 CURVE",
"1028.83 1025.83 OFFCURVE",
"1033.83 1049.83 OFFCURVE",
"1038.83 1074.82 CURVE"
);
}
);
width = 1204;
}
);
unicode = 0063;
},
{
glyphname = d;
layers = (
{
layerId = "FE27A893-8D3D-4D0E-A6EA-BC9D15131593";
name = "Regular Italic";
paths = (
{
closed = 1;
nodes = (
"957.841 943.843 OFFCURVE",
"954.841 942.843 OFFCURVE",
"951.842 942.843 CURVE",
"948.842 941.843 OFFCURVE",
"945.843 940.843 OFFCURVE",
"942.843 939.844 CURVE",
"918.847 998.834 OFFCURVE",
"875.854 1042.83 OFFCURVE",
"823.863 1073.82 CURVE SMOOTH",
"770.872 1104.82 OFFCURVE",
"708.882 1119.81 OFFCURVE",
"644.893 1119.81 CURVE SMOOTH",
"627.896 1119.81 LINE",
"615.897 1119.81 LINE SMOOTH",
"559.907 1119.81 OFFCURVE",
"501.916 1106.82 OFFCURVE",
"449.925 1081.82 CURVE SMOOTH",
"396.934 1056.82 OFFCURVE",
"348.942 1020.83 OFFCURVE",
"311.948 973.838 CURVE SMOOTH",
"248.959 898.85 OFFCURVE",
"208.965 808.865 OFFCURVE",
"184.969 715.881 CURVE SMOOTH",
"160.973 622.896 OFFCURVE",
"151.975 526.912 OFFCURVE",
"151.975 442.926 CURVE SMOOTH",
"151.975 337.944 OFFCURVE",
"169.972 236.961 OFFCURVE",
"226.962 149.975 CURVE SMOOTH",
"287.952 57.9903 OFFCURVE",
"394.934 8.9985 OFFCURVE",
"509.915 8.9985 CURVE SMOOTH",
"512.915 8.9985 OFFCURVE",
"516.914 8.9985 OFFCURVE",
"519.913 9.99834 CURVE",
"522.913 9.99834 OFFCURVE",
"526.912 9.99834 OFFCURVE",
"529.912 9.99834 CURVE SMOOTH",
"544.909 9.99834 LINE SMOOTH",
"616.897 9.99834 OFFCURVE",
"687.885 29.995 OFFCURVE",
"751.875 65.989 CURVE SMOOTH",
"814.864 101.983 OFFCURVE",
"868.855 154.974 OFFCURVE",
"905.849 219.963 CURVE",
"903.85 187.969 OFFCURVE",
"902.85 155.974 OFFCURVE",
"901.85 123.979 CURVE SMOOTH",
"900.85 91.9847 OFFCURVE",
"899.85 59.99 OFFCURVE",
"898.85 27.9953 CURVE",
"925.846 24.9958 OFFCURVE",
"952.841 22.9962 OFFCURVE",
"979.837 20.9965 CURVE SMOOTH",
"1006.83 18.9968 OFFCURVE",
"1033.83 15.9973 OFFCURVE",
"1060.82 11.998 CURVE",
"1068.82 526.912 OFFCURVE",
"1124.81 1033.83 OFFCURVE",
"1217.8 1546.74 CURVE",
"1189.8 1543.74 OFFCURVE",
"1161.81 1539.74 OFFCURVE",
"1134.81 1536.74 CURVE SMOOTH",
"1107.82 1533.74 OFFCURVE",
"1079.82 1530.75 OFFCURVE",
"1051.82 1528.75 CURVE",
"1016.83 1333.78 OFFCURVE",
"984.836 1140.81 OFFCURVE",
"960.84 944.843 CURVE"
);
},
{
closed = 1;
nodes = (
"268.955 643.893 OFFCURVE",
"282.953 711.882 OFFCURVE",
"306.949 775.871 CURVE SMOOTH",
"330.945 839.86 OFFCURVE",
"364.939 897.851 OFFCURVE",
"411.931 940.843 CURVE SMOOTH",
"458.924 983.836 OFFCURVE",
"517.914 1010.83 OFFCURVE",
"592.901 1010.83 CURVE SMOOTH",
"603.899 1010.83 LINE",
"617.897 1010.83 LINE SMOOTH",
"670.888 1010.83 OFFCURVE",
"719.88 992.835 OFFCURVE",
"757.874 959.84 CURVE SMOOTH",
"795.868 926.846 OFFCURVE",
"823.863 878.854 OFFCURVE",
"835.861 821.863 CURVE SMOOTH",
"846.859 768.872 OFFCURVE",
"851.858 713.881 OFFCURVE",
"851.858 657.891 CURVE SMOOTH",
"851.858 617.897 OFFCURVE",
"849.859 561.906 OFFCURVE",
"836.861 506.916 CURVE SMOOTH",
"823.863 450.925 OFFCURVE",
"799.867 396.934 OFFCURVE",
"754.874 363.939 CURVE",
"689.885 320.947 OFFCURVE",
"609.898 315.947 OFFCURVE",
"536.911 312.948 CURVE",
"499.917 312.948 OFFCURVE",
"461.923 315.947 OFFCURVE",
"425.929 323.946 CURVE SMOOTH",
"389.935 331.945 OFFCURVE",
"356.941 345.942 OFFCURVE",
"329.945 372.938 CURVE",
"278.954 427.929 OFFCURVE",
"264.956 503.916 OFFCURVE",
"261.956 578.904 CURVE",
"261.956 580.903 LINE"
);
}
);
width = 1325;
}
);
unicode = 0064;
},
{
glyphname = e;
layers = (
{
layerId = "FE27A893-8D3D-4D0E-A6EA-BC9D15131593";
name = "Regular Italic";
paths = (
{
closed = 1;
nodes = (
"1109.82 680.887 OFFCURVE",
"1109.82 688.885 OFFCURVE",
"1110.82 696.884 CURVE",
"1110.82 704.883 OFFCURVE",
"1110.82 712.881 OFFCURVE",
"1110.82 719.88 CURVE SMOOTH",
"1110.82 771.872 OFFCURVE",
"1107.82 825.863 OFFCURVE",
"1095.82 874.854 CURVE SMOOTH",
"1083.82 923.846 OFFCURVE",
"1063.82 969.839 OFFCURVE",
"1028.83 1008.83 CURVE",
"988.835 1048.83 OFFCURVE",
"937.844 1072.82 OFFCURVE",
"882.853 1088.82 CURVE SMOOTH",
"827.862 1104.82 OFFCURVE",
"768.872 1110.82 OFFCURVE",
"712.881 1113.81 CURVE",
"644.893 1112.81 OFFCURVE",
"571.905 1102.82 OFFCURVE",
"503.916 1079.82 CURVE SMOOTH",
"435.927 1056.82 OFFCURVE",
"371.938 1019.83 OFFCURVE",
"319.947 966.839 CURVE SMOOTH",
"258.957 901.85 OFFCURVE",
"216.964 815.864 OFFCURVE",
"189.968 727.879 CURVE SMOOTH",
"162.973 638.894 OFFCURVE",
"151.975 547.909 OFFCURVE",
"151.975 468.922 CURVE SMOOTH",
"151.975 409.932 OFFCURVE",
"156.974 351.941 OFFCURVE",
"172.971 296.951 CURVE SMOOTH",
"187.969 240.96 OFFCURVE",
"212.965 190.968 OFFCURVE",
"251.958 147.975 CURVE SMOOTH",
"299.95 92.9845 OFFCURVE",
"362.94 59.99 OFFCURVE",
"431.928 38.9935 CURVE SMOOTH",
"499.917 17.997 OFFCURVE",
"574.904 7.99867 OFFCURVE",
"646.892 2.9995 CURVE",
"781.87 2.9995 OFFCURVE",
"916.847 22.9962 OFFCURVE",
"1047.83 66.9889 CURVE",
"1046.83 85.9857 OFFCURVE",
"1045.83 104.983 OFFCURVE",
"1045.83 123.979 CURVE SMOOTH",
"1045.83 142.976 OFFCURVE",
"1045.83 161.973 OFFCURVE",
"1045.83 180.97 CURVE SMOOTH",
"1045.83 199.967 OFFCURVE",
"1045.83 218.964 OFFCURVE",
"1045.83 237.96 CURVE SMOOTH",
"1045.83 256.957 OFFCURVE",
"1045.83 275.954 OFFCURVE",
"1046.83 294.951 CURVE",
"993.835 267.955 OFFCURVE",
"937.844 255.957 OFFCURVE",
"879.854 250.958 CURVE SMOOTH",
"821.863 245.959 OFFCURVE",
"762.873 245.959 OFFCURVE",
"703.883 245.959 CURVE SMOOTH",
"652.891 245.959 OFFCURVE",
"597.901 248.959 OFFCURVE",
"545.909 259.957 CURVE SMOOTH",
"492.918 270.955 OFFCURVE",
"441.926 287.952 OFFCURVE",
"397.934 315.947 CURVE",
"362.94 340.943 OFFCURVE",
"343.943 375.937 OFFCURVE",
"331.945 413.931 CURVE SMOOTH",
"319.947 451.925 OFFCURVE",
"316.947 492.918 OFFCURVE",
"316.947 535.911 CURVE SMOOTH",
"316.947 562.906 OFFCURVE",
"318.947 588.902 OFFCURVE",
"319.947 613.898 CURVE",
"367.939 613.898 OFFCURVE",
"415.931 613.898 OFFCURVE",
"463.923 613.898 CURVE SMOOTH",
"510.915 612.898 OFFCURVE",
"558.907 612.898 OFFCURVE",
"606.899 612.898 CURVE SMOOTH",
"771.872 612.898 OFFCURVE",
"937.844 613.898 OFFCURVE",
"1103.82 615.897 CURVE",
"1104.82 625.896 OFFCURVE",
"1106.82 635.894 OFFCURVE",
"1107.82 645.893 CURVE SMOOTH",
"1108.82 654.891 OFFCURVE",
"1109.82 664.889 OFFCURVE",
"1110.82 674.888 CURVE",
"1109.82 673.888 LINE"
);
},
{
closed = 1;
nodes = (
"847.859 747.876 OFFCURVE",
"710.882 746.876 OFFCURVE",
"569.905 746.876 CURVE SMOOTH",
"532.911 746.876 OFFCURVE",
"495.917 746.876 OFFCURVE",
"458.924 746.876 CURVE SMOOTH",
"421.93 746.876 OFFCURVE",
"385.936 747.876 OFFCURVE",
"348.942 748.875 CURVE",
"352.941 824.863 OFFCURVE",
"391.935 896.851 OFFCURVE",
"451.925 948.842 CURVE",
"520.913 1013.83 OFFCURVE",
"616.897 1038.83 OFFCURVE",
"705.883 1038.83 CURVE SMOOTH",
"789.869 1038.83 OFFCURVE",
"858.857 1005.83 OFFCURVE",
"907.849 953.841 CURVE SMOOTH",
"956.841 901.85 OFFCURVE",
"985.836 829.862 OFFCURVE",
"988.835 750.875 CURVE"
);
}
);
width = 1301;
}
);
unicode = 0065;
},
{
glyphname = f;
layers = (
{
layerId = "FE27A893-8D3D-4D0E-A6EA-BC9D15131593";
name = "Regular Italic";
paths = (
{
closed = 1;
nodes = (
"886.852 1501.75 OFFCURVE",
"857.857 1500.75 OFFCURVE",
"826.862 1500.75 CURVE SMOOTH",
"815.864 1500.75 OFFCURVE",
"805.866 1500.75 OFFCURVE",
"795.868 1500.75 CURVE SMOOTH",
"784.869 1500.75 OFFCURVE",
"774.871 1500.75 OFFCURVE",
"763.873 1501.75 CURVE",
"764.873 1501.75 LINE",
"725.879 1498.75 OFFCURVE",
"686.886 1490.75 OFFCURVE",
"649.892 1478.75 CURVE SMOOTH",
"573.904 1453.76 OFFCURVE",
"510.915 1407.77 OFFCURVE",
"483.919 1353.77 CURVE SMOOTH",
"455.924 1299.78 OFFCURVE",
"443.926 1238.79 OFFCURVE",
"436.927 1178.8 CURVE SMOOTH",
"432.928 1148.81 OFFCURVE",
"427.929 1121.81 OFFCURVE",
"421.93 1096.82 CURVE",
"370.938 1099.82 OFFCURVE",
"318.947 1101.82 OFFCURVE",
"267.955 1108.82 CURVE",
"266.956 1081.82 OFFCURVE",
"264.956 1054.82 OFFCURVE",
"262.956 1027.83 CURVE",
"259.957 1000.83 OFFCURVE",
"257.957 973.838 OFFCURVE",
"255.957 946.842 CURVE",
"307.949 942.843 OFFCURVE",
"358.94 940.843 OFFCURVE",
"410.932 939.844 CURVE",
"375.937 634.894 OFFCURVE",
"338.944 334.944 OFFCURVE",
"291.951 29.995 CURVE",
"353.941 35.994 OFFCURVE",
"414.931 38.9935 OFFCURVE",
"475.921 38.9935 CURVE SMOOTH",
"486.919 38.9935 OFFCURVE",
"496.917 38.9935 OFFCURVE",
"507.915 38.9935 CURVE SMOOTH",
"517.914 38.9935 OFFCURVE",
"527.912 38.9935 OFFCURVE",
"538.91 37.9937 CURVE",
"549.908 338.944 OFFCURVE",
"566.906 636.894 OFFCURVE",
"585.902 937.844 CURVE",
"677.887 938.844 OFFCURVE",
"768.872 940.843 OFFCURVE",
"860.857 945.843 CURVE",
"865.856 1000.83 OFFCURVE",
"870.855 1052.82 OFFCURVE",
"877.854 1107.82 CURVE",
"785.869 1098.82 OFFCURVE",
"691.885 1094.82 OFFCURVE",
"599.9 1093.82 CURVE",
"598.9 1110.82 OFFCURVE",
"598.9 1128.81 OFFCURVE",
"598.9 1145.81 CURVE SMOOTH",
"598.9 1162.81 OFFCURVE",
"598.9 1179.8 OFFCURVE",
"598.9 1196.8 CURVE",
"603.899 1243.79 OFFCURVE",
"608.899 1294.78 OFFCURVE",
"640.893 1333.78 CURVE",
"671.888 1360.77 OFFCURVE",
"711.882 1367.77 OFFCURVE",
"748.875 1370.77 CURVE",
"779.87 1369.77 OFFCURVE",
"810.865 1368.77 OFFCURVE",
"841.86 1368.77 CURVE SMOOTH",
"850.858 1368.77 OFFCURVE",
"860.857 1368.77 OFFCURVE",
"870.855 1368.77 CURVE SMOOTH",
"879.854 1368.77 OFFCURVE",
"889.852 1368.77 OFFCURVE",
"898.85 1369.77 CURVE",
"901.85 1392.77 OFFCURVE",
"904.849 1414.76 OFFCURVE",
"907.849 1437.76 CURVE SMOOTH",
"910.848 1459.76 OFFCURVE",
"914.848 1481.75 OFFCURVE",
"917.847 1504.75 CURVE"
);
}
);
width = 927;
}
);
unicode = 0066;
},
{
glyphname = g;
layers = (
{
layerId = "FE27A893-8D3D-4D0E-A6EA-BC9D15131593";
name = "Regular Italic";
paths = (
{
closed = 1;
nodes = (
"855.858 531.911 OFFCURVE",
"848.859 483.919 OFFCURVE",
"832.861 439.927 CURVE SMOOTH",
"816.864 395.934 OFFCURVE",
"790.868 355.941 OFFCURVE",
"747.876 330.945 CURVE",
"674.888 299.95 OFFCURVE",
"593.901 288.952 OFFCURVE",
"516.914 288.952 CURVE SMOOTH",
"445.926 288.952 OFFCURVE",
"370.938 291.951 OFFCURVE",
"313.948 330.945 CURVE",
"298.95 345.942 OFFCURVE",
"286.952 363.939 OFFCURVE",
"278.954 383.936 CURVE SMOOTH",
"262.956 422.93 OFFCURVE",
"256.957 466.922 OFFCURVE",
"253.958 511.915 CURVE SMOOTH",
"252.958 534.911 OFFCURVE",
"250.958 556.907 OFFCURVE",
"249.958 577.904 CURVE",
"253.958 629.895 OFFCURVE",
"259.957 684.886 OFFCURVE",
"274.954 736.877 CURVE SMOOTH",
"289.952 788.869 OFFCURVE",
"311.948 839.86 OFFCURVE",
"347.942 883.853 CURVE SMOOTH",
"403.933 952.841 OFFCURVE",
"494.918 985.836 OFFCURVE",
"579.904 985.836 CURVE SMOOTH",
"663.89 985.836 OFFCURVE",
"735.878 960.84 OFFCURVE",
"785.869 905.849 CURVE SMOOTH",
"835.861 850.858 OFFCURVE",
"864.856 768.872 OFFCURVE",
"864.856 652.891 CURVE SMOOTH",
"864.856 625.896 OFFCURVE",
"863.856 601.9 OFFCURVE",
"860.857 574.904 CURVE SMOOTH"
);
},
{
closed = 1;
nodes = (
"1076.82 465.922 OFFCURVE",
"1119.81 786.869 OFFCURVE",
"1184.8 1110.82 CURVE",
"1156.81 1106.82 OFFCURVE",
"1128.81 1103.82 OFFCURVE",
"1101.82 1101.82 CURVE",
"1074.82 1098.82 OFFCURVE",
"1046.83 1095.82 OFFCURVE",
"1018.83 1092.82 CURVE",
"1010.83 1060.82 OFFCURVE",
"1002.83 1028.83 OFFCURVE",
"994.834 997.834 CURVE SMOOTH",
"986.836 965.839 OFFCURVE",
"978.837 933.845 OFFCURVE",
"970.838 901.85 CURVE",
"943.843 965.839 OFFCURVE",
"898.85 1015.83 OFFCURVE",
"842.86 1050.83 CURVE SMOOTH",
"785.869 1085.82 OFFCURVE",
"716.881 1104.82 OFFCURVE",
"647.892 1104.82 CURVE SMOOTH",
"631.895 1104.82 LINE",
"616.897 1104.82 LINE SMOOTH",
"560.907 1104.82 OFFCURVE",
"501.916 1094.82 OFFCURVE",
"446.926 1072.82 CURVE SMOOTH",
"391.935 1050.83 OFFCURVE",
"342.943 1016.83 OFFCURVE",
"302.95 969.839 CURVE SMOOTH",
"243.959 904.849 OFFCURVE",
"209.965 824.863 OFFCURVE",
"189.968 741.877 CURVE SMOOTH",
"169.972 657.891 OFFCURVE",
"163.973 572.905 OFFCURVE",
"163.973 496.917 CURVE SMOOTH",
"163.973 377.937 OFFCURVE",
"181.97 260.957 OFFCURVE",
"246.959 164.973 CURVE SMOOTH",
"306.949 71.988 OFFCURVE",
"413.931 21.9963 OFFCURVE",
"526.912 21.9963 CURVE SMOOTH",
"674.888 21.9963 OFFCURVE",
"802.866 79.9867 OFFCURVE",
"891.852 202.966 CURVE",
"891.852 187.969 OFFCURVE",
"890.852 171.971 OFFCURVE",
"889.852 156.974 CURVE",
"887.852 140.977 OFFCURVE",
"886.852 124.979 OFFCURVE",
"885.853 109.982 CURVE",
"865.856 36.9938 OFFCURVE",
"822.863 -29 OFFCURVE",
"769.872 -85 CURVE SMOOTH",
"734.878 -124 OFFCURVE",
"690.885 -148 OFFCURVE",
"643.893 -163 CURVE SMOOTH",
"595.901 -179 OFFCURVE",
"545.909 -184 OFFCURVE",
"498.917 -185 CURVE SMOOTH",
"394.934 -185 OFFCURVE",
"295.951 -166 OFFCURVE",
"207.965 -118 CURVE",
"195.967 -218 OFFCURVE",
"183.969 -319 OFFCURVE",
"167.972 -419 CURVE",
"266.956 -446 OFFCURVE",
"369.938 -455 OFFCURVE",
"473.921 -455 CURVE SMOOTH",
"542.91 -455 OFFCURVE",
"618.897 -452 OFFCURVE",
"690.885 -435 CURVE SMOOTH",
"762.873 -419 OFFCURVE",
"831.862 -389 OFFCURVE",
"887.852 -333 CURVE",
"947.842 -268 OFFCURVE",
"980.837 -188 OFFCURVE",
"1001.83 -106 CURVE SMOOTH",
"1021.83 -24 OFFCURVE",
"1030.83 60.9898 OFFCURVE",
"1041.83 140.977 CURVE SMOOTH"
);
}
);
width = 1292;
}
);
unicode = 0067;
},
{
glyphname = h;
layers = (
{
layerId = "FE27A893-8D3D-4D0E-A6EA-BC9D15131593";
name = "Regular Italic";
paths = (
{
closed = 1;
nodes = (
"1154.81 702.883 OFFCURVE",
"1155.81 729.879 OFFCURVE",
"1155.81 756.874 CURVE SMOOTH",
"1155.81 832.861 OFFCURVE",
"1145.81 912.848 OFFCURVE",
"1106.82 991.835 CURVE SMOOTH",
"1083.82 1036.83 OFFCURVE",
"1044.83 1069.82 OFFCURVE",
"999.834 1090.82 CURVE SMOOTH",
"954.841 1110.82 OFFCURVE",
"902.85 1119.81 OFFCURVE",
"851.858 1119.81 CURVE SMOOTH",
"835.861 1119.81 LINE",
"824.863 1119.81 LINE SMOOTH",
"752.875 1119.81 OFFCURVE",
"684.886 1096.82 OFFCURVE",
"622.896 1058.82 CURVE SMOOTH",
"560.907 1020.83 OFFCURVE",
"505.916 966.839 OFFCURVE",
"465.922 906.849 CURVE",
"489.918 1113.81 OFFCURVE",
"507.915 1315.78 OFFCURVE",
"523.913 1522.75 CURVE",
"467.922 1526.75 OFFCURVE",
"415.931 1532.74 OFFCURVE",
"359.94 1539.74 CURVE",
"340.943 1026.83 OFFCURVE",
"285.952 520.913 OFFCURVE",
"186.969 9.99834 CURVE",
"255.957 18.9968 OFFCURVE",
"324.946 24.9958 OFFCURVE",
"392.935 29.995 CURVE",
"403.933 130.978 OFFCURVE",
"413.931 231.961 OFFCURVE",
"420.93 332.945 CURVE SMOOTH",
"427.929 432.928 OFFCURVE",
"434.928 533.911 OFFCURVE",
"442.926 634.894 CURVE SMOOTH",
"449.925 729.879 OFFCURVE",
"483.919 825.863 OFFCURVE",
"548.909 901.85 CURVE SMOOTH",
"608.899 970.838 OFFCURVE",
"698.884 1004.83 OFFCURVE",
"782.87 1004.83 CURVE SMOOTH",
"858.857 1004.83 OFFCURVE",
"927.846 978.837 OFFCURVE",
"970.838 902.85 CURVE",
"993.835 851.858 OFFCURVE",
"1001.83 795.868 OFFCURVE",
"1001.83 736.877 CURVE SMOOTH",
"1001.83 713.881 OFFCURVE",
"1000.83 692.885 OFFCURVE",
"998.834 671.888 CURVE SMOOTH",
"975.838 456.924 OFFCURVE",
"955.841 245.959 OFFCURVE",
"942.843 30.9948 CURVE",
"1009.83 25.9957 OFFCURVE",
"1077.82 18.9968 OFFCURVE",
"1144.81 9.99834 CURVE",
"1141.81 89.985 OFFCURVE",
"1140.81 166.972 OFFCURVE",
"1140.81 246.959 CURVE SMOOTH",
"1140.81 388.935 OFFCURVE",
"1144.81 531.911 OFFCURVE",
"1152.81 675.888 CURVE SMOOTH"
);
}
);
width = 1410;
}
);
unicode = 0068;
},
{
glyphname = i;
layers = (
{
layerId = "FE27A893-8D3D-4D0E-A6EA-BC9D15131593";
name = "Regular Italic";
paths = (
{
closed = 1;
nodes = (
"291.951 736.877 OFFCURVE",
"254.958 376.937 OFFCURVE",
"214.964 9.99834 CURVE",
"239.96 28.9952 OFFCURVE",
"270.955 38.9935 OFFCURVE",
"301.95 38.9935 CURVE SMOOTH",
"331.945 38.9935 OFFCURVE",
"357.94 28.9952 OFFCURVE",
"378.937 9.99834 CURVE",
"402.933 376.937 OFFCURVE",
"429.928 737.877 OFFCURVE",
"460.923 1104.82 CURVE",
"436.927 1097.82 OFFCURVE",
"412.931 1092.82 OFFCURVE",
"388.935 1092.82 CURVE SMOOTH",
"366.939 1092.82 OFFCURVE",
"345.942 1096.82 OFFCURVE",
"324.946 1103.82 CURVE"
);
},
{
closed = 1;
nodes = (
"354.941 1502.75 OFFCURVE",
"350.942 1468.76 OFFCURVE",
"346.942 1434.76 CURVE SMOOTH",
"341.943 1399.77 OFFCURVE",
"337.944 1365.77 OFFCURVE",
"333.944 1330.78 CURVE",
"354.941 1314.78 OFFCURVE",
"378.937 1306.78 OFFCURVE",
"407.932 1306.78 CURVE SMOOTH",
"436.927 1306.78 OFFCURVE",
"464.923 1314.78 OFFCURVE",
"491.918 1329.78 CURVE",
"494.918 1364.77 OFFCURVE",
"496.917 1399.77 OFFCURVE",
"497.917 1434.76 CURVE SMOOTH",
"498.917 1468.76 OFFCURVE",
"500.917 1503.75 OFFCURVE",
"502.916 1538.74 CURVE",
"479.92 1522.75 OFFCURVE",
"453.924 1514.75 OFFCURVE",
"426.929 1514.75 CURVE SMOOTH",
"401.933 1514.75 OFFCURVE",
"377.937 1521.75 OFFCURVE",
"358.94 1537.74 CURVE"
);
}
);
width = 644;
}
);
unicode = 0069;
},
{
glyphname = j;
layers = (
{
layerId = "FE27A893-8D3D-4D0E-A6EA-BC9D15131593";
name = "Regular Italic";
paths = (
{
closed = 1;
nodes = (
"383.936 917.847 OFFCURVE",
"361.94 756.874 OFFCURVE",
"340.943 596.901 CURVE SMOOTH",
"319.947 435.927 OFFCURVE",
"297.95 274.954 OFFCURVE",
"275.954 112.981 CURVE SMOOTH",
"271.955 79.9867 OFFCURVE",
"266.956 44.9925 OFFCURVE",
"258.957 11.998 CURVE SMOOTH",
"250.958 -21 OFFCURVE",
"236.961 -54 OFFCURVE",
"215.964 -82 CURVE",
"216.964 -82 LINE",
"201.966 -96 OFFCURVE",
"184.969 -107 OFFCURVE",
"166.972 -115 CURVE SMOOTH",
"130.978 -132 OFFCURVE",
"92.9845 -141 OFFCURVE",
"53.991 -147 CURVE SMOOTH",
"34.9942 -150 OFFCURVE",
"15.9973 -154 OFFCURVE",
"-1 -158 CURVE",
"-6 -201 OFFCURVE",
"-12 -244 OFFCURVE",
"-18 -287 CURVE SMOOTH",
"-25 -330 OFFCURVE",
"-31 -373 OFFCURVE",
"-37 -416 CURVE",
"-8 -406 OFFCURVE",
"21.9963 -398 OFFCURVE",
"52.9912 -393 CURVE SMOOTH",
"83.986 -388 OFFCURVE",
"114.981 -381 OFFCURVE",
"145.976 -374 CURVE SMOOTH",
"206.966 -359 OFFCURVE",
"266.956 -338 OFFCURVE",
"317.947 -293 CURVE",
"356.941 -256 OFFCURVE",
"378.937 -210 OFFCURVE",
"393.934 -161 CURVE SMOOTH",
"408.932 -113 OFFCURVE",
"414.931 -62 OFFCURVE",
"419.93 -14 CURVE SMOOTH",
"459.923 356.941 OFFCURVE",
"504.916 724.879 OFFCURVE",
"554.908 1091.82 CURVE",
"505.916 1084.82 OFFCURVE",
"455.924 1080.82 OFFCURVE",
"406.932 1079.82 CURVE"
);
},
{
closed = 1;
nodes = (
"485.919 1476.75 OFFCURVE",
"479.92 1441.76 OFFCURVE",
"474.921 1407.77 CURVE SMOOTH",
"469.922 1372.77 OFFCURVE",
"463.923 1337.78 OFFCURVE",
"458.924 1302.78 CURVE",
"514.914 1307.78 OFFCURVE",
"568.905 1314.78 OFFCURVE",
"621.896 1329.78 CURVE",
"624.896 1365.77 OFFCURVE",
"626.896 1401.77 OFFCURVE",
"628.895 1436.76 CURVE SMOOTH",
"630.895 1471.76 OFFCURVE",
"633.894 1506.75 OFFCURVE",
"636.894 1542.74 CURVE",
"588.902 1527.75 OFFCURVE",
"539.91 1518.75 OFFCURVE",
"490.918 1511.75 CURVE"
);
}
);
width = 697;
}
);
unicode = 006A;
},
{
glyphname = k;
layers = (
{
layerId = "FE27A893-8D3D-4D0E-A6EA-BC9D15131593";
name = "Regular Italic";
paths = (
{
closed = 1;
nodes = (
"342.943 1026.83 OFFCURVE",
"286.952 520.913 OFFCURVE",
"186.969 9.99834 CURVE",
"224.963 14.9975 OFFCURVE",
"262.956 18.9968 OFFCURVE",
"299.95 21.9963 CURVE SMOOTH",
"336.944 24.9958 OFFCURVE",
"374.938 27.9953 OFFCURVE",
"411.931 30.9948 CURVE",
"417.93 119.98 OFFCURVE",
"423.929 208.965 OFFCURVE",
"430.928 296.951 CURVE SMOOTH",
"436.927 384.936 OFFCURVE",
"441.926 473.921 OFFCURVE",
"444.926 562.906 CURVE",
"569.905 383.936 OFFCURVE",
"697.884 211.965 OFFCURVE",
"829.862 36.9938 CURVE",
"946.842 33.9943 OFFCURVE",
"1062.82 24.9958 OFFCURVE",
"1176.8 9.99834 CURVE",
"995.834 210.965 OFFCURVE",
"813.865 403.933 OFFCURVE",
"626.896 600.9 CURVE",
"699.883 683.886 OFFCURVE",
"772.871 766.872 OFFCURVE",
"845.859 849.859 CURVE SMOOTH",
"917.847 932.845 OFFCURVE",
"990.835 1015.83 OFFCURVE",
"1064.82 1098.82 CURVE",
"996.834 1095.82 OFFCURVE",
"932.845 1094.82 OFFCURVE",
"865.856 1093.82 CURVE",
"795.868 1020.83 OFFCURVE",
"726.879 946.842 OFFCURVE",
"659.89 873.855 CURVE SMOOTH",
"591.901 799.867 OFFCURVE",
"523.913 725.879 OFFCURVE",
"454.924 650.892 CURVE",
"485.919 941.843 OFFCURVE",
"508.915 1232.79 OFFCURVE",
"523.913 1523.75 CURVE",
"467.922 1526.75 OFFCURVE",
"415.931 1532.74 OFFCURVE",
"359.94 1539.74 CURVE"
);
}
);
width = 1442;
}
);
unicode = 006B;
},
{
glyphname = l;
layers = (
{
layerId = "FE27A893-8D3D-4D0E-A6EA-BC9D15131593";
name = "Regular Italic";
paths = (
{
closed = 1;
nodes = (
"319.947 1024.83 OFFCURVE",
"269.955 521.913 OFFCURVE",
"205.966 9.99834 CURVE",
"256.957 28.9952 OFFCURVE",
"307.949 38.9935 OFFCURVE",
"359.94 38.9935 CURVE SMOOTH",
"410.932 38.9935 OFFCURVE",
"458.924 29.995 OFFCURVE",
"503.916 9.99834 CURVE",
"507.915 78.9869 OFFCURVE",
"512.915 148.975 OFFCURVE",
"517.914 217.964 CURVE",
"478.92 229.962 OFFCURVE",
"439.927 238.96 OFFCURVE",
"398.934 238.96 CURVE",
"434.928 666.889 OFFCURVE",
"472.921 1087.82 OFFCURVE",
"511.915 1515.75 CURVE",
"506.916 1514.75 OFFCURVE",
"500.917 1514.75 OFFCURVE",
"495.917 1514.75 CURVE SMOOTH",
"489.918 1514.75 OFFCURVE",
"483.919 1514.75 OFFCURVE",
"478.92 1514.75 CURVE SMOOTH",
"437.927 1514.75 OFFCURVE",
"395.934 1519.75 OFFCURVE",
"358.94 1536.74 CURVE"
);
}
);
width = 769;
}
);
unicode = 006C;
},
{
glyphname = m;
layers = (
{
layerId = "FE27A893-8D3D-4D0E-A6EA-BC9D15131593";
name = "Regular Italic";
paths = (
{
closed = 1;
nodes = (
"1110.82 886.852 OFFCURVE",
"1107.82 887.852 OFFCURVE",
"1100.82 887.852 CURVE",
"1084.82 968.839 OFFCURVE",
"1036.83 1026.83 OFFCURVE",
"973.838 1063.82 CURVE SMOOTH",
"909.849 1100.82 OFFCURVE",
"830.862 1117.81 OFFCURVE",
"750.875 1117.81 CURVE SMOOTH",
"687.885 1117.81 OFFCURVE",
"623.896 1099.82 OFFCURVE",
"567.905 1067.82 CURVE SMOOTH",
"510.915 1035.83 OFFCURVE",
"462.923 988.835 OFFCURVE",
"431.928 929.845 CURVE",
"428.929 930.845 OFFCURVE",
"425.929 931.845 OFFCURVE",
"423.929 932.845 CURVE",
"420.93 933.845 OFFCURVE",
"417.93 934.844 OFFCURVE",
"414.931 935.844 CURVE",
"421.93 991.835 OFFCURVE",
"426.929 1044.83 OFFCURVE",
"429.928 1100.82 CURVE",
"402.933 1101.82 OFFCURVE",
"375.937 1103.82 OFFCURVE",
"348.942 1104.82 CURVE SMOOTH",
"321.946 1105.82 OFFCURVE",
"294.951 1106.82 OFFCURVE",
"267.955 1107.82 CURVE",
"269.955 1056.82 OFFCURVE",
"270.955 1005.83 OFFCURVE",
"270.955 955.841 CURVE SMOOTH",
"270.955 638.894 OFFCURVE",
"224.963 320.947 OFFCURVE",
"127.979 9.99834 CURVE",
"203.966 13.9977 OFFCURVE",
"276.954 16.9972 OFFCURVE",
"351.941 19.9967 CURVE",
"394.934 223.963 OFFCURVE",
"412.931 426.929 OFFCURVE",
"423.929 631.895 CURVE SMOOTH",
"427.929 719.88 OFFCURVE",
"457.924 816.864 OFFCURVE",
"510.915 892.851 CURVE SMOOTH",
"563.906 967.839 OFFCURVE",
"639.893 1019.83 OFFCURVE",
"738.877 1019.83 CURVE SMOOTH",
"774.871 1019.83 OFFCURVE",
"812.865 1014.83 OFFCURVE",
"846.859 1001.83 CURVE SMOOTH",
"880.853 988.835 OFFCURVE",
"910.848 965.839 OFFCURVE",
"934.844 929.845 CURVE",
"961.84 880.853 OFFCURVE",
"968.839 824.863 OFFCURVE",
"968.839 767.872 CURVE SMOOTH",
"968.839 744.876 OFFCURVE",
"967.839 723.88 OFFCURVE",
"965.839 702.883 CURVE",
"925.846 477.92 OFFCURVE",
"882.853 255.957 OFFCURVE",
"835.861 30.9948 CURVE",
"1070.82 30.9948 LINE",
"1083.82 229.962 OFFCURVE",
"1101.82 428.929 OFFCURVE",
"1124.81 629.895 CURVE",
"1131.81 725.879 OFFCURVE",
"1161.81 821.863 OFFCURVE",
"1226.8 898.85 CURVE SMOOTH",
"1290.79 978.837 OFFCURVE",
"1385.77 1012.83 OFFCURVE",
"1480.75 1012.83 CURVE SMOOTH",
"1581.74 1012.83 OFFCURVE",
"1627.73 957.841 OFFCURVE",
"1627.73 833.861 CURVE SMOOTH",
"1627.73 810.865 OFFCURVE",
"1626.73 787.869 OFFCURVE",
"1624.73 764.873 CURVE",
"1621.73 741.877 OFFCURVE",
"1619.73 719.88 OFFCURVE",
"1617.73 696.884 CURVE",
"1580.74 480.92 OFFCURVE",
"1551.74 267.955 OFFCURVE",
"1551.74 51.9913 CURVE SMOOTH",
"1551.74 20.9965 LINE",
"1590.74 19.9967 OFFCURVE",
"1629.73 17.997 OFFCURVE",
"1668.72 15.9973 CURVE SMOOTH",
"1706.72 13.9977 OFFCURVE",
"1744.71 11.998 OFFCURVE",
"1783.7 9.99834 CURVE",
"1763.71 128.979 OFFCURVE",
"1754.71 246.959 OFFCURVE",
"1754.71 369.938 CURVE SMOOTH",
"1754.71 470.922 OFFCURVE",
"1759.71 572.905 OFFCURVE",
"1770.71 675.888 CURVE SMOOTH",
"1774.7 719.88 OFFCURVE",
"1778.7 764.873 OFFCURVE",
"1778.7 809.865 CURVE SMOOTH",
"1778.7 864.856 OFFCURVE",
"1773.7 917.847 OFFCURVE",
"1757.71 973.838 CURVE SMOOTH",
"1742.71 1022.83 OFFCURVE",
"1710.72 1060.82 OFFCURVE",
"1670.72 1085.82 CURVE SMOOTH",
"1629.73 1109.82 OFFCURVE",
"1578.74 1122.81 OFFCURVE",
"1529.75 1122.81 CURVE SMOOTH",
"1449.76 1122.81 OFFCURVE",
"1358.77 1108.82 OFFCURVE",
"1286.79 1060.82 CURVE SMOOTH",
"1217.8 1017.83 OFFCURVE",
"1161.81 953.841 OFFCURVE",
"1117.81 885.853 CURVE"
);
}
);
width = 2049;
}
);
unicode = 006D;
},
{
glyphname = n;
layers = (
{
layerId = "FE27A893-8D3D-4D0E-A6EA-BC9D15131593";
name = "Regular Italic";
paths = (
{
closed = 1;
nodes = (
"1129.81 699.883 OFFCURVE",
"1130.81 724.879 OFFCURVE",
"1130.81 749.875 CURVE SMOOTH",
"1130.81 829.862 OFFCURVE",
"1121.81 908.849 OFFCURVE",
"1085.82 988.835 CURVE",
"1061.82 1033.83 OFFCURVE",
"1022.83 1065.82 OFFCURVE",
"977.837 1086.82 CURVE SMOOTH",
"932.845 1106.82 OFFCURVE",
"880.853 1115.81 OFFCURVE",
"828.862 1115.81 CURVE SMOOTH",
"680.887 1115.81 OFFCURVE",
"550.908 1054.82 OFFCURVE",
"427.929 963.84 CURVE",
"428.929 986.836 OFFCURVE",
"428.929 1010.83 OFFCURVE",
"429.928 1034.83 CURVE SMOOTH",
"430.928 1057.82 OFFCURVE",
"430.928 1081.82 OFFCURVE",
"431.928 1104.82 CURVE",
"376.937 1107.82 OFFCURVE",
"324.946 1110.82 OFFCURVE",
"269.955 1117.81 CURVE",
"264.956 746.876 OFFCURVE",
"224.963 378.937 OFFCURVE",
"140.977 9.99834 CURVE",
"220.963 17.997 OFFCURVE",
"295.951 21.9963 OFFCURVE",
"375.937 25.9957 CURVE",
"396.934 230.962 OFFCURVE",
"410.932 435.927 OFFCURVE",
"417.93 639.893 CURVE",
"424.929 730.878 OFFCURVE",
"449.925 824.863 OFFCURVE",
"514.914 896.851 CURVE SMOOTH",
"549.908 933.845 OFFCURVE",
"593.901 957.841 OFFCURVE",
"639.893 970.838 CURVE SMOOTH",
"685.886 983.836 OFFCURVE",
"734.878 988.835 OFFCURVE",
"779.87 988.835 CURVE SMOOTH",
"811.865 988.835 OFFCURVE",
"844.859 983.836 OFFCURVE",
"873.855 970.838 CURVE SMOOTH",
"901.85 957.841 OFFCURVE",
"928.845 936.844 OFFCURVE",
"945.843 903.85 CURVE",
"964.839 860.857 OFFCURVE",
"970.838 815.864 OFFCURVE",
"970.838 768.872 CURVE SMOOTH",
"970.838 737.877 OFFCURVE",
"968.839 706.882 OFFCURVE",
"965.839 675.888 CURVE",
"932.845 458.924 OFFCURVE",
"904.849 244.959 OFFCURVE",
"888.852 25.9957 CURVE",
"969.839 22.9962 OFFCURVE",
"1048.83 17.997 OFFCURVE",
"1128.81 9.99834 CURVE",
"1119.81 109.982 OFFCURVE",
"1115.81 209.965 OFFCURVE",
"1115.81 312.948 CURVE SMOOTH",
"1115.81 433.928 OFFCURVE",
"1120.81 553.908 OFFCURVE",
"1120.81 674.888 CURVE",
"1128.81 674.888 LINE"
);
}
);
width = 1394;
}
);
unicode = 006E;
},
{
glyphname = o;
layers = (
{
layerId = "FE27A893-8D3D-4D0E-A6EA-BC9D15131593";
name = "Regular Italic";
paths = (
{
closed = 1;
nodes = (
"761.873 1000.83 OFFCURVE",
"848.859 965.839 OFFCURVE",
"893.851 889.852 CURVE SMOOTH",
"933.845 821.863 OFFCURVE",
"947.842 738.877 OFFCURVE",
"947.842 657.891 CURVE SMOOTH",
"947.842 616.897 OFFCURVE",
"946.842 554.908 OFFCURVE",
"932.845 494.918 CURVE SMOOTH",
"918.847 433.928 OFFCURVE",
"890.852 374.938 OFFCURVE",
"839.86 339.943 CURVE",
"768.872 299.95 OFFCURVE",
"687.885 288.952 OFFCURVE",
"610.898 288.952 CURVE SMOOTH",
"531.911 288.952 OFFCURVE",
"451.925 297.95 OFFCURVE",
"386.936 338.944 CURVE",
"359.94 358.94 OFFCURVE",
"343.943 385.936 OFFCURVE",
"335.944 415.931 CURVE SMOOTH",
"326.946 445.926 OFFCURVE",
"323.946 478.92 OFFCURVE",
"323.946 511.915 CURVE SMOOTH",
"323.946 572.905 OFFCURVE",
"328.945 641.893 OFFCURVE",
"344.943 706.882 CURVE SMOOTH",
"360.94 771.872 OFFCURVE",
"387.935 835.861 OFFCURVE",
"430.928 890.852 CURVE SMOOTH",
"490.918 966.839 OFFCURVE",
"581.903 1001.83 OFFCURVE",
"672.888 1001.83 CURVE SMOOTH"
);
},
{
closed = 1;
nodes = (
"616.897 1113.81 OFFCURVE",
"548.909 1105.82 OFFCURVE",
"484.919 1083.82 CURVE SMOOTH",
"420.93 1061.82 OFFCURVE",
"359.94 1026.83 OFFCURVE",
"311.948 973.838 CURVE SMOOTH",
"246.959 902.85 OFFCURVE",
"208.965 812.865 OFFCURVE",
"185.969 719.88 CURVE SMOOTH",
"162.973 626.896 OFFCURVE",
"156.974 531.911 OFFCURVE",
"156.974 450.925 CURVE SMOOTH",
"156.974 338.944 OFFCURVE",
"174.971 229.962 OFFCURVE",
"238.96 141.976 CURVE SMOOTH",
"275.954 88.9852 OFFCURVE",
"328.945 52.9912 OFFCURVE",
"388.935 31.9947 CURVE SMOOTH",
"448.925 10.9982 OFFCURVE",
"516.914 2.9995 OFFCURVE",
"580.903 2.9995 CURVE SMOOTH",
"645.893 2.9995 OFFCURVE",
"716.881 10.9982 OFFCURVE",
"781.87 31.9947 CURVE SMOOTH",
"846.859 51.9913 OFFCURVE",
"906.849 86.9855 OFFCURVE",
"954.841 142.976 CURVE SMOOTH",
"1018.83 214.964 OFFCURVE",
"1057.82 305.949 OFFCURVE",
"1081.82 398.934 CURVE SMOOTH",
"1104.82 490.918 OFFCURVE",
"1110.82 585.902 OFFCURVE",
"1110.82 668.889 CURVE SMOOTH",
"1110.82 779.87 OFFCURVE",
"1092.82 885.853 OFFCURVE",
"1028.83 973.838 CURVE SMOOTH",
"989.835 1026.83 OFFCURVE",
"935.844 1062.82 OFFCURVE",
"875.854 1083.82 CURVE SMOOTH",
"815.864 1104.82 OFFCURVE",
"748.875 1113.81 OFFCURVE",
"683.886 1113.81 CURVE SMOOTH"
);
}
);
width = 1264;
}
);
unicode = 006F;
},
{
glyphname = p;
layers = (
{
layerId = "FE27A893-8D3D-4D0E-A6EA-BC9D15131593";
name = "Regular Italic";
paths = (
{
closed = 1;
nodes = (
"348.942 172.971 OFFCURVE",
"351.941 173.971 OFFCURVE",
"354.941 174.971 CURVE",
"357.94 174.971 OFFCURVE",
"360.94 175.971 OFFCURVE",
"363.939 176.971 CURVE",
"386.936 116.981 OFFCURVE",
"428.929 72.9879 OFFCURVE",
"481.92 41.993 CURVE SMOOTH",
"534.911 10.9982 OFFCURVE",
"597.901 -4 OFFCURVE",
"661.89 -4 CURVE SMOOTH",
"676.887 -4 LINE",
"688.885 -4 LINE SMOOTH",
"803.866 -4 OFFCURVE",
"917.847 50.9915 OFFCURVE",
"993.835 143.976 CURVE SMOOTH",
"1056.82 216.964 OFFCURVE",
"1096.82 307.949 OFFCURVE",
"1121.81 400.933 CURVE SMOOTH",
"1145.81 493.918 OFFCURVE",
"1154.81 588.902 OFFCURVE",
"1154.81 675.888 CURVE SMOOTH",
"1154.81 779.87 OFFCURVE",
"1135.81 882.853 OFFCURVE",
"1078.82 966.839 CURVE SMOOTH",
"1018.83 1059.82 OFFCURVE",
"909.849 1106.82 OFFCURVE",
"794.868 1106.82 CURVE SMOOTH",
"777.871 1106.82 LINE",
"764.873 1106.82 LINE SMOOTH",
"697.884 1106.82 OFFCURVE",
"629.895 1091.82 OFFCURVE",
"568.905 1061.82 CURVE SMOOTH",
"507.915 1031.83 OFFCURVE",
"453.924 984.836 OFFCURVE",
"417.93 923.846 CURVE",
"415.931 924.846 OFFCURVE",
"413.931 925.846 OFFCURVE",
"411.931 926.846 CURVE",
"408.932 927.846 OFFCURVE",
"405.932 928.845 OFFCURVE",
"402.933 929.845 CURVE",
"406.932 956.841 OFFCURVE",
"410.932 982.836 OFFCURVE",
"415.931 1009.83 CURVE",
"419.93 1036.83 OFFCURVE",
"423.929 1062.82 OFFCURVE",
"427.929 1089.82 CURVE",
"372.938 1092.82 OFFCURVE",
"321.946 1097.82 OFFCURVE",
"266.956 1104.82 CURVE",
"245.959 593.901 OFFCURVE",
"190.968 91.9847 OFFCURVE",
"91.9847 -416 CURVE",
"147.975 -409 OFFCURVE",
"201.966 -404 OFFCURVE",
"257.957 -399 CURVE",
"290.952 -208 OFFCURVE",
"321.946 -19 OFFCURVE",
"345.942 171.971 CURVE"
);
},
{
closed = 1;
nodes = (
"1052.82 541.91 OFFCURVE",
"1047.83 491.918 OFFCURVE",
"1033.83 445.926 CURVE SMOOTH",
"1019.83 399.933 OFFCURVE",
"996.834 355.941 OFFCURVE",
"956.841 323.946 CURVE",
"889.852 278.954 OFFCURVE",
"811.865 266.956 OFFCURVE",
"735.878 266.956 CURVE SMOOTH",
"656.891 266.956 OFFCURVE",
"580.903 280.953 OFFCURVE",
"516.914 323.946 CURVE",
"488.919 344.943 OFFCURVE",
"471.921 374.938 OFFCURVE",
"461.923 407.932 CURVE SMOOTH",
"451.925 440.927 OFFCURVE",
"447.925 476.921 OFFCURVE",
"447.925 512.915 CURVE SMOOTH",
"447.925 573.904 OFFCURVE",
"452.925 641.893 OFFCURVE",
"468.922 708.882 CURVE SMOOTH",
"483.919 775.871 OFFCURVE",
"510.915 839.86 OFFCURVE",
"554.908 892.851 CURVE SMOOTH",
"617.897 973.838 OFFCURVE",
"711.882 1008.83 OFFCURVE",
"807.866 1008.83 CURVE SMOOTH",
"898.85 1008.83 OFFCURVE",
"962.84 969.839 OFFCURVE",
"1004.83 909.849 CURVE SMOOTH",
"1046.83 849.859 OFFCURVE",
"1064.82 766.872 OFFCURVE",
"1064.82 681.886 CURVE SMOOTH",
"1064.82 649.892 OFFCURVE",
"1062.82 617.897 OFFCURVE",
"1059.82 586.902 CURVE"
);
}
);
width = 1304;
}
);
unicode = 0070;
},
{
glyphname = q;
layers = (
{
layerId = "FE27A893-8D3D-4D0E-A6EA-BC9D15131593";
name = "Regular Italic";
paths = (
{
closed = 1;
nodes = (
"262.956 632.895 OFFCURVE",
"269.955 688.885 OFFCURVE",
"285.952 741.877 CURVE SMOOTH",
"300.95 794.868 OFFCURVE",
"322.946 845.859 OFFCURVE",
"358.94 892.851 CURVE SMOOTH",
"411.931 961.84 OFFCURVE",
"498.917 1001.83 OFFCURVE",
"582.903 1001.83 CURVE SMOOTH",
"679.887 1002.83 OFFCURVE",
"770.872 968.839 OFFCURVE",
"819.864 887.852 CURVE SMOOTH",
"859.857 819.864 OFFCURVE",
"873.855 743.876 OFFCURVE",
"873.855 663.89 CURVE SMOOTH",
"873.855 619.897 OFFCURVE",
"871.855 553.908 OFFCURVE",
"856.857 489.918 CURVE SMOOTH",
"841.86 424.929 OFFCURVE",
"812.865 361.94 OFFCURVE",
"759.874 322.946 CURVE",
"688.885 282.953 OFFCURVE",
"607.899 270.955 OFFCURVE",
"531.911 270.955 CURVE SMOOTH",
"455.924 270.955 OFFCURVE",
"378.937 278.954 OFFCURVE",
"318.947 321.946 CURVE",
"266.956 368.939 OFFCURVE",
"255.957 436.927 OFFCURVE",
"255.957 507.915 CURVE SMOOTH",
"255.957 531.911 OFFCURVE",
"257.957 556.907 OFFCURVE",
"258.957 579.904 CURVE SMOOTH"
);
},
{
closed = 1;
nodes = (
"873.855 -14 OFFCURVE",
"858.857 -204 OFFCURVE",
"847.859 -396 CURVE",
"903.85 -399 OFFCURVE",
"954.841 -404 OFFCURVE",
"1010.83 -411 CURVE",
"1010.83 -324 OFFCURVE",
"1160.81 -327 OFFCURVE",
"1115.81 -296 CURVE SMOOTH",
"955.841 -185 OFFCURVE",
"1091.82 647.892 OFFCURVE",
"1181.8 1110.82 CURVE",
"1125.81 1103.82 OFFCURVE",
"1071.82 1098.82 OFFCURVE",
"1015.83 1093.82 CURVE",
"1007.83 1061.82 OFFCURVE",
"999.834 1029.83 OFFCURVE",
"991.835 998.834 CURVE SMOOTH",
"982.836 966.839 OFFCURVE",
"974.838 934.844 OFFCURVE",
"967.839 902.85 CURVE",
"940.843 965.839 OFFCURVE",
"895.851 1016.83 OFFCURVE",
"839.86 1052.82 CURVE SMOOTH",
"783.87 1087.82 OFFCURVE",
"715.881 1106.82 OFFCURVE",
"646.892 1106.82 CURVE SMOOTH",
"628.895 1106.82 LINE",
"611.898 1106.82 LINE SMOOTH",
"496.917 1107.82 OFFCURVE",
"380.937 1057.82 OFFCURVE",
"301.95 965.839 CURVE SMOOTH",
"244.959 897.851 OFFCURVE",
"208.965 816.864 OFFCURVE",
"187.969 732.878 CURVE SMOOTH",
"166.972 647.892 OFFCURVE",
"159.973 559.907 OFFCURVE",
"159.973 480.92 CURVE SMOOTH",
"159.973 359.94 OFFCURVE",
"177.97 240.96 OFFCURVE",
"242.96 141.976 CURVE SMOOTH",
"301.95 48.9918 OFFCURVE",
"406.932 -4 OFFCURVE",
"521.913 -4 CURVE SMOOTH",
"533.911 -4 LINE",
"549.908 -4 LINE SMOOTH",
"613.898 -4 OFFCURVE",
"679.887 12.9978 OFFCURVE",
"738.877 44.9925 CURVE SMOOTH",
"797.867 76.9872 OFFCURVE",
"846.859 122.98 OFFCURVE",
"881.853 182.97 CURVE",
"885.853 179.97 OFFCURVE",
"891.852 178.97 OFFCURVE",
"896.851 177.97 CURVE"
);
}
);
width = 1365;
}
);
unicode = 0071;
},
{
glyphname = r;
layers = (
{
layerId = "FE27A893-8D3D-4D0E-A6EA-BC9D15131593";
name = "Regular Italic";
paths = (
{
closed = 1;
nodes = (
"822.863 999.834 OFFCURVE",
"830.862 1053.82 OFFCURVE",
"839.86 1109.82 CURVE",
"810.865 1109.82 LINE SMOOTH",
"767.872 1109.82 OFFCURVE",
"720.88 1105.82 OFFCURVE",
"673.888 1094.82 CURVE SMOOTH",
"626.896 1082.82 OFFCURVE",
"580.903 1066.82 OFFCURVE",
"540.91 1042.83 CURVE SMOOTH",
"516.914 1028.83 OFFCURVE",
"492.918 1015.83 OFFCURVE",
"468.922 1002.83 CURVE SMOOTH",
"444.926 989.835 OFFCURVE",
"421.93 974.838 OFFCURVE",
"398.934 959.84 CURVE",
"399.933 980.837 OFFCURVE",
"401.933 1000.83 OFFCURVE",
"402.933 1020.83 CURVE SMOOTH",
"403.933 1040.83 OFFCURVE",
"405.932 1060.82 OFFCURVE",
"406.932 1081.82 CURVE",
"358.94 1084.82 OFFCURVE",
"312.948 1085.82 OFFCURVE",
"264.956 1092.82 CURVE",
"237.96 728.879 OFFCURVE",
"191.968 370.938 OFFCURVE",
"118.98 9.99834 CURVE",
"190.968 20.9965 OFFCURVE",
"262.956 25.9957 OFFCURVE",
"334.944 28.9952 CURVE",
"349.942 207.965 OFFCURVE",
"358.94 379.937 OFFCURVE",
"367.939 558.907 CURVE",
"376.937 654.891 OFFCURVE",
"397.934 754.874 OFFCURVE",
"457.924 838.86 CURVE SMOOTH",
"490.918 886.852 OFFCURVE",
"539.91 915.848 OFFCURVE",
"591.901 932.845 CURVE SMOOTH",
"643.893 948.842 OFFCURVE",
"699.883 953.841 OFFCURVE",
"751.875 953.841 CURVE SMOOTH",
"774.871 953.841 OFFCURVE",
"795.868 951.842 OFFCURVE",
"815.864 943.843 CURVE"
);
}
);
width = 882;
}
);
unicode = 0072;
},
{
glyphname = s;
layers = (
{
layerId = "FE27A893-8D3D-4D0E-A6EA-BC9D15131593";
name = "Regular Italic";
paths = (
{
closed = 1;
nodes = (
"868.855 1106.82 OFFCURVE",
"751.875 1113.81 OFFCURVE",
"634.894 1113.81 CURVE SMOOTH",
"547.909 1113.81 OFFCURVE",
"464.923 1104.82 OFFCURVE",
"365.939 1065.82 CURVE SMOOTH",
"309.948 1042.83 OFFCURVE",
"269.955 1002.83 OFFCURVE",
"245.959 954.841 CURVE SMOOTH",
"220.963 906.849 OFFCURVE",
"209.965 849.859 OFFCURVE",
"209.965 796.867 CURVE SMOOTH",
"209.965 765.872 OFFCURVE",
"213.964 734.878 OFFCURVE",
"220.963 704.883 CURVE SMOOTH",
"234.961 644.893 OFFCURVE",
"276.954 611.898 OFFCURVE",
"311.948 591.901 CURVE SMOOTH",
"346.942 571.905 OFFCURVE",
"384.936 557.907 OFFCURVE",
"424.929 547.909 CURVE SMOOTH",
"463.923 537.91 OFFCURVE",
"496.917 528.912 OFFCURVE",
"539.91 520.913 CURVE",
"560.907 515.914 OFFCURVE",
"582.903 510.915 OFFCURVE",
"604.899 504.916 CURVE SMOOTH",
"648.892 492.918 OFFCURVE",
"692.885 475.921 OFFCURVE",
"724.879 450.925 CURVE",
"744.876 423.929 OFFCURVE",
"758.874 393.934 OFFCURVE",
"773.871 362.94 CURVE",
"770.872 302.95 OFFCURVE",
"737.877 264.956 OFFCURVE",
"692.885 241.96 CURVE SMOOTH",
"647.892 217.964 OFFCURVE",
"590.902 208.965 OFFCURVE",
"541.91 208.965 CURVE SMOOTH",
"536.911 208.965 OFFCURVE",
"532.911 208.965 OFFCURVE",
"528.912 208.965 CURVE SMOOTH",
"523.913 208.965 OFFCURVE",
"519.913 208.965 OFFCURVE",
"514.914 209.965 CURVE",
"492.918 209.965 LINE SMOOTH",
"372.938 209.965 OFFCURVE",
"258.957 238.96 OFFCURVE",
"155.974 293.951 CURVE",
"144.976 210.965 OFFCURVE",
"134.978 131.978 OFFCURVE",
"119.98 48.9918 CURVE",
"234.961 20.9965 OFFCURVE",
"353.941 2.9995 OFFCURVE",
"474.921 2.9995 CURVE SMOOTH",
"531.911 2.9995 OFFCURVE",
"593.901 4.99917 OFFCURVE",
"653.891 15.9973 CURVE SMOOTH",
"713.881 26.9955 OFFCURVE",
"771.872 45.9923 OFFCURVE",
"824.863 78.9869 CURVE SMOOTH",
"869.855 106.982 OFFCURVE",
"900.85 146.976 OFFCURVE",
"920.847 191.968 CURVE SMOOTH",
"940.843 235.961 OFFCURVE",
"949.842 284.953 OFFCURVE",
"949.842 332.945 CURVE SMOOTH",
"949.842 397.934 OFFCURVE",
"933.845 463.923 OFFCURVE",
"886.852 508.915 CURVE SMOOTH",
"853.858 539.91 OFFCURVE",
"814.864 561.906 OFFCURVE",
"772.871 578.904 CURVE SMOOTH",
"730.878 595.901 OFFCURVE",
"685.886 606.899 OFFCURVE",
"641.893 617.897 CURVE",
"610.898 622.896 OFFCURVE",
"569.905 630.895 OFFCURVE",
"525.912 642.893 CURVE SMOOTH",
"481.92 654.891 OFFCURVE",
"437.927 673.888 OFFCURVE",
"404.933 699.883 CURVE SMOOTH",
"371.938 725.879 OFFCURVE",
"348.942 760.873 OFFCURVE",
"348.942 809.865 CURVE SMOOTH",
"348.942 885.853 OFFCURVE",
"387.935 934.844 OFFCURVE",
"443.926 963.84 CURVE SMOOTH",
"498.917 992.835 OFFCURVE",
"568.905 1002.83 OFFCURVE",
"628.895 1002.83 CURVE SMOOTH",
"743.876 1002.83 OFFCURVE",
"852.858 988.835 OFFCURVE",
"953.841 941.843 CURVE",
"956.841 964.839 OFFCURVE",
"960.84 987.836 OFFCURVE",
"964.839 1010.83 CURVE SMOOTH",
"968.839 1033.83 OFFCURVE",
"972.838 1056.82 OFFCURVE",
"975.838 1079.82 CURVE",
"979.837 1071.82 LINE"
);
}
);
width = 1154;
}
);
unicode = 0073;
},
{
glyphname = t;
layers = (
{
layerId = "FE27A893-8D3D-4D0E-A6EA-BC9D15131593";
name = "Regular Italic";
paths = (
{
closed = 1;
nodes = (
"534.911 1359.77 OFFCURVE",
"479.92 1361.77 OFFCURVE",
"419.93 1366.77 CURVE",
"411.931 1275.79 OFFCURVE",
"402.933 1186.8 OFFCURVE",
"393.934 1095.82 CURVE",
"350.942 1098.82 OFFCURVE",
"310.948 1103.82 OFFCURVE",
"267.955 1108.82 CURVE",
"266.956 1087.82 OFFCURVE",
"264.956 1067.82 OFFCURVE",
"263.956 1047.83 CURVE SMOOTH",
"262.956 1026.83 OFFCURVE",
"261.956 1006.83 OFFCURVE",
"260.957 985.836 CURVE",
"281.953 982.836 OFFCURVE",
"302.95 981.837 OFFCURVE",
"323.946 980.837 CURVE SMOOTH",
"344.943 979.837 OFFCURVE",
"365.939 977.837 OFFCURVE",
"386.936 976.837 CURVE",
"369.938 775.871 OFFCURVE",
"346.942 577.904 OFFCURVE",
"323.946 376.937 CURVE SMOOTH",
"320.947 347.942 OFFCURVE",
"318.947 315.947 OFFCURVE",
"318.947 284.953 CURVE SMOOTH",
"318.947 216.964 OFFCURVE",
"328.945 152.975 OFFCURVE",
"375.937 105.982 CURVE",
"394.934 89.985 OFFCURVE",
"415.931 77.987 OFFCURVE",
"438.927 68.9885 CURVE SMOOTH",
"484.919 50.9915 OFFCURVE",
"533.911 40.9932 OFFCURVE",
"584.903 36.9938 CURVE SMOOTH",
"609.898 34.9942 OFFCURVE",
"634.894 32.9945 OFFCURVE",
"659.89 30.9948 CURVE SMOOTH",
"689.885 27.9953 OFFCURVE",
"719.88 24.9958 OFFCURVE",
"748.875 21.9963 CURVE SMOOTH",
"777.871 18.9968 OFFCURVE",
"807.866 14.9975 OFFCURVE",
"836.861 9.99834 CURVE",
"837.861 94.9842 OFFCURVE",
"840.86 179.97 OFFCURVE",
"844.859 264.956 CURVE",
"787.869 271.955 OFFCURVE",
"731.878 274.954 OFFCURVE",
"674.888 277.954 CURVE SMOOTH",
"647.892 278.954 OFFCURVE",
"620.897 280.953 OFFCURVE",
"593.901 286.952 CURVE SMOOTH",
"566.906 292.951 OFFCURVE",
"543.909 301.95 OFFCURVE",
"524.913 320.947 CURVE",
"503.916 351.941 OFFCURVE",
"498.917 386.936 OFFCURVE",
"498.917 425.929 CURVE SMOOTH",
"498.917 449.925 OFFCURVE",
"500.917 472.921 OFFCURVE",
"501.916 495.917 CURVE",
"510.915 575.904 OFFCURVE",
"519.913 655.891 OFFCURVE",
"527.912 734.878 CURVE SMOOTH",
"535.911 813.865 OFFCURVE",
"543.909 892.851 OFFCURVE",
"552.908 972.838 CURVE",
"594.901 972.838 LINE SMOOTH",
"662.89 972.838 OFFCURVE",
"730.878 974.838 OFFCURVE",
"798.867 977.837 CURVE",
"801.867 997.834 OFFCURVE",
"804.866 1017.83 OFFCURVE",
"806.866 1037.83 CURVE",
"807.866 1057.82 OFFCURVE",
"809.865 1077.82 OFFCURVE",
"812.865 1097.82 CURVE",
"741.877 1092.82 OFFCURVE",
"673.888 1090.82 OFFCURVE",
"602.9 1090.82 CURVE SMOOTH",
"562.906 1090.82 LINE",
"573.904 1179.8 OFFCURVE",
"583.903 1268.79 OFFCURVE",
"594.901 1359.77 CURVE"
);
}
);
width = 1102;
}
);
unicode = 0074;
},
{
glyphname = u;
layers = (
{
layerId = "FE27A893-8D3D-4D0E-A6EA-BC9D15131593";
name = "Regular Italic";
paths = (
{
closed = 1;
nodes = (
"233.961 406.932 OFFCURVE",
"231.961 372.938 OFFCURVE",
"231.961 337.944 CURVE SMOOTH",
"231.961 268.955 OFFCURVE",
"240.96 198.967 OFFCURVE",
"271.955 126.979 CURVE",
"295.951 79.9867 OFFCURVE",
"335.944 48.9918 OFFCURVE",
"382.936 28.9952 CURVE SMOOTH",
"429.928 8.9985 OFFCURVE",
"483.919 0.999834 OFFCURVE",
"535.911 0.999834 CURVE SMOOTH",
"553.908 0.999834 LINE",
"562.906 0.999834 LINE SMOOTH",
"635.894 0.999834 OFFCURVE",
"707.882 23.996 OFFCURVE",
"771.872 61.9897 CURVE SMOOTH",
"835.861 99.9834 OFFCURVE",
"890.852 153.974 OFFCURVE",
"930.845 216.964 CURVE",
"923.846 151.975 OFFCURVE",
"917.847 87.9854 OFFCURVE",
"913.848 22.9962 CURVE",
"966.839 19.9967 OFFCURVE",
"1020.83 16.9972 OFFCURVE",
"1075.82 11.998 CURVE",
"1076.82 379.937 OFFCURVE",
"1116.81 743.876 OFFCURVE",
"1195.8 1110.82 CURVE",
"1130.81 1103.82 OFFCURVE",
"1064.82 1098.82 OFFCURVE",
"999.834 1095.82 CURVE",
"972.838 943.843 OFFCURVE",
"949.842 793.868 OFFCURVE",
"933.845 640.893 CURVE",
"918.847 548.909 OFFCURVE",
"887.852 456.924 OFFCURVE",
"822.863 384.936 CURVE SMOOTH",
"757.874 313.948 OFFCURVE",
"667.889 290.952 OFFCURVE",
"579.904 290.952 CURVE SMOOTH",
"514.914 290.952 OFFCURVE",
"449.925 314.948 OFFCURVE",
"410.932 382.936 CURVE",
"382.936 439.927 OFFCURVE",
"375.937 506.916 OFFCURVE",
"375.937 571.905 CURVE SMOOTH",
"375.937 577.904 OFFCURVE",
"375.937 583.903 OFFCURVE",
"376.937 589.902 CURVE",
"376.937 594.901 OFFCURVE",
"376.937 600.9 OFFCURVE",
"376.937 605.899 CURVE",
"388.935 770.872 OFFCURVE",
"396.934 932.845 OFFCURVE",
"399.933 1097.82 CURVE",
"377.937 1100.82 OFFCURVE",
"355.941 1102.82 OFFCURVE",
"333.944 1103.82 CURVE SMOOTH",
"310.948 1104.82 OFFCURVE",
"288.952 1107.82 OFFCURVE",
"267.955 1110.82 CURVE",
"267.955 1095.82 OFFCURVE",
"267.955 1080.82 OFFCURVE",
"268.955 1065.82 CURVE",
"268.955 1050.83 OFFCURVE",
"268.955 1035.83 OFFCURVE",
"268.955 1020.83 CURVE SMOOTH",
"268.955 827.862 OFFCURVE",
"257.957 636.894 OFFCURVE",
"236.961 441.926 CURVE SMOOTH"
);
}
);
width = 1340;
}
);
unicode = 0075;
},
{
glyphname = v;
layers = (
{
layerId = "FE27A893-8D3D-4D0E-A6EA-BC9D15131593";
name = "Regular Italic";
paths = (
{
closed = 1;
nodes = (
"300.95 1022.83 OFFCURVE",
"330.945 933.845 OFFCURVE",
"357.94 844.859 CURVE SMOOTH",
"412.931 665.889 OFFCURVE",
"459.923 484.919 OFFCURVE",
"504.916 302.95 CURVE SMOOTH",
"527.912 211.965 OFFCURVE",
"550.908 120.98 OFFCURVE",
"574.904 29.995 CURVE",
"599.9 29.995 OFFCURVE",
"624.896 29.995 OFFCURVE",
"649.892 30.9948 CURVE",
"673.888 30.9948 OFFCURVE",
"697.884 30.9948 OFFCURVE",
"722.88 30.9948 CURVE SMOOTH",
"740.877 30.9948 OFFCURVE",
"758.874 30.9948 OFFCURVE",
"777.871 30.9948 CURVE SMOOTH",
"795.868 30.9948 OFFCURVE",
"813.865 30.9948 OFFCURVE",
"831.862 29.995 CURVE",
"870.855 120.98 OFFCURVE",
"908.849 211.965 OFFCURVE",
"947.842 303.949 CURVE SMOOTH",
"985.836 394.934 OFFCURVE",
"1024.83 485.919 OFFCURVE",
"1064.82 576.904 CURVE SMOOTH",
"1144.81 756.874 OFFCURVE",
"1230.8 936.844 OFFCURVE",
"1329.78 1109.82 CURVE",
"1269.79 1104.82 OFFCURVE",
"1213.8 1100.82 OFFCURVE",
"1153.81 1096.82 CURVE",
"1074.82 964.839 OFFCURVE",
"1000.83 830.862 OFFCURVE",
"932.845 694.884 CURVE SMOOTH",
"863.856 558.907 OFFCURVE",
"794.868 422.93 OFFCURVE",
"725.879 285.952 CURVE",
"679.887 422.93 OFFCURVE",
"634.894 558.907 OFFCURVE",
"589.902 694.884 CURVE SMOOTH",
"544.909 829.862 OFFCURVE",
"493.918 963.84 OFFCURVE",
"438.927 1095.82 CURVE",
"409.932 1096.82 OFFCURVE",
"381.936 1098.82 OFFCURVE",
"353.941 1101.82 CURVE SMOOTH",
"324.946 1104.82 OFFCURVE",
"296.951 1106.82 OFFCURVE",
"267.955 1109.82 CURVE"
);
}
);
width = 1361;
}
);
unicode = 0076;
},
{
glyphname = w;
layers = (
{
layerId = "FE27A893-8D3D-4D0E-A6EA-BC9D15131593";
name = "Regular Italic";
paths = (
{
closed = 1;
nodes = (
"324.946 936.844 OFFCURVE",
"366.939 757.874 OFFCURVE",
"396.934 575.904 CURVE SMOOTH",
"426.929 393.934 OFFCURVE",
"444.926 208.965 OFFCURVE",
"459.923 23.996 CURVE",
"498.917 24.9958 OFFCURVE",
"537.91 25.9957 OFFCURVE",
"576.904 26.9955 CURVE SMOOTH",
"614.898 27.9953 OFFCURVE",
"653.891 28.9952 OFFCURVE",
"692.885 28.9952 CURVE",
"785.869 195.967 OFFCURVE",
"870.855 363.939 OFFCURVE",
"954.841 534.911 CURVE",
"1003.83 363.939 OFFCURVE",
"1057.82 196.967 OFFCURVE",
"1120.81 29.995 CURVE",
"1161.81 28.9952 OFFCURVE",
"1201.8 27.9953 OFFCURVE",
"1241.79 26.9955 CURVE SMOOTH",
"1281.79 25.9957 OFFCURVE",
"1321.78 24.9958 OFFCURVE",
"1362.77 23.996 CURVE",
"1405.77 208.965 OFFCURVE",
"1456.76 394.934 OFFCURVE",
"1518.75 576.904 CURVE SMOOTH",
"1580.74 758.874 OFFCURVE",
"1654.72 937.844 OFFCURVE",
"1745.71 1109.82 CURVE",
"1689.72 1105.82 OFFCURVE",
"1636.73 1103.82 OFFCURVE",
"1581.74 1100.82 CURVE",
"1446.76 847.859 OFFCURVE",
"1350.78 583.903 OFFCURVE",
"1258.79 315.947 CURVE",
"1198.8 454.924 OFFCURVE",
"1142.81 591.901 OFFCURVE",
"1086.82 732.878 CURVE",
"1071.82 731.878 OFFCURVE",
"1057.82 731.878 OFFCURVE",
"1043.83 731.878 CURVE SMOOTH",
"1029.83 731.878 OFFCURVE",
"1015.83 731.878 OFFCURVE",
"1000.83 731.878 CURVE SMOOTH",
"908.849 731.878 LINE",
"856.857 731.878 LINE",
"815.864 661.89 OFFCURVE",
"774.871 591.901 OFFCURVE",
"734.878 522.913 CURVE SMOOTH",
"694.884 453.924 OFFCURVE",
"653.891 384.936 OFFCURVE",
"610.898 315.947 CURVE",
"567.905 583.903 OFFCURVE",
"515.914 844.859 OFFCURVE",
"428.929 1099.82 CURVE",
"373.938 1102.82 OFFCURVE",
"320.947 1105.82 OFFCURVE",
"267.955 1109.82 CURVE"
);
}
);
width = 1777;
}
);
unicode = 0077;
},
{
glyphname = x;
layers = (
{
layerId = "FE27A893-8D3D-4D0E-A6EA-BC9D15131593";
name = "Regular Italic";
paths = (
{
closed = 1;
nodes = (
"1203.8 1101.82 OFFCURVE",
"1150.81 1098.82 OFFCURVE",
"1094.82 1095.82 CURVE",
"961.84 946.842 OFFCURVE",
"836.861 795.868 OFFCURVE",
"711.882 639.893 CURVE",
"623.896 794.868 OFFCURVE",
"534.911 944.843 OFFCURVE",
"438.927 1093.82 CURVE",
"379.937 1096.82 OFFCURVE",
"325.946 1099.82 OFFCURVE",
"266.956 1104.82 CURVE",
"387.935 917.847 OFFCURVE",
"496.917 729.879 OFFCURVE",
"604.899 534.911 CURVE",
"445.926 354.941 OFFCURVE",
"284.953 182.97 OFFCURVE",
"117.98 9.99834 CURVE",
"209.965 16.9972 OFFCURVE",
"297.95 22.9962 OFFCURVE",
"388.935 25.9957 CURVE",
"497.917 152.975 OFFCURVE",
"599.9 279.953 OFFCURVE",
"703.883 411.931 CURVE",
"775.871 279.953 OFFCURVE",
"851.858 152.975 OFFCURVE",
"932.845 25.9957 CURVE",
"1023.83 22.9962 OFFCURVE",
"1112.81 17.997 OFFCURVE",
"1201.8 9.99834 CURVE",
"1064.82 177.97 OFFCURVE",
"938.844 348.942 OFFCURVE",
"810.865 524.913 CURVE",
"957.841 723.88 OFFCURVE",
"1101.82 917.847 OFFCURVE",
"1258.79 1106.82 CURVE"
);
}
);
width = 1467;
}
);
unicode = 0078;
},
{
glyphname = y;
layers = (
{
layerId = "FE27A893-8D3D-4D0E-A6EA-BC9D15131593";
name = "Regular Italic";
paths = (
{
closed = 1;
nodes = (
"800.867 16.9972 OFFCURVE",
"846.859 116.981 OFFCURVE",
"892.851 217.964 CURVE SMOOTH",
"938.844 317.947 OFFCURVE",
"985.836 417.93 OFFCURVE",
"1032.83 517.914 CURVE SMOOTH",
"1126.81 716.881 OFFCURVE",
"1222.8 914.848 OFFCURVE",
"1329.78 1109.82 CURVE",
"1269.79 1102.82 OFFCURVE",
"1211.8 1096.82 OFFCURVE",
"1152.81 1091.82 CURVE",
"1021.83 876.854 OFFCURVE",
"903.85 661.89 OFFCURVE",
"782.87 441.926 CURVE",
"671.888 661.89 OFFCURVE",
"557.907 874.854 OFFCURVE",
"438.927 1090.82 CURVE",
"379.937 1094.82 OFFCURVE",
"323.946 1101.82 OFFCURVE",
"267.955 1109.82 CURVE",
"408.932 776.871 OFFCURVE",
"531.911 440.927 OFFCURVE",
"656.891 100.983 CURVE",
"641.893 73.9877 OFFCURVE",
"625.896 47.992 OFFCURVE",
"610.898 21.9963 CURVE SMOOTH",
"595.901 -4 OFFCURVE",
"579.904 -30 OFFCURVE",
"564.906 -57 CURVE",
"548.909 -74 OFFCURVE",
"532.911 -92 OFFCURVE",
"515.914 -109 CURVE SMOOTH",
"481.92 -144 OFFCURVE",
"446.926 -175 OFFCURVE",
"407.932 -187 CURVE SMOOTH",
"367.939 -199 OFFCURVE",
"327.945 -203 OFFCURVE",
"285.952 -203 CURVE",
"264.956 -204 OFFCURVE",
"243.959 -205 OFFCURVE",
"222.963 -207 CURVE",
"216.964 -244 OFFCURVE",
"210.965 -281 OFFCURVE",
"205.966 -318 CURVE SMOOTH",
"200.967 -355 OFFCURVE",
"194.968 -393 OFFCURVE",
"187.969 -430 CURVE",
"218.964 -427 OFFCURVE",
"250.958 -424 OFFCURVE",
"282.953 -422 CURVE SMOOTH",
"346.942 -419 OFFCURVE",
"409.932 -411 OFFCURVE",
"469.922 -393 CURVE SMOOTH",
"529.912 -375 OFFCURVE",
"580.903 -335 OFFCURVE",
"617.897 -293 CURVE SMOOTH",
"654.891 -251 OFFCURVE",
"685.886 -205 OFFCURVE",
"713.881 -156 CURVE",
"726.879 -131 OFFCURVE",
"740.877 -107 OFFCURVE",
"753.875 -83 CURVE"
);
}
);
width = 1361;
}
);
unicode = 0079;
},
{
glyphname = z;
layers = (
{
layerId = "FE27A893-8D3D-4D0E-A6EA-BC9D15131593";
name = "Regular Italic";
paths = (
{
closed = 1;
nodes = (
"389.935 976.837 OFFCURVE",
"511.915 973.838 OFFCURVE",
"636.894 973.838 CURVE SMOOTH",
"735.878 973.838 OFFCURVE",
"830.862 976.837 OFFCURVE",
"929.845 980.837 CURVE",
"673.888 743.876 OFFCURVE",
"420.93 507.915 OFFCURVE",
"169.972 263.956 CURVE",
"156.974 178.97 OFFCURVE",
"144.976 93.9844 OFFCURVE",
"125.979 9.99834 CURVE",
"275.954 23.996 OFFCURVE",
"425.929 30.9948 OFFCURVE",
"575.904 30.9948 CURVE SMOOTH",
"720.88 30.9948 OFFCURVE",
"862.856 25.9957 OFFCURVE",
"1005.83 10.9982 CURVE",
"1004.83 57.9903 OFFCURVE",
"1003.83 104.983 OFFCURVE",
"1003.83 151.975 CURVE SMOOTH",
"1003.83 166.972 OFFCURVE",
"1003.83 180.97 OFFCURVE",
"1003.83 195.967 CURVE SMOOTH",
"1003.83 209.965 OFFCURVE",
"1003.83 223.963 OFFCURVE",
"1004.83 238.96 CURVE",
"875.854 246.959 OFFCURVE",
"745.876 250.958 OFFCURVE",
"614.898 250.958 CURVE SMOOTH",
"543.909 250.958 OFFCURVE",
"471.921 249.958 OFFCURVE",
"399.933 247.959 CURVE",
"515.914 364.939 OFFCURVE",
"629.895 482.92 OFFCURVE",
"742.876 600.9 CURVE SMOOTH",
"854.858 717.88 OFFCURVE",
"968.839 835.861 OFFCURVE",
"1083.82 954.841 CURVE",
"1092.82 1006.83 OFFCURVE",
"1101.82 1057.82 OFFCURVE",
"1112.81 1109.82 CURVE",
"960.84 1094.82 OFFCURVE",
"810.865 1086.82 OFFCURVE",
"659.89 1086.82 CURVE SMOOTH",
"527.912 1086.82 OFFCURVE",
"396.934 1092.82 OFFCURVE",
"266.956 1104.82 CURVE",
"266.956 1065.82 LINE",
"266.956 987.836 LINE"
);
}
);
width = 1270;
}
);
unicode = 007A;
},
{
glyphname = braceleft;
layers = (
{
layerId = "FE27A893-8D3D-4D0E-A6EA-BC9D15131593";
name = "Regular Italic";
paths = (
{
closed = 1;
nodes = (
"817.864 -147 OFFCURVE",
"807.866 -146 OFFCURVE",
"798.867 -144 CURVE SMOOTH",
"788.869 -142 OFFCURVE",
"778.87 -141 OFFCURVE",
"769.872 -140 CURVE",
"754.874 -137 OFFCURVE",
"738.877 -135 OFFCURVE",
"722.88 -132 CURVE SMOOTH",
"705.883 -129 OFFCURVE",
"689.885 -126 OFFCURVE",
"674.888 -121 CURVE",
"643.893 -113 OFFCURVE",
"614.898 -100 OFFCURVE",
"593.901 -76 CURVE",
"593.901 -77 LINE",
"562.906 -36 OFFCURVE",
"559.907 17.997 OFFCURVE",
"559.907 68.9885 CURVE",
"563.906 108.982 OFFCURVE",
"567.905 148.975 OFFCURVE",
"571.905 188.969 CURVE SMOOTH",
"574.904 227.962 OFFCURVE",
"578.904 267.955 OFFCURVE",
"582.903 307.949 CURVE",
"582.903 306.949 LINE",
"582.903 342.943 LINE SMOOTH",
"582.903 398.934 OFFCURVE",
"579.904 451.925 OFFCURVE",
"558.907 502.916 CURVE SMOOTH",
"547.909 527.912 OFFCURVE",
"527.912 547.909 OFFCURVE",
"504.916 563.906 CURVE",
"480.92 578.904 OFFCURVE",
"453.924 587.902 OFFCURVE",
"428.929 594.901 CURVE",
"429.928 612.898 LINE",
"486.919 624.896 OFFCURVE",
"546.909 649.892 OFFCURVE",
"583.903 698.884 CURVE",
"604.899 730.878 OFFCURVE",
"619.897 765.872 OFFCURVE",
"627.896 802.866 CURVE SMOOTH",
"643.893 876.854 OFFCURVE",
"651.891 951.842 OFFCURVE",
"660.89 1030.83 CURVE SMOOTH",
"664.889 1069.82 OFFCURVE",
"668.889 1109.82 OFFCURVE",
"673.888 1149.81 CURVE",
"676.887 1164.81 OFFCURVE",
"678.887 1180.8 OFFCURVE",
"681.886 1197.8 CURVE",
"683.886 1213.8 OFFCURVE",
"686.886 1229.8 OFFCURVE",
"691.885 1245.79 CURVE",
"699.883 1276.79 OFFCURVE",
"712.881 1306.78 OFFCURVE",
"735.878 1331.78 CURVE",
"753.875 1346.78 OFFCURVE",
"773.871 1357.77 OFFCURVE",
"795.868 1365.77 CURVE SMOOTH",
"838.86 1380.77 OFFCURVE",
"884.853 1389.77 OFFCURVE",
"929.845 1395.77 CURVE SMOOTH",
"952.841 1398.77 OFFCURVE",
"973.838 1402.77 OFFCURVE",
"993.835 1407.77 CURVE",
"1000.83 1450.76 OFFCURVE",
"1006.83 1489.75 OFFCURVE",
"1014.83 1532.74 CURVE",
"982.836 1525.75 OFFCURVE",
"949.842 1519.75 OFFCURVE",
"916.847 1514.75 CURVE SMOOTH",
"882.853 1509.75 OFFCURVE",
"848.859 1503.75 OFFCURVE",
"815.864 1496.75 CURVE SMOOTH",
"747.876 1482.75 OFFCURVE",
"682.886 1462.76 OFFCURVE",
"622.896 1426.76 CURVE",
"582.903 1393.77 OFFCURVE",
"558.907 1348.78 OFFCURVE",
"543.909 1301.78 CURVE SMOOTH",
"528.912 1253.79 OFFCURVE",
"522.913 1202.8 OFFCURVE",
"515.914 1155.81 CURVE",
"512.915 1116.81 OFFCURVE",
"508.915 1078.82 OFFCURVE",
"504.916 1040.83 CURVE SMOOTH",
"499.917 1002.83 OFFCURVE",
"495.917 964.839 OFFCURVE",
"492.918 925.846 CURVE",
"488.919 890.852 OFFCURVE",
"483.919 854.858 OFFCURVE",
"472.921 819.864 CURVE SMOOTH",
"461.923 784.869 OFFCURVE",
"445.926 752.875 OFFCURVE",
"418.93 725.879 CURVE",
"390.935 702.883 OFFCURVE",
"356.941 688.885 OFFCURVE",
"321.946 680.887 CURVE SMOOTH",
"286.952 672.888 OFFCURVE",
"249.958 669.888 OFFCURVE",
"216.964 669.888 CURVE SMOOTH",
"209.965 669.888 OFFCURVE",
"202.966 670.888 OFFCURVE",
"195.967 671.888 CURVE SMOOTH",
"188.969 672.888 OFFCURVE",
"181.97 672.888 OFFCURVE",
"174.971 672.888 CURVE",
"173.971 651.891 OFFCURVE",
"171.971 631.895 OFFCURVE",
"168.972 611.898 CURVE SMOOTH",
"165.972 590.902 OFFCURVE",
"163.973 570.905 OFFCURVE",
"162.973 549.908 CURVE",
"172.971 549.908 LINE SMOOTH",
"177.97 549.908 OFFCURVE",
"183.969 549.908 OFFCURVE",
"188.969 549.908 CURVE",
"193.968 548.909 OFFCURVE",
"198.967 548.909 OFFCURVE",
"203.966 548.909 CURVE SMOOTH",
"209.965 548.909 LINE SMOOTH",
"241.96 547.909 OFFCURVE",
"276.954 544.909 OFFCURVE",
"308.949 535.911 CURVE SMOOTH",
"340.943 526.912 OFFCURVE",
"369.938 510.915 OFFCURVE",
"389.935 485.919 CURVE",
"420.93 434.928 OFFCURVE",
"424.929 372.938 OFFCURVE",
"424.929 312.948 CURVE SMOOTH",
"424.929 256.957 OFFCURVE",
"418.93 201.966 OFFCURVE",
"411.931 145.976 CURVE SMOOTH",
"403.933 89.985 OFFCURVE",
"397.934 33.9943 OFFCURVE",
"397.934 -21 CURVE SMOOTH",
"397.934 -97 OFFCURVE",
"406.932 -170 OFFCURVE",
"454.924 -226 CURVE",
"477.92 -246 OFFCURVE",
"503.916 -262 OFFCURVE",
"534.911 -273 CURVE SMOOTH",
"595.901 -297 OFFCURVE",
"662.89 -310 OFFCURVE",
"727.879 -318 CURVE SMOOTH",
"760.873 -323 OFFCURVE",
"790.868 -327 OFFCURVE",
"817.864 -332 CURVE",
"818.864 -301 OFFCURVE",
"819.864 -271 OFFCURVE",
"821.863 -240 CURVE SMOOTH",
"823.863 -209 OFFCURVE",
"825.863 -179 OFFCURVE",
"826.862 -148 CURVE"
);
}
);
width = 1155;
}
);
unicode = 007B;
},
{
glyphname = bar;
layers = (
{
layerId = "FE27A893-8D3D-4D0E-A6EA-BC9D15131593";
name = "Regular Italic";
paths = (
{
closed = 1;
nodes = (
"297.95 -120 OFFCURVE",
"333.944 194.968 OFFCURVE",
"370.938 514.914 CURVE",
"346.942 513.914 OFFCURVE",
"322.946 513.914 OFFCURVE",
"299.95 513.914 CURVE SMOOTH",
"276.954 513.914 OFFCURVE",
"252.958 513.914 OFFCURVE",
"229.962 513.914 CURVE",
"186.969 182.97 OFFCURVE",
"140.977 -142 OFFCURVE",
"89.985 -473 CURVE",
"128.979 -448 OFFCURVE",
"172.971 -435 OFFCURVE",
"216.964 -435 CURVE SMOOTH",
"230.962 -435 OFFCURVE",
"245.959 -437 OFFCURVE",
"262.956 -440 CURVE"
);
},
{
closed = 1;
nodes = (
"252.958 635.894 OFFCURVE",
"264.956 635.894 OFFCURVE",
"276.954 635.894 CURVE SMOOTH",
"288.952 635.894 OFFCURVE",
"300.95 635.894 OFFCURVE",
"311.948 635.894 CURVE SMOOTH",
"322.946 635.894 OFFCURVE",
"334.944 635.894 OFFCURVE",
"346.942 635.894 CURVE SMOOTH",
"357.94 635.894 OFFCURVE",
"369.938 636.894 OFFCURVE",
"381.936 637.894 CURVE",
"421.93 945.843 OFFCURVE",
"463.923 1247.79 OFFCURVE",
"507.915 1554.74 CURVE",
"470.922 1527.75 OFFCURVE",
"425.929 1513.75 OFFCURVE",
"381.936 1513.75 CURVE SMOOTH",
"376.937 1513.75 OFFCURVE",
"372.938 1513.75 OFFCURVE",
"367.939 1513.75 CURVE SMOOTH",
"362.94 1513.75 OFFCURVE",
"358.94 1514.75 OFFCURVE",
"353.941 1515.75 CURVE",
"334.944 1368.77 OFFCURVE",
"315.947 1221.8 OFFCURVE",
"297.95 1076.82 CURVE SMOOTH",
"279.953 930.845 OFFCURVE",
"260.957 783.87 OFFCURVE",
"241.96 636.894 CURVE"
);
}
);
width = 623;
}
);
unicode = 007C;
},
{
glyphname = braceright;
layers = (
{
layerId = "FE27A893-8D3D-4D0E-A6EA-BC9D15131593";
name = "Regular Italic";
paths = (
{
closed = 1;
nodes = (
"212.965 -212 OFFCURVE",
"209.965 -234 OFFCURVE",
"206.966 -256 CURVE SMOOTH",
"203.966 -279 OFFCURVE",
"199.967 -301 OFFCURVE",
"196.967 -324 CURVE",
"205.966 -323 OFFCURVE",
"213.964 -321 OFFCURVE",
"222.963 -319 CURVE",
"231.961 -318 OFFCURVE",
"240.96 -316 OFFCURVE",
"249.958 -315 CURVE",
"277.954 -309 OFFCURVE",
"306.949 -304 OFFCURVE",
"335.944 -299 CURVE SMOOTH",
"364.939 -295 OFFCURVE",
"392.935 -290 OFFCURVE",
"421.93 -284 CURVE SMOOTH",
"478.92 -272 OFFCURVE",
"533.911 -255 OFFCURVE",
"584.903 -220 CURVE",
"624.896 -184 OFFCURVE",
"647.892 -139 OFFCURVE",
"661.89 -91 CURVE SMOOTH",
"675.888 -43 OFFCURVE",
"680.887 7.99867 OFFCURVE",
"685.886 55.9907 CURVE SMOOTH",
"692.885 131.978 OFFCURVE",
"698.884 208.965 OFFCURVE",
"703.883 284.953 CURVE",
"707.882 320.947 OFFCURVE",
"712.881 357.94 OFFCURVE",
"723.88 393.934 CURVE SMOOTH",
"734.878 429.928 OFFCURVE",
"749.875 463.923 OFFCURVE",
"776.871 491.918 CURVE",
"805.866 519.913 OFFCURVE",
"840.86 533.911 OFFCURVE",
"877.854 541.91 CURVE SMOOTH",
"914.848 549.908 OFFCURVE",
"952.841 549.908 OFFCURVE",
"987.836 549.908 CURVE SMOOTH",
"1020.83 549.908 LINE",
"1030.83 672.888 LINE",
"1022.83 673.888 OFFCURVE",
"1014.83 673.888 OFFCURVE",
"1006.83 672.888 CURVE SMOOTH",
"997.834 671.888 OFFCURVE",
"989.835 671.888 OFFCURVE",
"981.837 671.888 CURVE SMOOTH",
"948.842 671.888 OFFCURVE",
"913.848 672.888 OFFCURVE",
"881.853 680.887 CURVE",
"848.859 687.885 OFFCURVE",
"819.864 701.883 OFFCURVE",
"796.867 726.879 CURVE",
"765.872 767.872 OFFCURVE",
"758.874 817.864 OFFCURVE",
"758.874 869.855 CURVE SMOOTH",
"758.874 890.852 OFFCURVE",
"759.874 910.848 OFFCURVE",
"761.873 930.845 CURVE SMOOTH",
"781.87 1161.81 LINE SMOOTH",
"784.869 1190.8 OFFCURVE",
"785.869 1218.8 OFFCURVE",
"785.869 1249.79 CURVE SMOOTH",
"785.869 1320.78 OFFCURVE",
"775.871 1386.77 OFFCURVE",
"728.879 1437.76 CURVE",
"703.883 1456.76 OFFCURVE",
"676.887 1472.75 OFFCURVE",
"645.893 1483.75 CURVE SMOOTH",
"584.903 1505.75 OFFCURVE",
"517.914 1518.75 OFFCURVE",
"452.925 1527.75 CURVE SMOOTH",
"419.93 1532.74 OFFCURVE",
"389.935 1538.74 OFFCURVE",
"360.94 1545.74 CURVE",
"359.94 1524.75 OFFCURVE",
"358.94 1503.75 OFFCURVE",
"358.94 1483.75 CURVE",
"357.94 1462.76 OFFCURVE",
"356.941 1441.76 OFFCURVE",
"355.941 1420.76 CURVE",
"371.938 1417.76 OFFCURVE",
"390.935 1414.76 OFFCURVE",
"411.931 1411.77 CURVE SMOOTH",
"432.928 1408.77 OFFCURVE",
"454.924 1404.77 OFFCURVE",
"477.92 1399.77 CURVE SMOOTH",
"521.913 1389.77 OFFCURVE",
"565.906 1372.77 OFFCURVE",
"594.901 1344.78 CURVE",
"621.896 1309.78 OFFCURVE",
"627.896 1266.79 OFFCURVE",
"627.896 1222.8 CURVE SMOOTH",
"627.896 1159.81 OFFCURVE",
"621.896 1096.82 OFFCURVE",
"614.898 1032.83 CURVE SMOOTH",
"607.899 967.839 OFFCURVE",
"601.9 903.85 OFFCURVE",
"601.9 840.86 CURVE SMOOTH",
"601.9 793.868 OFFCURVE",
"604.899 745.876 OFFCURVE",
"627.896 705.883 CURVE",
"654.891 654.891 OFFCURVE",
"710.882 629.895 OFFCURVE",
"765.872 618.897 CURVE",
"763.873 600.9 LINE",
"706.882 585.902 OFFCURVE",
"645.893 560.907 OFFCURVE",
"610.898 509.915 CURVE SMOOTH",
"589.902 478.92 OFFCURVE",
"576.904 446.926 OFFCURVE",
"568.905 411.931 CURVE SMOOTH",
"559.907 375.937 OFFCURVE",
"555.907 339.943 OFFCURVE",
"551.908 306.949 CURVE SMOOTH",
"543.909 226.962 OFFCURVE",
"536.911 148.975 OFFCURVE",
"529.912 68.9885 CURVE",
"525.912 36.9938 OFFCURVE",
"521.913 2.9995 OFFCURVE",
"513.914 -29 CURVE SMOOTH",
"504.916 -61 OFFCURVE",
"490.918 -93 OFFCURVE",
"466.922 -118 CURVE",
"449.925 -132 OFFCURVE",
"429.928 -143 OFFCURVE",
"407.932 -151 CURVE SMOOTH",
"363.939 -168 OFFCURVE",
"318.947 -177 OFFCURVE",
"274.954 -181 CURVE",
"252.958 -184 OFFCURVE",
"232.961 -186 OFFCURVE",
"215.964 -189 CURVE"
);
}
);
width = 1171;
}
);
unicode = 007D;
},
